<svg width="20" height="20" viewBox="0 0 20 20" fill="none" xmlns="http://www.w3.org/2000/svg">
<path fill-rule="evenodd" clip-rule="evenodd" d="M0 3.33333C0 2.44928 0.35119 1.60143 0.976311 0.976311C1.60143 0.35119 2.44928 0 3.33333 0H16.6667C17.5507 0 18.3986 0.35119 19.0237 0.976311C19.6488 1.60143 20 2.44928 20 3.33333V16.6667C20 17.5507 19.6488 18.3986 19.0237 19.0237C18.3986 19.6488 17.5507 20 16.6667 20H3.33333C2.44928 20 1.60143 19.6488 0.976311 19.0237C0.35119 18.3986 0 17.5507 0 16.6667V3.33333ZM17.7778 3.33333V12.8733L14.4889 9.58444C13.8876 8.98356 13.0795 8.63508 12.2298 8.6103C11.3801 8.58552 10.5531 8.88629 9.91778 9.45111L2.22222 16.2911V3.33333C2.22222 3.03865 2.33929 2.75603 2.54766 2.54766C2.75603 2.33929 3.03865 2.22222 3.33333 2.22222H16.6667C16.9614 2.22222 17.244 2.33929 17.4523 2.54766C17.6607 2.75603 17.7778 3.03865 17.7778 3.33333ZM16.6667 17.7778H3.89444L11.3944 11.1111C11.6062 10.9229 11.8818 10.8228 12.1649 10.831C12.4481 10.8393 12.7174 10.9554 12.9178 11.1556L17.7778 16.0167V16.6667C17.7778 16.9614 17.6607 17.244 17.4523 17.4523C17.244 17.6607 16.9614 17.7778 16.6667 17.7778ZM5.55556 3.33333C4.96619 3.33333 4.40095 3.56746 3.98421 3.98421C3.56746 4.40095 3.33333 4.96619 3.33333 5.55556C3.33333 6.14493 3.56746 6.71016 3.98421 7.1269C4.40095 7.54365 4.96619 7.77778 5.55556 7.77778C6.14493 7.77778 6.71016 7.54365 7.1269 7.1269C7.54365 6.71016 7.77778 6.14493 7.77778 5.55556C7.77778 4.96619 7.54365 4.40095 7.1269 3.98421C6.71016 3.56746 6.14493 3.33333 5.55556 3.33333Z" fill="#F0D12E"/>
</svg>
