<svg width="20" height="20" viewBox="0 0 20 20" fill="none" xmlns="http://www.w3.org/2000/svg">
<g clip-path="url(#clip0_900_2429)">
<path d="M18.4456 9.06149L14.6912 12.8147C12.619 14.8881 9.25745 14.8881 7.18493 12.8147C6.85848 12.4892 6.60309 12.1224 6.37882 11.7441L8.1233 9.99977C8.20622 9.91614 8.30862 9.86822 8.40647 9.81177C8.52708 10.2238 8.73761 10.6139 9.06166 10.938C10.0965 11.9737 11.7804 11.9722 12.8147 10.938L16.5679 7.18485C17.6036 6.1493 17.6036 4.46578 16.5679 3.43101C15.5337 2.39624 13.8502 2.39624 12.8147 3.43101L11.48 4.76711C10.3969 4.34539 9.23005 4.23201 8.09411 4.39847L10.9382 1.5545C13.0116 -0.518492 16.3723 -0.518492 18.4456 1.5545C20.518 3.62741 20.518 6.98863 18.4456 9.06149ZM8.52051 15.2331L7.18489 16.5692C6.15012 17.6034 4.46612 17.6034 3.43117 16.5692C2.39632 15.5335 2.39632 13.85 3.43117 12.8147L7.18489 9.06149C8.22049 8.02602 9.90335 8.02602 10.9381 9.06149C11.2614 9.38488 11.4722 9.77488 11.5939 10.1864C11.6923 10.1292 11.7935 10.0827 11.8764 9.99972L13.6207 8.25607C13.3979 7.87632 13.1412 7.51083 12.8146 7.18494C10.7426 5.11195 7.38072 5.11195 5.30773 7.18494L1.55458 10.9382C-0.518194 13.0118 -0.518194 16.3721 1.55458 18.4455C3.62757 20.5179 6.98867 20.5179 9.06161 18.4455L11.9064 15.6009C10.7699 15.7684 9.60267 15.654 8.52051 15.2331Z" fill="#418FD8"/>
</g>
<defs>
<clipPath id="clip0_900_2429">
<rect width="20" height="20" fill="white"/>
</clipPath>
</defs>
</svg>
