<?xml version="1.0" standalone="no"?>
<!DOCTYPE svg PUBLIC "-//W3C//DTD SVG 1.1//EN" "http://www.w3.org/Graphics/SVG/1.1/DTD/svg11.dtd" >
<svg>
<metadata>
Created by FontForge 20090914 at Mon Sep 19 16:38:31 2022
 By www-data
Copyright (c) 2012 by Rui Abreu, Portugal. All rights reserved.
</metadata>
<defs>
<font id="AzoSans-Regular" horiz-adv-x="502" >
  <font-face 
    font-family="Azo Sans"
    font-weight="400"
    font-stretch="normal"
    units-per-em="1000"
    panose-1="2 0 0 0 0 0 0 0 0 0"
    ascent="772"
    descent="-228"
    x-height="492"
    cap-height="724"
    bbox="-100 -272.005 1294 1011"
    underline-thickness="50"
    underline-position="-170"
    unicode-range="U+000D-U+FB02"
  />
<missing-glyph horiz-adv-x="648" 
d="M152 604l131 131l213 -212l-101 -101l101 -100l-101 -101l101 -100l-132 -132l-212 213l100 100l-100 101l100 100z" />
    <glyph glyph-name="fi" unicode="fi" horiz-adv-x="592" 
d="M104 0l-0.000976562 411h-78v81h78v94c0 70 14.667 119.333 44 148c28 27.333 66.333 41 115 41c26.667 0 51.334 -3.33301 74.001 -10v-81c-22.667 6 -46 9 -70 9c-28.667 0 -48 -8.16699 -58 -24.5s-15 -39.5 -15 -69.5v-107h126v-81h-126v-411h-90zM404.999 661
c0 17.333 6.16699 32.166 18.5 44.499s27.166 18.5 44.499 18.5s32.166 -6.16699 44.499 -18.5s18.5 -27.166 18.5 -44.499s-6.16699 -32.166 -18.5 -44.499s-27.166 -18.5 -44.499 -18.5s-32.166 6.16699 -44.499 18.5s-18.5 27.166 -18.5 44.499zM422.999 0v492h90v-492
h-90z" />
    <glyph glyph-name="fl" unicode="fl" horiz-adv-x="592" 
d="M104 0l-0.000976562 411h-78v81h78v94c0 70 14.667 119.333 44 148c28 27.333 66.333 41 115 41c26.667 0 51.334 -3.33301 74.001 -10v-81c-22.667 6 -46 9 -70 9c-28.667 0 -48 -8.16699 -58 -24.5s-15 -39.5 -15 -69.5v-107h126v-81h-126v-411h-90zM422.999 0v764h90
v-764h-90z" />
    <glyph glyph-name=".notdef" horiz-adv-x="648" 
d="M152 604l131 131l213 -212l-101 -101l101 -100l-101 -101l101 -100l-132 -132l-212 213l100 100l-100 101l100 100z" />
    <glyph glyph-name=".null" horiz-adv-x="1" 
 />
    <glyph glyph-name=".null" horiz-adv-x="1" 
 />
    <glyph glyph-name="CR" unicode="&#xd;" horiz-adv-x="349" 
 />
    <glyph glyph-name="space" unicode=" " horiz-adv-x="242" 
 />
    <glyph glyph-name="exclam" unicode="!" horiz-adv-x="306" 
d="M91 52c0 17.333 6.16699 32.166 18.5 44.499s27.166 18.5 44.499 18.5s32.166 -6.16699 44.499 -18.5s18.5 -27.166 18.5 -44.499s-6.16699 -32.166 -18.5 -44.499s-27.166 -18.5 -44.499 -18.5s-32.166 6.16699 -44.499 18.5s-18.5 27.166 -18.5 44.499zM126 222
l-24 502h104l-24 -502h-56z" />
    <glyph glyph-name="quotedbl" unicode="&#x22;" horiz-adv-x="352" 
d="M66 473l-15 269h85l-15 -269h-55zM231 473l-15 269h85l-15 -269h-55z" />
    <glyph glyph-name="numbersign" unicode="#" horiz-adv-x="618" 
d="M74 0l64 223h-124l17 61h124l45 156h-124l17 61h124l64 223h64l-64 -223h135l64 223h64l-64 -223h124l-17 -61h-124l-45 -156h124l-17 -61h-124l-64 -223h-64l64 223h-135l-64 -223h-64zM219 284h135l45 156h-135z" />
    <glyph glyph-name="dollar" unicode="$" horiz-adv-x="574" 
d="M82 94l-0.00195312 99.001c60.667 -42 128.334 -63 203.001 -63c39.333 0 70.5 7.83301 93.5 23.5s34.5 38.834 34.5 69.501c0 9.33301 -1.33301 17.833 -4 25.5s-5.66699 14.334 -9 20.001s-9 11 -17 16s-14.667 9 -20 12s-14 6.33301 -26 10s-20.833 6.16699 -26.5 7.5
l-31 7c-15 3.33301 -25.167 5.66602 -30.5 6.99902c-27.333 6 -50.666 12.833 -69.999 20.5s-38.333 17.834 -57 30.501s-32.834 29.167 -42.501 49.5s-14.5 44.166 -14.5 71.499c0 50 16 90 48 120s75 48 129 54v126h74v-126c58.667 -4 111.334 -19.667 158.001 -47v-96
c-61.333 40.667 -126.666 61 -195.999 61c-36.667 0 -65.834 -7.33301 -87.501 -22s-32.5 -36.334 -32.5 -65.001c0 -8.66699 1.33301 -16.667 4 -24s5.66699 -13.666 9 -18.999s8.66602 -10.333 15.999 -15s13.5 -8.33398 18.5 -11.001s13.167 -5.66699 24.5 -9l25.5 -7.5
c5.66699 -1.66699 15.334 -4 29.001 -7l29.5 -6.5c28.667 -6.66699 53 -13.834 73 -21.501s39.833 -18 59.5 -31s34.5 -30 44.5 -51s15 -45.833 15 -74.5c0 -52.667 -17.333 -94.667 -52 -126s-80.667 -49.666 -138 -54.999v-123h-74v124
c-60 5.33301 -113.333 20.666 -160 45.999z" />
    <glyph glyph-name="percent" unicode="%" horiz-adv-x="932" 
d="M228 361c-50.667 0 -92.334 17.833 -125.001 53.5s-49 80.167 -49 133.5s16.333 97.833 49 133.5s74.334 53.5 125.001 53.5s92.334 -17.833 125.001 -53.5s49 -80.167 49 -133.5s-16.333 -97.833 -49 -133.5s-74.334 -53.5 -125.001 -53.5zM196 0l471 724h69l-471 -724
h-69zM228 423c31.333 0 57.333 12 78 36s31 53.667 31 89s-10.333 65 -31 89s-46.667 36 -78 36s-57.333 -12 -78 -36s-31 -53.667 -31 -89s10.333 -65 31 -89s46.667 -36 78 -36zM530 176c0 53.333 16.333 97.833 49 133.5s74.334 53.5 125.001 53.5
s92.334 -17.833 125.001 -53.5s49 -80.167 49 -133.5s-16.333 -97.833 -49 -133.5s-74.334 -53.5 -125.001 -53.5s-92.334 17.833 -125.001 53.5s-49 80.167 -49 133.5zM595 176c0 -35.333 10.333 -65 31 -89s46.667 -36 78 -36s57.333 12 78 36s31 53.667 31 89
s-10.333 65 -31 89s-46.667 36 -78 36s-57.333 -12 -78 -36s-31 -53.667 -31 -89z" />
    <glyph glyph-name="ampersand" unicode="&#x26;" horiz-adv-x="702" 
d="M545 434l93 -0.000976562l-86 -267l164 -165l-1 -2h-114l-86 86c-46 -64.667 -117.667 -97 -215 -97c-76 0 -135.333 19.833 -178 59.5s-64 87.834 -64 144.501c0 75.333 41.667 137.333 125 186l24 14l-22 23c-48.667 50 -73 100 -73 150s17.667 90.667 53 122
s79.333 47 132 47c54 0 98.167 -16.167 132.5 -48.5s51.5 -72.5 51.5 -120.5c0 -64 -33 -117.333 -99 -160l-41 -27l142 -143zM303 70.999c68.667 0 117.333 26.667 146 80l-183 184l-38 -22c-53.333 -31.333 -80 -70.333 -80 -117c0 -34.667 13.833 -64.167 41.5 -88.5
s65.5 -36.5 113.5 -36.5zM201.999 564.999c0 -30 16.666 -61.999 49.999 -95.999l31 -32l45 30c42 28 63 60.333 63 97c0 26.667 -9.16699 48 -27.5 64s-41.166 24 -68.499 24c-28 0 -50.5 -8.33301 -67.5 -25s-25.5 -37.334 -25.5 -62.001z" />
    <glyph glyph-name="quotesingle" unicode="'" horiz-adv-x="187" 
d="M66 473l-15 269h85l-15 -269h-55z" />
    <glyph glyph-name="parenleft" unicode="(" horiz-adv-x="350" 
d="M73 265c0 100.667 13.333 191.5 40 272.5s61.334 149.5 104.001 205.5h89c-44.667 -58.667 -80.834 -129 -108.501 -211s-41.5 -171 -41.5 -267s13.833 -185 41.5 -267s63.834 -152.333 108.501 -211h-89c-42.667 56 -77.334 124.5 -104.001 205.5s-40 171.833 -40 272.5
z" />
    <glyph glyph-name="parenright" unicode=")" horiz-adv-x="350" 
d="M44 -213c44.667 58.667 80.834 129 108.501 211s41.5 171 41.5 267s-13.833 185 -41.5 267s-63.834 152.333 -108.501 211h89c42.667 -56 77.334 -124.5 104.001 -205.5s40 -171.833 40 -272.5s-13.333 -191.5 -40 -272.5s-61.334 -149.5 -104.001 -205.5h-89z" />
    <glyph glyph-name="asterisk" unicode="*" horiz-adv-x="457" 
d="M208 576l-13 152h67l-13 -152h-41zM275 526l-12 40l142 60l21 -66zM182 526l-151 34l21 66l142 -60zM317 353l-80 132l34 24l100 -116zM140 353l-54 40l100 116l34 -24z" />
    <glyph glyph-name="plus" unicode="+" horiz-adv-x="588" 
d="M257 116v210h-204v72h204v210h74v-210h204v-72h-204v-210h-74z" />
    <glyph glyph-name="comma" unicode="," horiz-adv-x="294" 
d="M56 -147l56 283h91l-81 -283h-66z" />
    <glyph glyph-name="hyphen" unicode="-" horiz-adv-x="352" 
d="M57 237v80h238v-80h-238z" />
    <glyph glyph-name="period" unicode="." horiz-adv-x="294" 
d="M82 55c0 18 6.5 33.5 19.5 46.5s28.5 19.5 46.5 19.5s33.5 -6.5 46.5 -19.5s19.5 -28.5 19.5 -46.5s-6.5 -33.5 -19.5 -46.5s-28.5 -19.5 -46.5 -19.5s-33.5 6.5 -46.5 19.5s-19.5 28.5 -19.5 46.5z" />
    <glyph glyph-name="slash" unicode="/" horiz-adv-x="446" 
d="M18 -38l336 800h74l-336 -800h-74z" />
    <glyph glyph-name="zero" unicode="0" horiz-adv-x="618" 
d="M309 -11c-75.333 0 -134.666 29.333 -177.999 88c-46 62.667 -69 157.667 -69 285s23 222.333 69 285c43.333 58.667 102.666 88 177.999 88s134.666 -29.333 177.999 -88c46 -62.667 69 -157.667 69 -285s-23 -222.333 -69 -285
c-43.333 -58.667 -102.666 -88 -177.999 -88zM309 77c40.667 0 74 16.333 100 49c34.667 44.667 52 123.334 52 236.001s-17.333 191.334 -52 236.001c-26 32.667 -59.333 49 -100 49s-74 -16.333 -100 -49c-34.667 -44.667 -52 -123.334 -52 -236.001
s17.333 -191.334 52 -236.001c26 -32.667 59.333 -49 100 -49z" />
    <glyph glyph-name="one" unicode="1" horiz-adv-x="509" 
d="M243 0v607l-166 -64v91l261 101v-735h-95z" />
    <glyph glyph-name="two" unicode="2" horiz-adv-x="562" 
d="M24 2l239 287.002c43.333 51.333 74.333 94.166 93 128.499s28 67.833 28 100.5c0 41.333 -13 73.166 -39 95.499s-60.667 33.5 -104 33.5c-58.667 0 -112.667 -18 -162 -54v96c47.333 30.667 103 46 167 46c67.333 0 123 -18.667 167 -56s66 -89.333 66 -156
c0 -46 -11.333 -90.667 -34 -134s-57.667 -93.333 -105 -150l-126 -151l1 -2h290v-86h-480z" />
    <glyph glyph-name="three" unicode="3" horiz-adv-x="555" 
d="M53 56v109c59.333 -58.667 125.333 -88 198 -88c44 0 79.667 11 107 33s41 52 41 90c0 36.667 -13.167 66 -39.5 88s-64.5 33 -114.5 33h-68v84h65c44.667 0 79.5 11.167 104.5 33.5s37.5 51.5 37.5 87.5c0 37.333 -12.833 66.833 -38.5 88.5s-59.167 32.5 -100.5 32.5
c-53.333 0 -103 -16.333 -149 -49v97c44.667 26.667 96 40 154 40c66.667 0 121.5 -18.5 164.5 -55.5s64.5 -85.167 64.5 -144.5c0 -40 -10.333 -74.667 -31 -104s-49 -49.333 -85 -60v-2c43.333 -9.33301 76 -29.5 98 -60.5s33 -67.833 33 -110.5
c0 -62.667 -22.667 -113.167 -68 -151.5s-103.333 -57.5 -174 -57.5c-40 0 -77.667 6.33301 -113 19s-64 28.667 -86 48z" />
    <glyph glyph-name="four" unicode="4" horiz-adv-x="639" 
d="M478 724v-465h130v-84h-130v-175h-94v175h-365l-1 2l373 547h87zM294 443l-124 -182l1 -2h213v171c0 40 0.666992 89.333 2 148l-2 1c-18.667 -30.667 -48.667 -76 -90 -136z" />
    <glyph glyph-name="five" unicode="5" horiz-adv-x="544" 
d="M56 37l7.00195 99c53.333 -39.333 111.666 -59 174.999 -59c48 0 87 11.5 117 34.5s45 54.167 45 93.5c0 26.667 -7.16699 49.667 -21.5 69s-33.5 34 -57.5 44s-48.667 17.167 -74 21.5s-52 6.5 -80 6.5s-55 -2 -81 -6l29 384h360l-7 -86h-265l-15 -209
c40 0 77.333 -3.83301 112 -11.5s67 -19.667 97 -36s53.833 -39.333 71.5 -69s26.5 -64.167 26.5 -103.5c0 -66.667 -23.667 -120 -71 -160s-109.333 -60 -186 -60c-70.667 0 -131.334 16 -182.001 48z" />
    <glyph glyph-name="six" unicode="6" horiz-adv-x="599" 
d="M301 724l109 0.000976562l-172 -274c-11.333 -17.333 -20.333 -32 -27 -44l2 -1c29.333 21.333 66 32 110 32c62 0 114.167 -20.833 156.5 -62.5s63.5 -93.834 63.5 -156.501c0 -66 -23.333 -120.667 -70 -164s-105.334 -65 -176.001 -65
c-71.333 0 -130.166 22 -176.499 66s-69.5 101.667 -69.5 173c0 34 6.5 68.5 19.5 103.5s35.833 78.833 68.5 131.5zM147 219.001c0 -38.667 14.168 -72.668 42.501 -102.001s64.5 -44 108.5 -44c42 0 77.667 13.167 107 39.5s44 60.5 44 102.5c0 40.667 -14 74.5 -42 101.5
s-63.667 40.5 -107 40.5c-42.667 0 -78.834 -13.167 -108.501 -39.5s-44.5 -59.166 -44.5 -98.499z" />
    <glyph glyph-name="seven" unicode="7" horiz-adv-x="558" 
d="M120 0l267 638h-339v86h472l1 -2l-302 -722h-99z" />
    <glyph glyph-name="eight" unicode="8" horiz-adv-x="604" 
d="M59 203c0 42.667 11.002 79.834 33.002 111.501s52.667 54.167 92 67.5v2c-70 28.667 -105 79.667 -105 153c0 57.333 20.667 104.666 62 141.999s95 56 161 56s119.667 -18.667 161 -56s62 -84.666 62 -141.999c0 -73.333 -35 -124.333 -105 -153v-2
c39.333 -13.333 70 -35.833 92 -67.5s33 -68.834 33 -111.501c0 -62 -22.333 -113.167 -67 -153.5s-103.334 -60.5 -176.001 -60.5s-131.334 20.167 -176.001 60.5s-67 91.5 -67 153.5zM302.002 415c37.333 0 68.833 11.167 94.5 33.5s38.5 50.5 38.5 84.5
s-12.667 62.167 -38 84.5s-57 33.5 -95 33.5s-69.667 -11.167 -95 -33.5s-38 -50.5 -38 -84.5s12.833 -62.167 38.5 -84.5s57.167 -33.5 94.5 -33.5zM153.002 205c0 -38.667 14.333 -70.334 43 -95.001s64 -37 106 -37s77.333 12.333 106 37s43 56.334 43 95.001
s-14.333 70.667 -43 96s-64 38 -106 38s-77.333 -12.667 -106 -38s-43 -57.333 -43 -96z" />
    <glyph glyph-name="nine" unicode="9" horiz-adv-x="586" 
d="M279 0l-109 -0.000976562l194 309l-2 2c-26.667 -16 -59.334 -24 -98.001 -24c-60 0 -111.5 20.5 -154.5 61.5s-64.5 93.167 -64.5 156.5c0 66.667 23.5 121.667 70.5 165s106.167 65 177.5 65c70.667 0 128.667 -21.5 174 -64.5s68 -99.167 68 -168.5
c0 -38.667 -7.16699 -75.167 -21.5 -109.5s-36.166 -75.166 -65.499 -122.499zM289 367.999c44.667 0 80.833 13.5 108.5 40.5s41.5 59.833 41.5 98.5c0 38 -14.167 71.333 -42.5 100s-63.833 43 -106.5 43c-41.333 0 -76.833 -13.167 -106.5 -39.5
s-44.5 -60.5 -44.5 -102.5c0 -40 14 -73.333 42 -100s64 -40 108 -40z" />
    <glyph glyph-name="colon" unicode=":" horiz-adv-x="294" 
d="M147 373c-18 0 -33.333 6.33301 -46 19s-19 28 -19 46s6.33301 33.333 19 46s28 19 46 19s33.333 -6.33301 46 -19s19 -28 19 -46s-6.33301 -33.333 -19 -46s-28 -19 -46 -19zM82 54c0 18 6.33301 33.333 19 46s28 19 46 19s33.333 -6.33301 46 -19s19 -28 19 -46
s-6.33301 -33.333 -19 -46s-28 -19 -46 -19s-33.333 6.33301 -46 19s-19 28 -19 46z" />
    <glyph glyph-name="semicolon" unicode=";" horiz-adv-x="294" 
d="M56 -147l56 283h91l-81 -283h-66zM147 373c-18 0 -33.333 6.33301 -46 19s-19 28 -19 46s6.33301 33.333 19 46s28 19 46 19s33.333 -6.33301 46 -19s19 -28 19 -46s-6.33301 -33.333 -19 -46s-28 -19 -46 -19z" />
    <glyph glyph-name="less" unicode="&#x3c;" horiz-adv-x="687" 
d="M90 336v52l507 216v-77l-387 -164v-2l387 -164v-77z" />
    <glyph glyph-name="equal" unicode="=" horiz-adv-x="588" 
d="M53 428v72h482v-72h-482zM53 224v72h482v-72h-482z" />
    <glyph glyph-name="greater" unicode="&#x3e;" horiz-adv-x="687" 
d="M90 120v77l387 164v2l-387 164v77l507 -216v-52z" />
    <glyph glyph-name="question" unicode="?" horiz-adv-x="467" 
d="M135 191l-21 179.999c67.333 0 121 11.833 161 35.5s60 58.834 60 105.501c0 39.333 -13.333 71.666 -40 96.999s-59.667 38 -99 38c-48.667 0 -93 -14.667 -133 -44l-10 92c41.333 26.667 90 40 146 40c66 0 121 -21 165 -63s66 -93.333 66 -154
c0 -58 -20.5 -107.167 -61.5 -147.5s-92.167 -64.166 -153.5 -71.499l4 -108h-84zM126 51.999c0 17.333 6.16699 32.166 18.5 44.499s27.166 18.5 44.499 18.5s32.166 -6.16699 44.499 -18.5s18.5 -27.166 18.5 -44.499s-6.16699 -32.166 -18.5 -44.499
s-27.166 -18.5 -44.499 -18.5s-32.166 6.16699 -44.499 18.5s-18.5 27.166 -18.5 44.499z" />
    <glyph glyph-name="at" unicode="@" horiz-adv-x="807" 
d="M34 246c0 105.333 35.166 193.831 105.499 265.498s158.5 107.5 264.5 107.5c105.333 0 193.166 -35.667 263.499 -107s105.5 -158 105.5 -260c0 -59.333 -13 -107.166 -39 -143.499s-63.667 -54.5 -113 -54.5c-54 0 -92 20.333 -114 61h-2
c-35.333 -41.333 -79.666 -62 -132.999 -62c-46 0 -83.667 15.833 -113 47.5s-44 72.834 -44 123.501c0 57.333 18.333 107.5 55 150.5s84 64.5 142 64.5c36.667 0 71 -11.667 103 -35l56 10l-17 -195c-0.666992 -6.66699 -1 -12.667 -1 -18c0 -31.333 6.5 -55.333 19.5 -72
s31.5 -25 55.5 -25c28.667 0 51.667 12 69 36s26 59.667 26 107c0 90 -29.5 166.5 -88.5 229.5s-135.5 94.5 -229.5 94.5s-171 -31.667 -231 -95s-90 -140 -90 -230c0 -90.667 29.833 -167.5 89.5 -230.5s136.167 -94.5 229.5 -94.5c82.667 0 153.334 25 212.001 75l27 -41
c-66 -54.667 -145.333 -82 -238 -82c-106.667 0 -195 35.667 -265 107s-105 160 -105 266zM381.999 110.998c44 0 79.667 18.667 107 56c-1.33301 13.333 -1 32 1 56l10 119c-26 26 -56.667 39 -92 39c-37.333 0 -67.833 -15.667 -91.5 -47s-35.5 -67.333 -35.5 -108
c0 -34 9 -61.667 27 -83s42.667 -32 74 -32z" />
    <glyph glyph-name="A" unicode="A" horiz-adv-x="698" 
d="M5 0l298 724h91l299 -724h-102l-81 202h-326l-82 -202h-97zM276 432l-59 -146.999h260l-59 150l-69 179h-2c-19.333 -52.667 -43 -113.334 -71 -182.001z" />
    <glyph glyph-name="B" unicode="B" horiz-adv-x="634" 
d="M81 0v724h194c87.333 0 151.666 -12.667 192.999 -38c56.667 -34 85 -83.333 85 -148c0 -39.333 -10.167 -71.833 -30.5 -97.5s-46.833 -44.167 -79.5 -55.5v-2c44 -10 78.167 -29.333 102.5 -58s36.5 -65.667 36.5 -111c0 -72 -27.667 -127.333 -83 -166
c-45.333 -32 -120.666 -48 -225.999 -48h-192zM176 408l143 -0.000976562c39.333 0 72.333 9.5 99 28.5s40 47.167 40 84.5c0 40.667 -17 71.334 -51 92.001c-28.667 16.667 -77 25 -145 25h-86v-230zM176 85.999h103.001c78 0 131.667 10.333 161 31
c31.333 22 47 53.667 47 95c0 40 -14.833 70.5 -44.5 91.5s-71.834 31.5 -126.501 31.5h-140v-249z" />
    <glyph glyph-name="C" unicode="C" horiz-adv-x="681" 
d="M41 360c0 105.333 35 194.165 105 266.498s160.667 108.5 272 108.5c75.333 0 143.333 -17 204 -51v-104c-60 44.667 -128.333 67 -205 67c-82 0 -149.333 -27.167 -202 -81.5s-79 -122.166 -79 -203.499s26.833 -149.166 80.5 -203.499s123.167 -81.5 208.5 -81.5
c78.667 0 148 24.333 208 73v-105c-58.667 -37.333 -129.667 -56 -213 -56c-109.333 0 -199.833 35.167 -271.5 105.5s-107.5 158.833 -107.5 265.5z" />
    <glyph glyph-name="D" unicode="D" horiz-adv-x="735" 
d="M81 0l0.000976562 724h199c105.333 0 190.666 -19.667 255.999 -59c51.333 -31.333 91.166 -73.333 119.499 -126s42.5 -110.667 42.5 -174c0 -60 -12.5 -115.5 -37.5 -166.5s-60.5 -92.833 -106.5 -125.5c-69.333 -48.667 -168.666 -73 -297.999 -73h-175zM176.001 86
h95.001c93.333 0 165 16 215 48c35.333 22.667 63.666 54 84.999 94s32 84.667 32 134c0 50 -10.667 94.5 -32 133.5s-49.333 69.833 -84 92.5c-50 33.333 -122.667 50 -218 50h-93v-552z" />
    <glyph glyph-name="E" unicode="E" horiz-adv-x="551" 
d="M81 0v724h418v-86h-323v-220h283v-83h-283v-249h332v-86h-427z" />
    <glyph glyph-name="F" unicode="F" horiz-adv-x="556" 
d="M81 0v724h428v-86h-333v-234h293v-83h-293v-321h-95z" />
    <glyph glyph-name="G" unicode="G" horiz-adv-x="735" 
d="M41 360c0 107.333 35.8359 196.668 107.503 268.001s163.167 107 274.5 107c83.333 0 157.333 -20 222 -60v-108c-64.667 53.333 -139.334 80 -224.001 80c-84 0 -152.5 -27.333 -205.5 -82s-79.5 -122.334 -79.5 -203.001c0 -80 26.167 -147.833 78.5 -203.5
s122.166 -83.5 209.499 -83.5c55.333 0 104.666 11.333 147.999 34v169h-162v83h257v-299c-70.667 -48.667 -154.334 -73 -251.001 -73c-107.333 0 -196.666 35 -267.999 105s-107 158.667 -107 266z" />
    <glyph glyph-name="H" unicode="H" horiz-adv-x="746" 
d="M81 0v724h95v-305h394v305h95v-724h-95v333h-394v-333h-95z" />
    <glyph glyph-name="I" unicode="I" horiz-adv-x="257" 
d="M81 0v724h95v-724h-95z" />
    <glyph glyph-name="J" unicode="J" horiz-adv-x="398" 
d="M29 10v90c36.667 -15.333 71 -23 103 -23c36 0 60 10.5 72 31.5s18 53.167 18 96.5v519h95v-514c0 -76 -12.667 -129.667 -38 -161c-32.667 -40 -81 -60 -145 -60c-32 0 -67 7 -105 21z" />
    <glyph glyph-name="K" unicode="K" horiz-adv-x="627" 
d="M81 0v724h95v-328l2 -1l316 329h118l-325 -336l353 -388h-124l-338 374l-2 -1v-373h-95z" />
    <glyph glyph-name="L" unicode="L" horiz-adv-x="547" 
d="M81 0v724h95v-638h342v-86h-437z" />
    <glyph glyph-name="M" unicode="M" horiz-adv-x="859" 
d="M428 197l-158 226l-97 143l-2 -1c1.33301 -57.333 2 -109.666 2 -156.999v-408h-92v724h92l257 -368l257 368h91v-724h-95v408c0 47.333 0.666992 99.666 2 156.999l-2 1l-97 -143z" />
    <glyph glyph-name="N" unicode="N" horiz-adv-x="772" 
d="M173 0h-92v724h90l303 -402l125 -169l2 1c-1.33301 84 -2 152.667 -2 206v364h92v-724h-90l-303 402l-125 169l-2 -1c1.33301 -84 2 -152.667 2 -206v-364z" />
    <glyph glyph-name="O" unicode="O" horiz-adv-x="816" 
d="M40 362c0 105.333 35.167 193.833 105.5 265.5s157.833 107.5 262.5 107.5s192.167 -35.833 262.5 -107.5s105.5 -160.167 105.5 -265.5s-35.167 -193.833 -105.5 -265.5s-157.833 -107.5 -262.5 -107.5s-192.167 35.833 -262.5 107.5s-105.5 160.167 -105.5 265.5z
M135 362c0 -80 25.833 -147.5 77.5 -202.5s116.834 -82.5 195.501 -82.5s143.834 27.5 195.501 82.5s77.5 122.5 77.5 202.5s-25.833 147.5 -77.5 202.5s-116.834 82.5 -195.501 82.5s-143.834 -27.5 -195.501 -82.5s-77.5 -122.5 -77.5 -202.5z" />
    <glyph glyph-name="P" unicode="P" horiz-adv-x="622" 
d="M81 0l0.000976562 724.001h189c97.333 0 168.666 -12.667 213.999 -38c70 -38.667 105 -98.334 105 -179.001c0 -40 -8.83301 -75.5 -26.5 -106.5s-41.5 -55.5 -71.5 -73.5c-28.667 -17.333 -61.667 -28.5 -99 -33.5s-84.333 -7.5 -141 -7.5h-75v-286h-95z
M176.001 369.001l87 0.000976562c46.667 0 82.5 1.66699 107.5 5s46.833 10.666 65.5 21.999c38.667 23.333 58 59 58 107c0 52 -22.333 89.333 -67 112c-30.667 15.333 -85.667 23 -165 23h-86v-269z" />
    <glyph glyph-name="Q" unicode="Q" horiz-adv-x="816" 
d="M40 362c0 105.333 35.167 193.834 105.5 265.501s157.833 107.5 262.5 107.5s192.167 -35.833 262.5 -107.5s105.5 -160.167 105.5 -265.5c0 -84.667 -23.5 -159.334 -70.5 -224.001s-108.833 -108.667 -185.5 -132v-2c70 -47.333 147 -86 231 -116l-93 -56
c-87.333 34.667 -173.333 87 -258 157h1c-102.667 2 -188.5 38.667 -257.5 110s-103.5 159 -103.5 263zM135 362.001c0 -80 25.833 -147.5 77.5 -202.5s116.834 -82.5 195.501 -82.5s143.834 27.5 195.501 82.5s77.5 122.5 77.5 202.5s-25.833 147.5 -77.5 202.5
s-116.834 82.5 -195.501 82.5s-143.834 -27.5 -195.501 -82.5s-77.5 -122.5 -77.5 -202.5z" />
    <glyph glyph-name="R" unicode="R" horiz-adv-x="646" 
d="M81 0v724h196c92 0 159.333 -12 202 -36c66.667 -36.667 100 -93 100 -169s-31 -132.667 -93 -170c-24 -14.667 -51.667 -24.667 -83 -30l232 -319h-115l-221 310h-123v-310h-95zM176 388h123.001c65.333 0 112.666 11 141.999 33c28.667 21.333 43 51.333 43 90
c0 46.667 -19.667 81 -59 103c-30 16 -81.667 24 -155 24h-94v-250z" />
    <glyph glyph-name="S" unicode="S" horiz-adv-x="561" 
d="M64 44l-0.00195312 103.995c32 -24 67.333 -42 106 -54s75.334 -18 110.001 -18c44.667 0 80.334 10.167 107.001 30.5s40 49.5 40 87.5c0 20.667 -3.66699 38.167 -11 52.5s-20.166 26.5 -38.499 36.5s-33.833 17.333 -46.5 22s-33.667 11 -63 19
c-2.66699 0.666992 -5 1.33398 -7 2.00098s-4.33301 1.33398 -7 2.00098s-5 1.33398 -7 2.00098c-30 8.66699 -55.167 17.334 -75.5 26.001s-41 20.667 -62 36s-36.833 34.833 -47.5 58.5s-16 51.167 -16 82.5c0 63.333 21.167 112.833 63.5 148.5s99.166 53.5 170.499 53.5
c82 0 151.333 -18 208 -54v-100c-64 44.667 -134 67 -210 67c-42 0 -75.5 -9.16699 -100.5 -27.5s-37.5 -45.5 -37.5 -81.5c0 -8.66699 1 -17 3 -25s4.16699 -15 6.5 -21s6.16602 -11.833 11.499 -17.5l13.5 -14c3.66699 -3.66699 9.83398 -7.66699 18.501 -12l20 -10
c4.66699 -2.33301 12.5 -5.16602 23.5 -8.49902l23.5 -7l26 -7.5l26 -7.5c24.667 -6.66699 45.667 -13.334 63 -20.001s35.833 -15.667 55.5 -27s35.5 -24 47.5 -38s22.167 -31.667 30.5 -53s12.5 -45.333 12.5 -72c0 -65.333 -22 -116.666 -66 -153.999
s-102.667 -56 -176 -56c-80 0 -151.667 18.333 -215 55z" />
    <glyph glyph-name="T" unicode="T" horiz-adv-x="621" 
d="M263 0v638h-243v86h581v-86h-243v-638h-95z" />
    <glyph glyph-name="U" unicode="U" horiz-adv-x="730" 
d="M121 102c-32 49.333 -48.0039 128.999 -48.0039 238.999v383h95v-373c0 -89.333 9.33301 -151.666 28 -186.999c30.667 -58 88 -87 172 -87c82.667 0 139.334 29 170.001 87c18 33.333 27 94.333 27 183v377h92v-372c0 -60 -3.16699 -109.333 -9.5 -148
s-19.166 -72.667 -38.499 -102c-23.333 -35.333 -56.166 -63 -98.499 -83s-91.166 -30 -146.499 -30s-103.833 10 -145.5 30s-74.167 47.667 -97.5 83z" />
    <glyph glyph-name="V" unicode="V" horiz-adv-x="664" 
d="M284 0l-279 724h102l154 -406l71 -192h2l73 195l155 403h97l-278 -724h-97z" />
    <glyph glyph-name="W" unicode="W" horiz-adv-x="1013" 
d="M237 0l-225 724.001h101l121 -392l57 -189h2c12 41.333 31.333 104.666 58 189.999l123 391h70l123 -392l58 -189h2l57 190l121 391h96l-225 -724h-101l-116 368l-51 168h-2l-51 -169l-115 -367h-103z" />
    <glyph glyph-name="X" unicode="X" horiz-adv-x="659" 
d="M-2 0l271 384l-238 340h113l111 -160l78 -115h2l78 116l110 159h106l-237 -340l271 -384h-114l-139 198l-82 120h-2l-80 -117l-141 -201h-107z" />
    <glyph glyph-name="Y" unicode="Y" horiz-adv-x="655" 
d="M281 0v327l-279 397h110l123 -177l94 -138h2l94 139l122 176h106l-277 -396v-328h-95z" />
    <glyph glyph-name="Z" unicode="Z" horiz-adv-x="639" 
d="M598 0h-568l-1 2l410 634l-1 2h-383v86h550l1 -2l-410 -634l1 -2h401v-86z" />
    <glyph glyph-name="bracketleft" unicode="[" horiz-adv-x="360" 
d="M179 -141h134v-72h-217v956h217v-72h-134v-812z" />
    <glyph glyph-name="backslash" unicode="\" horiz-adv-x="446" 
d="M354 -38l-336 800h74l336 -800h-74z" />
    <glyph glyph-name="bracketright" unicode="]" horiz-adv-x="360" 
d="M47 -141h134v812h-134v72h217v-956h-217v72z" />
    <glyph glyph-name="asciicircum" unicode="^" horiz-adv-x="575" 
d="M71 362l184 373h65l184 -373h-75l-141 275h-1l-141 -275h-75z" />
    <glyph glyph-name="underscore" unicode="_" horiz-adv-x="475" 
d="M0 -90h475v-52h-475v52z" />
    <glyph glyph-name="grave" unicode="`" 
d="M241 563l-110 164h101l77 -164h-68z" />
    <glyph glyph-name="a" unicode="a" horiz-adv-x="532" 
d="M215 -11c-47.333 0 -86.332 11.668 -116.999 35.001c-34.667 26 -52 62.333 -52 109c0 52 21.667 92 65 120c34 22 80 33 138 33c35.333 0 70.333 -4.33301 105 -13v41c0 36 -9.33301 63 -28 81c-20 18 -50.333 27 -91 27c-56 0 -106.333 -16.333 -151 -49v88
c46 28 100.667 42 164 42c65.333 0 114.333 -15 147 -45c32.667 -29.333 49 -72.333 49 -129v-209c0 -34.667 12.667 -52 38 -52c10 0 19.667 2.33301 29 7v-75c-14.667 -6 -30.667 -9 -48 -9c-44.667 0 -76.334 17.333 -95.001 52h-2
c-16 -14.667 -37.5 -27.334 -64.5 -38.001s-55.833 -16 -86.5 -16zM231.001 69.001c46 0 87 14.332 123 42.999v92c-29.333 8.66699 -61.333 13 -96 13s-63.5 -6 -86.5 -18s-34.5 -31.333 -34.5 -58c0 -23.333 8.66699 -41.166 26 -53.499s40 -18.5 68 -18.5z" />
    <glyph glyph-name="b" unicode="b" horiz-adv-x="595" 
d="M79 0v764h90v-300l2 -1c41.333 26.667 87.666 40 138.999 40c68 0 125 -23.333 171 -70s69 -106.667 69 -180c0 -76 -24.667 -139 -74 -189s-111.666 -75 -186.999 -75c-39.333 0 -80.333 8.66699 -123 26zM169 100c36 -21.333 76.999 -32 122.999 -32
c49.333 0 89.5 17 120.5 51s46.5 77 46.5 129c0 50 -14.667 91.5 -44 124.5s-68 49.5 -116 49.5c-49.333 0 -92.666 -15.333 -129.999 -46v-276z" />
    <glyph glyph-name="c" unicode="c" horiz-adv-x="510" 
d="M459 119l0.000976562 -96c-41.333 -22.667 -90.333 -34 -147 -34c-78 0 -142 24 -192 72s-75 108.667 -75 182c0 75.333 26.167 137.5 78.5 186.5s117.166 73.5 194.499 73.5c48.667 0 93 -10.333 133 -31v-93c-44 28 -89.667 42 -137 42c-52.667 0 -95.5 -17 -128.5 -51
s-49.5 -76.333 -49.5 -127s16.833 -92 50.5 -124s77.167 -48 130.5 -48c54 0 101.333 16 142 48z" />
    <glyph glyph-name="d" unicode="d" horiz-adv-x="597" 
d="M47 238c0 76 24.333 139.167 73 189.5s111.334 75.5 188.001 75.5c39.333 0 78.666 -8.66699 117.999 -26l2 1v286h90v-764h-90v30l-2 1c-40 -28 -86 -42 -138 -42c-68 0 -125.167 23 -171.5 69s-69.5 106 -69.5 180zM138 243c0 -50 14.667 -91.5 44 -124.5
s68.666 -49.5 117.999 -49.5c44.667 0 87.334 14 128.001 42v281c-40 20.667 -80.333 31 -121 31c-50.667 0 -91.5 -17 -122.5 -51s-46.5 -77 -46.5 -129z" />
    <glyph glyph-name="e" unicode="e" horiz-adv-x="563" 
d="M511 220l-376.001 -0.000976562c6.66699 -47.333 26.334 -84.166 59.001 -110.499s73.667 -39.5 123 -39.5c59.333 0 116 20.333 170 61v-96c-48 -30.667 -106.667 -46 -176 -46c-77.333 0 -141 23.667 -191 71s-75 109.333 -75 186c0 75.333 23.833 137 71.5 185
s105.5 72 173.5 72c63.333 0 116.5 -21.167 159.5 -63.5s64.5 -100.5 64.5 -174.5c0 -18 -1 -33 -3 -45zM287.999 421.999c-35.333 0 -67.501 -11.167 -96.501 -33.5s-47.167 -54.833 -54.5 -97.5h290c-3.33301 44.667 -18.666 77.667 -45.999 99s-58.333 32 -93 32z" />
    <glyph glyph-name="f" unicode="f" horiz-adv-x="344" 
d="M104 0l-0.000976562 411h-78v81h78v94c0 70 14.667 119.333 44 148c28 27.333 66.333 41 115 41c26.667 0 51.334 -3.33301 74.001 -10v-81c-22.667 6 -46 9 -70 9c-28.667 0 -48 -8.16699 -58 -24.5s-15 -39.5 -15 -69.5v-107h126v-81h-126v-411h-90z" />
    <glyph glyph-name="g" unicode="g" horiz-adv-x="595" 
d="M112 -194v96.001c51.333 -34 103.333 -51 156 -51c47.333 0 85.333 13.333 114 40s43 63 43 109v36l-2 1c-37.333 -25.333 -82 -38 -134 -38c-68 0 -125.167 23.167 -171.5 69.5s-69.5 105.166 -69.5 176.499c0 72 23.167 133 69.5 183s108.166 75 185.499 75
c44.667 0 86.334 -9.33301 125.001 -28l87 15v-488c0 -72 -22.167 -128.833 -66.5 -170.5s-104.5 -62.5 -180.5 -62.5c-56 0 -108 12.333 -156 37zM139 251.001c0 -50 15.168 -91.333 45.501 -124s69.5 -49 117.5 -49c48.667 0 89.667 13.333 123 40v271
c-36.667 22.667 -78 34 -124 34c-48.667 0 -87.834 -16.333 -117.501 -49s-44.5 -73.667 -44.5 -123z" />
    <glyph glyph-name="h" unicode="h" horiz-adv-x="592" 
d="M79 0v763.999h90v-334l2 -1c49.333 49.333 106.666 74 171.999 74c55.333 0 99 -18 131 -54c27.333 -31.333 41 -79.666 41 -144.999v-304h-90v287c0 48.667 -8 82 -24 100c-18.667 21.333 -43.667 32 -75 32c-28.667 0 -57.167 -7.66699 -85.5 -23
s-52.166 -35 -71.499 -59v-337h-90z" />
    <glyph glyph-name="i" unicode="i" horiz-adv-x="248" 
d="M61 661c0 17.333 6.16699 32.166 18.5 44.499s27.166 18.5 44.499 18.5s32.166 -6.16699 44.499 -18.5s18.5 -27.166 18.5 -44.499s-6.16699 -32.166 -18.5 -44.499s-27.166 -18.5 -44.499 -18.5s-32.166 6.16699 -44.499 18.5s-18.5 27.166 -18.5 44.499zM79 0v492h90
v-492h-90z" />
    <glyph glyph-name="j" unicode="j" horiz-adv-x="249" 
d="M62 661c0 17.333 6.16699 32.166 18.5 44.499s27.166 18.5 44.499 18.5s32.166 -6.16699 44.499 -18.5s18.5 -27.166 18.5 -44.499s-6.16699 -32.166 -18.5 -44.499s-27.166 -18.5 -44.499 -18.5s-32.166 6.16699 -44.499 18.5s-18.5 27.166 -18.5 44.499zM80 -55v547h90
v-543c0 -62.667 -11.333 -107 -34 -133c-26.667 -31.333 -67 -47 -121 -47c-21.333 0 -41 2.66699 -59 8v81c22 -4.66699 40.667 -7 56 -7c26.667 0 44.667 7.83301 54 23.5s14 39.167 14 70.5z" />
    <glyph glyph-name="k" unicode="k" horiz-adv-x="528" 
d="M79 0v764h90v-488l2 -1l220 217h115l-225 -220l249 -272h-118l-241 267l-2 -1v-266h-90z" />
    <glyph glyph-name="l" unicode="l" horiz-adv-x="248" 
d="M79 0v764h90v-764h-90z" />
    <glyph glyph-name="m" unicode="m" horiz-adv-x="923" 
d="M756 0l-0.00195312 291c0 46 -8.33301 78.667 -25 98c-17.333 20 -42.333 30 -75 30c-27.333 0 -54.666 -7.5 -81.999 -22.5s-50 -33.167 -68 -54.5c0.666992 -7.33301 1 -19 1 -35v-307h-90v291c0 46.667 -7.66699 79 -23 97c-18 20.667 -43 31 -75 31
c-27.333 0 -54.666 -7.33301 -81.999 -22s-50 -33 -68 -55v-342h-90v492h90v-60l2 -1c48 48 103.667 72 167 72c32 0 61.5 -7.16699 88.5 -21.5s47.833 -35.5 62.5 -63.5c60 56.667 122.333 85 187 85c55.333 0 98.333 -17.333 129 -52c27.333 -30 41 -78 41 -144v-307h-90z
" />
    <glyph glyph-name="n" unicode="n" horiz-adv-x="592" 
d="M79 0l0.000976562 491.999h90v-62l2 -1c49.333 49.333 106.666 74 171.999 74c55.333 0 99 -18 131 -54c27.333 -31.333 41 -79.666 41 -144.999v-304h-90v287c0 48.667 -7.66699 82 -23 100c-18 21.333 -44.333 32 -79 32c-28 0 -56.167 -7.66699 -84.5 -23
s-51.5 -35 -69.5 -59v-337h-90z" />
    <glyph glyph-name="o" unicode="o" horiz-adv-x="610" 
d="M45 246c0 72.667 24.833 133.667 74.5 183s111.5 74 185.5 74s135.833 -24.667 185.5 -74s74.5 -110.333 74.5 -183s-24.833 -133.667 -74.5 -183s-111.5 -74 -185.5 -74s-135.833 24.667 -185.5 74s-74.5 110.333 -74.5 183zM135 246c0 -50 16.167 -91.667 48.5 -125
s72.833 -50 121.5 -50s89.167 16.667 121.5 50s48.5 75 48.5 125s-16.167 91.667 -48.5 125s-72.833 50 -121.5 50s-89.167 -16.667 -121.5 -50s-48.5 -75 -48.5 -125z" />
    <glyph glyph-name="p" unicode="p" horiz-adv-x="595" 
d="M169 15l-0.000976562 -234.999h-90v712h90v-32l2 -1c41.333 29.333 88 44 140 44c67.333 0 123.833 -23.833 169.5 -71.5s68.5 -108.834 68.5 -183.501c0 -77.333 -24.667 -139.833 -74 -187.5s-110.333 -71.5 -183 -71.5c-43.333 0 -83.666 9 -120.999 27z
M168.999 102.001c41.333 -22.667 83 -34 125 -34c48.667 0 88.167 16.167 118.5 48.5s45.5 73.833 45.5 124.5c0 51.333 -15 94.333 -45 129s-69 52 -117 52c-48.667 0 -91 -15 -127 -45v-275z" />
    <glyph glyph-name="q" unicode="q" horiz-adv-x="597" 
d="M47 242c0 77.333 24.668 140.167 74.001 188.5s111.333 72.5 186 72.5c42.667 0 83.667 -9.33301 123 -28l88 15v-710h-90v247l-2 1c-42 -26 -87.333 -39 -136 -39c-68.667 0 -126.334 23.5 -173.001 70.5s-70 107.833 -70 182.5zM138.001 247.001
c0 -50 15 -92.333 45 -127s69.333 -52 118 -52s91 14 127 42v279c-40 22.667 -81.333 34 -124 34c-49.333 0 -89.333 -16.5 -120 -49.5s-46 -75.167 -46 -126.5z" />
    <glyph glyph-name="r" unicode="r" horiz-adv-x="367" 
d="M79 0v492h90v-72l2 -1c36.667 51.333 85.334 77 146.001 77c11.333 0 22 -1.33301 32 -4v-89c-10.667 2.66699 -22.334 4 -35.001 4c-62.667 0 -111 -29 -145 -87v-320h-90z" />
    <glyph glyph-name="s" unicode="s" horiz-adv-x="499" 
d="M66 28l0.00390625 94.001c55.333 -34.667 117.666 -52 186.999 -52c74.667 0 112 22.667 112 68c0 8 -1.16699 15.167 -3.5 21.5s-6.5 11.833 -12.5 16.5s-11.833 8.5 -17.5 11.5s-13.834 5.66699 -24.501 8s-19.334 4.16602 -26.001 5.49902s-17 3 -31 5
s-24.667 3.66699 -32 5c-54.667 9.33301 -96.334 24 -125.001 44s-43 52.333 -43 97c0.666992 49.333 19.5 86.833 56.5 112.5s85.5 38.5 145.5 38.5c68 0 126.667 -13 176 -39v-90c-54.667 32 -114.667 48 -180 48c-71.333 0 -107 -21 -107 -63c0 -8 1.16699 -15 3.5 -21
s6.33301 -11 12 -15s11.334 -7.5 17.001 -10.5s13.5 -5.5 23.5 -7.5s18.667 -3.66699 26 -5s17.5 -3 30.5 -5s23.167 -3.66699 30.5 -5c26.667 -4.66699 49.167 -9.83398 67.5 -15.501s36 -13.667 53 -24s29.833 -24.166 38.5 -41.499s13 -38.333 13 -63
c0 -53.333 -19.833 -92.833 -59.5 -118.5s-88.834 -38.5 -147.501 -38.5c-71.333 0 -132.333 13 -183 39z" />
    <glyph glyph-name="t" unicode="t" horiz-adv-x="389" 
d="M154 35c-24.667 28 -37 73.334 -37 136.001v240h-91v81h91v134l90 15v-149h148v-81h-148v-223c0 -36.667 5 -65.334 15 -86.001s29.667 -31 59 -31c27.333 0 52 7 74 21v-85c-24 -12 -53.667 -18 -89 -18c-48 0 -85.333 15.333 -112 46z" />
    <glyph glyph-name="u" unicode="u" horiz-adv-x="592" 
d="M117 44c-26.667 31.333 -39.999 80.333 -39.999 147v301h90v-284c0 -49.333 8 -83.333 24 -102c18 -22.667 44 -34 78 -34c28.667 0 56.667 8 84 24s50.666 36 69.999 60v336h90v-492h-90v62l-2 1c-49.333 -49.333 -106 -74 -170 -74c-57.333 0 -102 18.333 -134 55z" />
    <glyph glyph-name="v" unicode="v" horiz-adv-x="547" 
d="M229 0l-207 492h98l91 -222l63 -158h2l66 164l89 216h94l-206 -492h-90z" />
    <glyph glyph-name="w" unicode="w" horiz-adv-x="825" 
d="M197 0l-171 492h98l73 -219l49 -152h2l54 152l81 219h64l81 -219c18 -47.333 36 -98 54 -152h2c14 46.667 30 97 48 151l73 220h94l-171 -492h-89l-77 211c-14.667 39.333 -30.667 85.333 -48 138h-2c-17.333 -52.667 -33.333 -98.667 -48 -138l-77 -211h-90z" />
    <glyph glyph-name="x" unicode="x" 
d="M400 0l-73 99l-76 105h-2l-78 -107l-72 -97h-102l197 261l-174 231h106l53 -72l73 -101h2l73 102l52 71h102l-172 -229l197 -263h-106z" />
    <glyph glyph-name="y" unicode="y" horiz-adv-x="550" 
d="M192 -220h-98l133 273l-205 439h100l86 -186l67 -148h2l67 148l86 186h95z" />
    <glyph glyph-name="z" unicode="z" horiz-adv-x="471" 
d="M441 0h-421l-1 2l269 406l-1 2h-248v82h407l1 -2l-269 -406l1 -2h262v-82z" />
    <glyph glyph-name="braceleft" unicode="{" horiz-adv-x="382" 
d="M137 -66v211c0 31.333 -4.83301 53.166 -14.5 65.499s-31.167 18.5 -64.5 18.5h-25v72h25c33.333 0 54.833 6.16699 64.5 18.5s14.5 34.166 14.5 65.499v211c0 105.333 49 158 147 158c24.667 0 44.667 -1.66699 60 -5v-71c-11.333 2.66699 -27.333 4 -48 4
c-28.667 0 -48.5 -7.16699 -59.5 -21.5s-16.5 -39.166 -16.5 -74.499v-196c0 -35.333 -4.5 -63 -13.5 -83s-25.167 -33.667 -48.5 -41v-2c23.333 -7.33301 39.5 -21 48.5 -41s13.5 -47.667 13.5 -83v-196c0 -35.333 5.5 -60.166 16.5 -74.499s30.833 -21.5 59.5 -21.5
c20.667 0 36.667 1.33301 48 4v-71c-15.333 -3.33301 -35.333 -5 -60 -5c-98 0 -147 52.667 -147 158z" />
    <glyph glyph-name="bar" unicode="|" horiz-adv-x="320" 
d="M123 -220v1020h74v-1020h-74z" />
    <glyph glyph-name="braceright" unicode="}" horiz-adv-x="382" 
d="M162 -56v196c0 35.333 4.5 63 13.5 83s25.167 33.667 48.5 41v2c-23.333 7.33301 -39.5 21 -48.5 41s-13.5 47.667 -13.5 83v196c0 35.333 -5.5 60.166 -16.5 74.499s-30.833 21.5 -59.5 21.5c-20.667 0 -36.667 -1.33301 -48 -4v71c15.333 3.33301 35.333 5 60 5
c98 0 147 -52.667 147 -158v-211c0 -31.333 4.83301 -53.166 14.5 -65.499s31.167 -18.5 64.5 -18.5h25v-72h-25c-33.333 0 -54.833 -6.16699 -64.5 -18.5s-14.5 -34.166 -14.5 -65.499v-211c0 -105.333 -49 -158 -147 -158c-24.667 0 -44.667 1.66699 -60 5v71
c11.333 -2.66699 27.333 -4 48 -4c28.667 0 48.5 7.16699 59.5 21.5s16.5 39.166 16.5 74.499z" />
    <glyph glyph-name="asciitilde" unicode="~" horiz-adv-x="554" 
d="M384 289c-31.333 0 -70.333 12 -117 36c-42.667 22 -75 33 -97 33c-37.333 0 -68.333 -21.333 -93 -64l-2 1v101c23.333 26 55 39 95 39c31.333 0 70.333 -12 117 -36c42.667 -22 75 -33 97 -33c36 0 67 21.333 93 64l2 -1v-101c-24 -26 -55.667 -39 -95 -39z" />
    <glyph glyph-name="uni00A0" unicode="&#xa0;" horiz-adv-x="242" 
 />
    <glyph glyph-name="exclamdown" unicode="&#xa1;" horiz-adv-x="306" 
d="M182 270l24 -502h-104l24 502h56zM217 440c0 -17.333 -6.16699 -32.166 -18.5 -44.499s-27.166 -18.5 -44.499 -18.5s-32.166 6.16699 -44.499 18.5s-18.5 27.166 -18.5 44.499s6.16699 32.166 18.5 44.499s27.166 18.5 44.499 18.5s32.166 -6.16699 44.499 -18.5
s18.5 -27.166 18.5 -44.499z" />
    <glyph glyph-name="cent" unicode="&#xa2;" horiz-adv-x="518" 
d="M244 -18l0.00195312 128.999c-61.333 13.333 -110.5 42.333 -147.5 87s-55.5 98 -55.5 160c0 63.333 18.667 117.833 56 163.5s86.333 75.5 147 89.5v131h73v-123c48.667 0 93 -10.667 133 -32v-94c-44.667 29.333 -90.334 44 -137.001 44c-54 0 -97.667 -17 -131 -51
s-50 -76 -50 -126c0 -51.333 16.833 -93 50.5 -125s77.5 -48 131.5 -48c55.333 0 103.666 17.333 144.999 52v-97c-40 -23.333 -87.333 -35.666 -142 -36.999v-123h-73z" />
    <glyph glyph-name="sterling" unicode="&#xa3;" horiz-adv-x="574" 
d="M80 309l-0.000976562 76.001h53c-23.333 60.667 -35 108.667 -35 144c0 63.333 22.167 113.5 66.5 150.5s100.833 55.5 169.5 55.5c64.667 0 119.334 -13.667 164.001 -41v-101c-49.333 36 -103.333 54 -162 54c-42 0 -76.333 -11.167 -103 -33.5s-40 -51.833 -40 -88.5
c0 -26 12.667 -72.667 38 -140h186v-76h-163c4.66699 -23.333 7 -43.333 7 -60c0 -61.333 -21.333 -115 -64 -161v-2h329v-86h-446v71c25.333 20 46.833 45.5 64.5 76.5s26.5 63.5 26.5 97.5c0 19.333 -3.33301 40.666 -10 63.999h-81z" />
    <glyph glyph-name="currency" unicode="&#xa4;" horiz-adv-x="606" 
d="M162 350c0 -40 13.333 -73.667 40 -101s60.334 -41 101.001 -41s74.334 13.667 101.001 41s40 61 40 101s-13.333 73.667 -40 101s-60.334 41 -101.001 41s-74.334 -13.667 -101.001 -41s-40 -61 -40 -101zM90 350c0 44.667 11.333 84 34 118l-76 76l59 59l75 -75
c34.667 23.333 75 35 121 35c45.333 0 85.666 -11.667 120.999 -35l75 75l59 -59l-76 -76c22.667 -34 34 -73.333 34 -118s-11.333 -84 -34 -118l76 -76l-59 -59l-75 75c-35.333 -23.333 -75.666 -35 -120.999 -35c-46 0 -86.333 11.667 -121 35l-75 -75l-59 59l76 76
c-22.667 34 -34 73.333 -34 118z" />
    <glyph glyph-name="yen" unicode="&#xa5;" horiz-adv-x="669" 
d="M91 405v73h114l-172 246h109l99 -142l94 -138h2l94 139l98 141h106l-173 -246h116v-73h-167l-29 -42v-71h196v-73h-196v-219h-95v219h-196v73h196v70l-30 43h-166z" />
    <glyph glyph-name="brokenbar" unicode="&#xa6;" horiz-adv-x="320" 
d="M123 408v392h74v-392h-74zM123 172h74v-392h-74v392z" />
    <glyph glyph-name="section" unicode="&#xa7;" horiz-adv-x="565" 
d="M119 -25c51.333 -33.333 101.999 -49.9971 151.999 -49.9971c32.667 0 59.334 7.33301 80.001 22s31 35.667 31 63c0 7.33301 -0.666992 14.166 -2 20.499s-4 12.333 -8 18l-11 15c-3.33301 4.33301 -8.83301 8.83301 -16.5 13.5s-13.667 8.5 -18 11.5
s-11.833 6.66699 -22.5 11l-23.5 9.5c-5 2 -14.167 5.33301 -27.5 10s-22.333 8 -27 10c-24 9.33301 -44.5 18.333 -61.5 27s-34.667 20 -53 34s-32.333 30.667 -42 50s-14.5 41 -14.5 65c0 65.333 35 112 105 140v2c-38.667 29.333 -58 68.666 -58 117.999
c0 50 18.667 90.167 56 120.5s84.666 45.5 141.999 45.5c52 0 99 -12 141 -36v-90c-46 30.667 -92.667 46 -140 46c-32 0 -58.167 -7.33301 -78.5 -22s-30.5 -35 -30.5 -61c0 -9.33301 1.33301 -18 4 -26s7.33398 -15.5 14.001 -22.5s12.5 -12.667 17.5 -17
s13.667 -9.33301 26 -15l27 -12.5c5.66699 -2.66699 16.5 -6.83398 32.5 -12.501l32 -11.5c25.333 -9.33301 46.5 -18.333 63.5 -27s34.667 -20 53 -34s32.333 -31 42 -51s14.5 -42.667 14.5 -68c0 -68 -34.667 -113.667 -104 -137v-2c38.667 -32 58 -72.333 58 -121
c0 -50.667 -18.5 -91 -55.5 -121s-85.167 -45 -144.5 -45c-58 0 -109 12.667 -153 38v92zM276.999 387.003c-8 2.66699 -20.001 7.33398 -36.001 14.001c-64 -13.333 -96 -43.333 -96 -90c0 -7.33301 0.666992 -14.333 2 -21s4 -12.834 8 -18.501l11 -15.5
c3.33301 -4.66699 8.66602 -9.16699 15.999 -13.5s13.333 -8 18 -11s12 -6.5 22 -10.5l22 -9c4.66699 -2 12.834 -5 24.501 -9s19.834 -7 24.501 -9c16 -6 31 -12 45 -18c60 12 90 42 90 90c0 20.667 -6.83301 38.5 -20.5 53.5s-28.5 26.167 -44.5 33.5s-40 17 -72 29
c-6 2 -10.667 3.66699 -14 5z" />
    <glyph glyph-name="dieresis" unicode="&#xa8;" 
d="M294 645c0 15.333 5.33301 28.333 16 39s23.667 16 39 16s28.333 -5.33301 39 -16s16 -23.667 16 -39s-5.33301 -28.333 -16 -39s-23.667 -16 -39 -16s-28.333 5.33301 -39 16s-16 23.667 -16 39zM98 645c0 15.333 5.33301 28.333 16 39s23.667 16 39 16
s28.333 -5.33301 39 -16s16 -23.667 16 -39s-5.33301 -28.333 -16 -39s-23.667 -16 -39 -16s-28.333 5.33301 -39 16s-16 23.667 -16 39z" />
    <glyph glyph-name="copyright" unicode="&#xa9;" horiz-adv-x="808" 
d="M34 362c0 105.333 35.333 193.833 106 265.5s158.667 107.5 264 107.5s193.333 -35.833 264 -107.5s106 -160.167 106 -265.5s-35.333 -193.833 -106 -265.5s-158.667 -107.5 -264 -107.5s-193.333 35.833 -264 107.5s-106 160.167 -106 265.5zM81 362
c0 -92.667 30.333 -170.334 91 -233.001s138 -94 232 -94s171.333 31.333 232 94s91 140.334 91 233.001s-30.333 170.334 -91 233.001s-138 94 -232 94s-171.333 -31.333 -232 -94s-91 -140.334 -91 -233.001zM212 365c0 58.667 20 107.667 60 147s90.667 59 152 59
c39.333 0 76 -9 110 -27v-66c-34 24 -71 36 -111 36c-43.333 0 -78.833 -14.167 -106.5 -42.5s-41.5 -63.5 -41.5 -105.5c0 -42.667 14 -77.667 42 -105s64.333 -41 109 -41c43.333 0 81.333 13.667 114 41v-68c-32 -20 -71 -30 -117 -30
c-61.333 0 -111.833 19.167 -151.5 57.5s-59.5 86.5 -59.5 144.5z" />
    <glyph glyph-name="ordfeminine" unicode="&#xaa;" horiz-adv-x="363" 
d="M160 401c-28.667 0 -53.667 7.66699 -75 23c-24 18 -36 42 -36 72c0 33.333 13.667 59 41 77c21.333 14 51.666 21 90.999 21c24 0 45.667 -2.33301 65 -7v23c0 44 -24.333 66 -73 66c-34 0 -66.667 -10.333 -98 -31v64c28.667 18 64 27 106 27
c42.667 0 75.667 -9.66699 99 -29c22 -18.667 33 -46.667 33 -84v-133c0 -21.333 7.66699 -32 23 -32c6.66699 0 12.667 1.66699 18 5v-54c-9.33301 -4.66699 -20.666 -7 -33.999 -7c-29.333 0 -50.333 10.333 -63 31h-1c-25.333 -21.333 -57.333 -32 -96 -32zM172 455
c28.667 0 53.3311 8.66699 73.998 26v56c-17.333 5.33301 -36.666 8 -57.999 8c-48.667 0 -73 -15.667 -73 -47c0 -14 5.33301 -24.667 16 -32s24.334 -11 41.001 -11z" />
    <glyph glyph-name="guillemotleft" unicode="&#xab;" horiz-adv-x="548" 
d="M212 27l-166 219l166 219h78l-166 -219l166 -219h-78zM416 27l-166 219l166 219h78l-166 -219l166 -219h-78z" />
    <glyph glyph-name="logicalnot" unicode="&#xac;" horiz-adv-x="588" 
d="M54 326v72h482v-282h-74v210h-408z" />
    <glyph glyph-name="uni00AD" unicode="&#xad;" horiz-adv-x="352" 
d="M57 237v80h238v-80h-238z" />
    <glyph glyph-name="registered" unicode="&#xae;" horiz-adv-x="448" 
d="M224 363c-54 0 -98.667 17.667 -134 53s-53 79.666 -53 132.999s17.667 97.666 53 132.999s80 53 134 53s98.667 -17.667 134 -53s53 -79.666 53 -132.999s-17.667 -97.666 -53 -132.999s-80 -53 -134 -53zM224 392c46 0 83.667 14.833 113 44.5s44 67.167 44 112.5
s-14.667 82.833 -44 112.5s-67 44.5 -113 44.5s-83.667 -14.833 -113 -44.5s-44 -67.167 -44 -112.5s14.667 -82.833 44 -112.5s67 -44.5 113 -44.5zM268 448l-43 73.001h-33v-73h-36v202h72c21.333 0 39.333 -5.83301 54 -17.5s22 -27.5 22 -47.5
c0 -28.667 -14.667 -48.334 -44 -59.001l49 -78h-41zM192 552.001h33c28 0 42 11 42 33c0 21.333 -14 32 -42 32h-33v-65z" />
    <glyph glyph-name="macron" unicode="&#xaf;" 
d="M114 611v68h274v-68h-274z" />
    <glyph glyph-name="degree" unicode="&#xb0;" horiz-adv-x="378" 
d="M189 441c-43.333 0 -79.166 14.167 -107.499 42.5s-42.5 63.166 -42.5 104.499s14.167 76.166 42.5 104.499s64.166 42.5 107.499 42.5s79.166 -14.167 107.499 -42.5s42.5 -63.166 42.5 -104.499s-14.167 -76.166 -42.5 -104.499s-64.166 -42.5 -107.499 -42.5zM189 488
c29.333 0 53.666 9.83301 72.999 29.5s29 43.167 29 70.5s-9.66699 50.833 -29 70.5s-43.666 29.5 -72.999 29.5s-53.666 -9.83301 -72.999 -29.5s-29 -43.167 -29 -70.5s9.66699 -50.833 29 -70.5s43.666 -29.5 72.999 -29.5z" />
    <glyph glyph-name="plusminus" unicode="&#xb1;" horiz-adv-x="588" 
d="M257 238v180h-191v72h191v180h74v-180h191v-72h-191v-180h-74zM66 78v72h456v-72h-456z" />
    <glyph glyph-name="two.superior" unicode="&#xb2;" horiz-adv-x="366" 
d="M20 422l-0.999023 1.99902l145 169c46.667 54.667 70 99.334 70 134.001c0 21.333 -7 37.833 -21 49.5s-33 17.5 -57 17.5c-34.667 0 -69.334 -12.333 -104.001 -37v76c34 20 70.667 30 110 30c44.667 0 80.5 -12.167 107.5 -36.5s40.5 -56.833 40.5 -97.5
c0 -48.667 -24.667 -101.667 -74 -159l-67 -78l1 -2h156v-68h-306z" />
    <glyph glyph-name="three.superior" unicode="&#xb3;" horiz-adv-x="355" 
d="M36 449l0.00195312 79.001c41.333 -30 82.666 -45 123.999 -45c24.667 0 44.834 5.83301 60.501 17.5s23.5 27.5 23.5 47.5c0 18.667 -7.66699 33.5 -23 44.5s-37.666 16.5 -66.999 16.5h-44v60h41c26 0 46.167 5.83301 60.5 17.5s21.5 26.834 21.5 45.501
c0 19.333 -7.33301 34.666 -22 45.999s-34.334 17 -59.001 17c-32.667 0 -63.334 -10 -92.001 -30v72c28 17.333 62 26 102 26c42 0 77 -11.333 105 -34s42 -51.667 42 -87c0 -21.333 -5.33301 -40.833 -16 -58.5s-26.334 -29.5 -47.001 -35.5v-2
c49.333 -15.333 74 -49.333 74 -102c0 -38.667 -15 -69.834 -45 -93.501s-68.333 -35.5 -115 -35.5c-48.667 0 -90 11.333 -124 34z" />
    <glyph glyph-name="acute" unicode="&#xb4;" 
d="M371 727l-110 -164h-68l77 164h101z" />
    <glyph glyph-name="mu" unicode="&#xb5;" horiz-adv-x="594" 
d="M173 -220h-93.999v712h90v-284c0 -49.333 8 -83.333 24 -102c18 -22.667 44 -34 78 -34c28.667 0 56.667 8 84 24s50.666 36 69.999 60v336h90v-492h-90v62l-2 1c-49.333 -49.333 -105 -74 -167 -74c-35.333 0 -65.333 7.66699 -90 23l-2 -1z" />
    <glyph glyph-name="paragraph" unicode="&#xb6;" horiz-adv-x="570" 
d="M239 -220v582c-50.667 0 -93.834 17.667 -129.501 53s-53.5 78 -53.5 128s17.833 92.667 53.5 128s78.834 53 129.501 53h231v-944h-74v876h-83v-876h-74z" />
    <glyph glyph-name="periodcentered" unicode="&#xb7;" horiz-adv-x="294" 
d="M81 302c0 18 6.5 33.5 19.5 46.5s28.5 19.5 46.5 19.5s33.5 -6.5 46.5 -19.5s19.5 -28.5 19.5 -46.5s-6.5 -33.5 -19.5 -46.5s-28.5 -19.5 -46.5 -19.5s-33.5 6.5 -46.5 19.5s-19.5 28.5 -19.5 46.5z" />
    <glyph glyph-name="cedilla" unicode="&#xb8;" 
d="M204 -86l36.001 118l45 -10l-20 -65c59.333 -13.333 89 -43.333 89 -90c0 -26.667 -9.5 -48 -28.5 -64s-44.5 -24 -76.5 -24c-29.333 0 -56 6 -80 18l15 51c25.333 -12.667 46.666 -19 63.999 -19c14 0 25.5 3 34.5 9s13.5 14.667 13.5 26c0 30 -30.667 46.667 -92 50z
" />
    <glyph glyph-name="one.superior" unicode="&#xb9;" horiz-adv-x="326" 
d="M148 422v345l-101 -36v69l175 63v-441h-74z" />
    <glyph glyph-name="ordmasculine" unicode="&#xba;" horiz-adv-x="409" 
d="M204 401c-50.667 0 -91.667 15.667 -123 47s-47 71.333 -47 120s15.667 88.667 47 120s72.333 47 123 47c50 0 90.833 -15.667 122.5 -47s47.5 -71.333 47.5 -120s-15.833 -88.667 -47.5 -120s-72.5 -47 -122.5 -47zM204 462c30 0 54.5 10 73.5 30s28.5 45.333 28.5 76
s-9.5 56 -28.5 76s-43.5 30 -73.5 30s-54.5 -10 -73.5 -30s-28.5 -45.333 -28.5 -76s9.5 -56 28.5 -76s43.5 -30 73.5 -30z" />
    <glyph glyph-name="guillemotright" unicode="&#xbb;" horiz-adv-x="548" 
d="M54 27l166 219l-166 219h78l166 -219l-166 -219h-78zM258 27l166 219l-166 219h78l166 -219l-166 -219h-78z" />
    <glyph glyph-name="onequarter" unicode="&#xbc;" horiz-adv-x="938" 
d="M255 -13h-82l477 737h82zM734 0v100h-228l-1 2l234 332h69v-274h75v-60h-75v-100h-74zM676 247l-60 -85l1 -2h117v72c0 30.667 0.666992 64 2 100l-2 1zM165 294v345l-101 -36v69l175 63v-441h-74z" />
    <glyph glyph-name="onehalf" unicode="&#xbd;" horiz-adv-x="978" 
d="M597 0l-0.999023 1.99902l145 169c46.667 54.667 70 99.334 70 134.001c0 21.333 -7 37.833 -21 49.5s-33 17.5 -57 17.5c-34.667 0 -69.334 -12.333 -104.001 -37v76c34 20 70.667 30 110 30c44.667 0 80.5 -12.167 107.5 -36.5s40.5 -56.833 40.5 -97.5
c0 -48.667 -24.667 -101.667 -74 -159l-67 -78l1 -2h156v-68h-306zM255.001 -13.001h-82l477 737h82zM165.001 293.999v345l-101 -36v69l175 63v-441h-74z" />
    <glyph glyph-name="threequarters" unicode="&#xbe;" horiz-adv-x="988" 
d="M68 321l0.00195312 79.001c41.333 -30 82.666 -45 123.999 -45c24.667 0 44.834 5.83301 60.501 17.5s23.5 27.5 23.5 47.5c0 18.667 -7.66699 33.5 -23 44.5s-37.666 16.5 -66.999 16.5h-44v60h41c26 0 46.167 5.83301 60.5 17.5s21.5 26.834 21.5 45.501
c0 19.333 -7.33301 34.666 -22 45.999s-34.334 17 -59.001 17c-32.667 0 -63.334 -10 -92.001 -30v72c28 17.333 62 26 102 26c42 0 77 -11.333 105 -34s42 -51.667 42 -87c0 -21.333 -5.33301 -40.833 -16 -58.5s-26.334 -29.5 -47.001 -35.5v-2
c49.333 -15.333 74 -49.333 74 -102c0 -38.667 -15 -69.834 -45 -93.501s-68.333 -35.5 -115 -35.5c-48.667 0 -90 11.333 -124 34zM305.002 -12.999h-82l477 737h82zM784.002 0.000976562v100h-228l-1 2l234 332h69v-274h75v-60h-75v-100h-74zM726.002 247.001l-60 -85
l1 -2h117v72c0 30.667 0.666992 64 2 100l-2 1z" />
    <glyph glyph-name="questiondown" unicode="&#xbf;" horiz-adv-x="467" 
d="M337 301l21 -179.999c-67.333 0 -121 -11.833 -161 -35.5s-60 -58.834 -60 -105.501c0 -39.333 13.333 -71.666 40 -96.999s59.667 -38 99 -38c48.667 0 93 14.667 133 44l10 -92c-41.333 -26.667 -90 -40 -146 -40c-66 0 -121 21 -165 63s-66 93.333 -66 154
c0 58 20.5 107.167 61.5 147.5s92.167 64.166 153.5 71.499l-4 108h84zM346 440.001c0 -17.333 -6.16699 -32.166 -18.5 -44.499s-27.166 -18.5 -44.499 -18.5s-32.166 6.16699 -44.499 18.5s-18.5 27.166 -18.5 44.499s6.16699 32.166 18.5 44.499s27.166 18.5 44.499 18.5
s32.166 -6.16699 44.499 -18.5s18.5 -27.166 18.5 -44.499z" />
    <glyph glyph-name="Agrave" unicode="&#xc0;" horiz-adv-x="698" 
d="M5 0l298 724h91l299 -724h-102l-81 202h-326l-82 -202h-97zM276 432l-59 -146.999h260l-59 150l-69 179h-2c-19.333 -52.667 -43 -113.334 -71 -182.001zM339 795.001l-110 164h101l77 -164h-68z" />
    <glyph glyph-name="Aacute" unicode="&#xc1;" horiz-adv-x="698" 
d="M5 0l298 724h91l299 -724h-102l-81 202h-326l-82 -202h-97zM276 432l-59 -146.999h260l-59 150l-69 179h-2c-19.333 -52.667 -43 -113.334 -71 -182.001zM469 959.001l-110 -164h-68l77 164h101z" />
    <glyph glyph-name="Acircumflex" unicode="&#xc2;" horiz-adv-x="698" 
d="M5 0l298 724h91l299 -724h-102l-81 202h-326l-82 -202h-97zM276 432l-59 -146.999h260l-59 150l-69 179h-2c-19.333 -52.667 -43 -113.334 -71 -182.001zM188 795.001l113 164h96l113 -164h-75l-86 105l-86 -105h-75z" />
    <glyph glyph-name="Atilde" unicode="&#xc3;" horiz-adv-x="698" 
d="M5 0l298 724h91l299 -724h-102l-81 202h-326l-82 -202h-97zM276 432l-59 -146.999h260l-59 150l-69 179h-2c-19.333 -52.667 -43 -113.334 -71 -182.001zM342 842.001c-30.667 15.333 -53 23 -67 23c-26 0 -53 -16 -81 -48l-2 1v78c20.667 28.667 48.334 43 83.001 43
c22 0 49 -8 81 -24c30.667 -15.333 53 -23 67 -23c26 0 53 16 81 48l2 -1v-78c-20.667 -28.667 -48.334 -43 -83.001 -43c-22 0 -49 8 -81 24z" />
    <glyph glyph-name="Adieresis" unicode="&#xc4;" horiz-adv-x="698" 
d="M5 0l298 724h91l299 -724h-102l-81 202h-326l-82 -202h-97zM276 432l-59 -146.999h260l-59 150l-69 179h-2c-19.333 -52.667 -43 -113.334 -71 -182.001zM392 877.001c0 15.333 5.33301 28.333 16 39s23.667 16 39 16s28.333 -5.33301 39 -16s16 -23.667 16 -39
s-5.33301 -28.333 -16 -39s-23.667 -16 -39 -16s-28.333 5.33301 -39 16s-16 23.667 -16 39zM196 877.001c0 15.333 5.33301 28.333 16 39s23.667 16 39 16s28.333 -5.33301 39 -16s16 -23.667 16 -39s-5.33301 -28.333 -16 -39s-23.667 -16 -39 -16s-28.333 5.33301 -39 16
s-16 23.667 -16 39z" />
    <glyph glyph-name="Aring" unicode="&#xc5;" horiz-adv-x="698" 
d="M5 0l298 724h91l299 -724h-102l-81 202h-326l-82 -202h-97zM276 432l-59 -146.999h260l-59 150l-69 179h-2c-19.333 -52.667 -43 -113.334 -71 -182.001zM349 783.001c-33.333 0 -61.166 10.833 -83.499 32.5s-33.5 48.834 -33.5 81.501s11.167 59.834 33.5 81.501
s50.166 32.5 83.499 32.5s61.166 -10.833 83.499 -32.5s33.5 -48.834 33.5 -81.501s-11.167 -59.834 -33.5 -81.501s-50.166 -32.5 -83.499 -32.5zM349 833.001c18.667 0 33.834 6.16699 45.501 18.5s17.5 27.5 17.5 45.5s-5.83301 33.167 -17.5 45.5
s-26.834 18.5 -45.501 18.5s-33.834 -6.16699 -45.501 -18.5s-17.5 -27.5 -17.5 -45.5s5.83301 -33.167 17.5 -45.5s26.834 -18.5 45.501 -18.5z" />
    <glyph glyph-name="AE" unicode="&#xc6;" horiz-adv-x="937" 
d="M5 0l420 724h460v-86h-311v-220h271v-83h-271v-249h320v-86h-415v202h-254l-117 -202h-103zM377 464l-104 -178.999h206v165c0 59.333 0.666992 123.666 2 192.999h-2z" />
    <glyph glyph-name="Ccedilla" unicode="&#xc7;" horiz-adv-x="681" 
d="M336 -86l24.001 78.999c-94.667 13.333 -171.5 53.833 -230.5 121.5s-88.5 149.5 -88.5 245.5c0 105.333 35 194.166 105 266.499s160.667 108.5 272 108.5c75.333 0 143.333 -17 204 -51v-104c-60 44.667 -128.333 67 -205 67c-82 0 -149.333 -27.167 -202 -81.5
s-79 -122.166 -79 -203.499s26.833 -149.166 80.5 -203.499s123.167 -81.5 208.5 -81.5c78.667 0 148 24.333 208 73v-105c-58.667 -37.333 -134 -56 -226 -56l-10 -32c59.333 -13.333 89 -43.333 89 -90c0 -26.667 -9.5 -48 -28.5 -64s-44.5 -24 -76.5 -24
c-29.333 0 -56 6 -80 18l15 51c25.333 -12.667 46.666 -19 63.999 -19c14 0 25.5 3 34.5 9s13.5 14.667 13.5 26c0 30 -30.667 46.667 -92 50z" />
    <glyph glyph-name="Egrave" unicode="&#xc8;" horiz-adv-x="551" 
d="M81 0v724h418v-86h-323v-220h283v-83h-283v-249h332v-86h-427zM279 795l-110 164h101l77 -164h-68z" />
    <glyph glyph-name="Eacute" unicode="&#xc9;" horiz-adv-x="551" 
d="M81 0v724h418v-86h-323v-220h283v-83h-283v-249h332v-86h-427zM409 959l-110 -164h-68l77 164h101z" />
    <glyph glyph-name="Ecircumflex" unicode="&#xca;" horiz-adv-x="551" 
d="M81 0v724h418v-86h-323v-220h283v-83h-283v-249h332v-86h-427zM128 795l113 164h96l113 -164h-75l-86 105l-86 -105h-75z" />
    <glyph glyph-name="Edieresis" unicode="&#xcb;" horiz-adv-x="551" 
d="M81 0v724h418v-86h-323v-220h283v-83h-283v-249h332v-86h-427zM332 877c0 15.333 5.33301 28.333 16 39s23.667 16 39 16s28.333 -5.33301 39 -16s16 -23.667 16 -39s-5.33301 -28.333 -16 -39s-23.667 -16 -39 -16s-28.333 5.33301 -39 16s-16 23.667 -16 39zM136 877
c0 15.333 5.33301 28.333 16 39s23.667 16 39 16s28.333 -5.33301 39 -16s16 -23.667 16 -39s-5.33301 -28.333 -16 -39s-23.667 -16 -39 -16s-28.333 5.33301 -39 16s-16 23.667 -16 39z" />
    <glyph glyph-name="Igrave" unicode="&#xcc;" horiz-adv-x="257" 
d="M81 0v724h95v-724h-95zM118 795l-110 164h101l77 -164h-68z" />
    <glyph glyph-name="Iacute" unicode="&#xcd;" horiz-adv-x="257" 
d="M81 0v724h95v-724h-95zM248 959l-110 -164h-68l77 164h101z" />
    <glyph glyph-name="Icircumflex" unicode="&#xce;" horiz-adv-x="257" 
d="M81 0v724h95v-724h-95zM-33 795l113 164h96l113 -164h-75l-86 105l-86 -105h-75z" />
    <glyph glyph-name="Idieresis" unicode="&#xcf;" horiz-adv-x="257" 
d="M81 0v724h95v-724h-95zM171 877c0 15.333 5.5 28.333 16.5 39s23.833 16 38.5 16s27.5 -5.33301 38.5 -16s16.5 -23.667 16.5 -39s-5.5 -28.333 -16.5 -39s-23.833 -16 -38.5 -16s-27.5 5.33301 -38.5 16s-16.5 23.667 -16.5 39zM-25 877c0 15.333 5.5 28.333 16.5 39
s23.833 16 38.5 16s27.5 -5.33301 38.5 -16s16.5 -23.667 16.5 -39s-5.5 -28.333 -16.5 -39s-23.833 -16 -38.5 -16s-27.5 5.33301 -38.5 16s-16.5 23.667 -16.5 39z" />
    <glyph glyph-name="Eth" unicode="&#xd0;" horiz-adv-x="746" 
d="M3 330l0.000976562 78h89v316h199c105.333 0 190.666 -19.667 255.999 -59c51.333 -31.333 91.166 -73.333 119.499 -126s42.5 -110.667 42.5 -174c0 -60 -12.5 -115.5 -37.5 -166.5s-60.5 -92.833 -106.5 -125.5c-69.333 -48.667 -168.666 -73 -297.999 -73h-175v330
h-89zM187.001 86h95.001c93.333 0 165 16 215 48c35.333 22.667 63.666 54 84.999 94s32 84.667 32 134c0 50 -10.667 94.5 -32 133.5s-49.333 69.833 -84 92.5c-50 33.333 -122.667 50 -218 50h-93v-230h156v-78h-156v-244z" />
    <glyph glyph-name="Ntilde" unicode="&#xd1;" horiz-adv-x="772" 
d="M173 0h-92v724h90l303 -402l125 -169l2 1c-1.33301 84 -2 152.667 -2 206v364h92v-724h-90l-303 402l-125 169l-2 -1c1.33301 -84 2 -152.667 2 -206v-364zM379 842c-30.667 15.333 -53 23 -67 23c-26 0 -53 -16 -81 -48l-2 1v78c20.667 28.667 48.334 43 83.001 43
c22 0 49 -8 81 -24c30.667 -15.333 53 -23 67 -23c26 0 53 16 81 48l2 -1v-78c-20.667 -28.667 -48.334 -43 -83.001 -43c-22 0 -49 8 -81 24z" />
    <glyph glyph-name="Ograve" unicode="&#xd2;" horiz-adv-x="816" 
d="M40 362c0 105.333 35.167 193.833 105.5 265.5s157.833 107.5 262.5 107.5s192.167 -35.833 262.5 -107.5s105.5 -160.167 105.5 -265.5s-35.167 -193.833 -105.5 -265.5s-157.833 -107.5 -262.5 -107.5s-192.167 35.833 -262.5 107.5s-105.5 160.167 -105.5 265.5z
M135 362c0 -80 25.833 -147.5 77.5 -202.5s116.834 -82.5 195.501 -82.5s143.834 27.5 195.501 82.5s77.5 122.5 77.5 202.5s-25.833 147.5 -77.5 202.5s-116.834 82.5 -195.501 82.5s-143.834 -27.5 -195.501 -82.5s-77.5 -122.5 -77.5 -202.5zM398 795l-110 164h101
l77 -164h-68z" />
    <glyph glyph-name="Oacute" unicode="&#xd3;" horiz-adv-x="816" 
d="M40 362c0 105.333 35.167 193.833 105.5 265.5s157.833 107.5 262.5 107.5s192.167 -35.833 262.5 -107.5s105.5 -160.167 105.5 -265.5s-35.167 -193.833 -105.5 -265.5s-157.833 -107.5 -262.5 -107.5s-192.167 35.833 -262.5 107.5s-105.5 160.167 -105.5 265.5z
M135 362c0 -80 25.833 -147.5 77.5 -202.5s116.834 -82.5 195.501 -82.5s143.834 27.5 195.501 82.5s77.5 122.5 77.5 202.5s-25.833 147.5 -77.5 202.5s-116.834 82.5 -195.501 82.5s-143.834 -27.5 -195.501 -82.5s-77.5 -122.5 -77.5 -202.5zM528 959l-110 -164h-68
l77 164h101z" />
    <glyph glyph-name="Ocircumflex" unicode="&#xd4;" horiz-adv-x="816" 
d="M40 362c0 105.333 35.167 193.833 105.5 265.5s157.833 107.5 262.5 107.5s192.167 -35.833 262.5 -107.5s105.5 -160.167 105.5 -265.5s-35.167 -193.833 -105.5 -265.5s-157.833 -107.5 -262.5 -107.5s-192.167 35.833 -262.5 107.5s-105.5 160.167 -105.5 265.5z
M135 362c0 -80 25.833 -147.5 77.5 -202.5s116.834 -82.5 195.501 -82.5s143.834 27.5 195.501 82.5s77.5 122.5 77.5 202.5s-25.833 147.5 -77.5 202.5s-116.834 82.5 -195.501 82.5s-143.834 -27.5 -195.501 -82.5s-77.5 -122.5 -77.5 -202.5zM247 795l113 164h96
l113 -164h-75l-86 105l-86 -105h-75z" />
    <glyph glyph-name="Otilde" unicode="&#xd5;" horiz-adv-x="816" 
d="M40 362c0 105.333 35.167 193.833 105.5 265.5s157.833 107.5 262.5 107.5s192.167 -35.833 262.5 -107.5s105.5 -160.167 105.5 -265.5s-35.167 -193.833 -105.5 -265.5s-157.833 -107.5 -262.5 -107.5s-192.167 35.833 -262.5 107.5s-105.5 160.167 -105.5 265.5z
M135 362c0 -80 25.833 -147.5 77.5 -202.5s116.834 -82.5 195.501 -82.5s143.834 27.5 195.501 82.5s77.5 122.5 77.5 202.5s-25.833 147.5 -77.5 202.5s-116.834 82.5 -195.501 82.5s-143.834 -27.5 -195.501 -82.5s-77.5 -122.5 -77.5 -202.5zM401 842
c-30.667 15.333 -53 23 -67 23c-26 0 -53 -16 -81 -48l-2 1v78c20.667 28.667 48.334 43 83.001 43c22 0 49 -8 81 -24c30.667 -15.333 53 -23 67 -23c26 0 53 16 81 48l2 -1v-78c-20.667 -28.667 -48.334 -43 -83.001 -43c-22 0 -49 8 -81 24z" />
    <glyph glyph-name="Odieresis" unicode="&#xd6;" horiz-adv-x="816" 
d="M40 362c0 105.333 35.167 193.833 105.5 265.5s157.833 107.5 262.5 107.5s192.167 -35.833 262.5 -107.5s105.5 -160.167 105.5 -265.5s-35.167 -193.833 -105.5 -265.5s-157.833 -107.5 -262.5 -107.5s-192.167 35.833 -262.5 107.5s-105.5 160.167 -105.5 265.5z
M135 362c0 -80 25.833 -147.5 77.5 -202.5s116.834 -82.5 195.501 -82.5s143.834 27.5 195.501 82.5s77.5 122.5 77.5 202.5s-25.833 147.5 -77.5 202.5s-116.834 82.5 -195.501 82.5s-143.834 -27.5 -195.501 -82.5s-77.5 -122.5 -77.5 -202.5zM451 877
c0 15.333 5.5 28.333 16.5 39s23.833 16 38.5 16s27.5 -5.33301 38.5 -16s16.5 -23.667 16.5 -39s-5.5 -28.333 -16.5 -39s-23.833 -16 -38.5 -16s-27.5 5.33301 -38.5 16s-16.5 23.667 -16.5 39zM255 877c0 15.333 5.5 28.333 16.5 39s23.833 16 38.5 16
s27.5 -5.33301 38.5 -16s16.5 -23.667 16.5 -39s-5.5 -28.333 -16.5 -39s-23.833 -16 -38.5 -16s-27.5 5.33301 -38.5 16s-16.5 23.667 -16.5 39z" />
    <glyph glyph-name="multiply" unicode="&#xd7;" horiz-adv-x="588" 
d="M136 154l-51 51l158 158l-158 158l51 51l158 -158l158 158l51 -51l-158 -158l158 -158l-51 -51l-158 158z" />
    <glyph glyph-name="Oslash" unicode="&#xd8;" horiz-adv-x="816" 
d="M135 362c0 -74 22.001 -137.333 66.001 -190l363 426c-45.333 32.667 -97.333 49 -156 49c-78.667 0 -143.834 -27.5 -195.501 -82.5s-77.5 -122.5 -77.5 -202.5zM40.001 362c0 105.333 35.167 193.833 105.5 265.5s157.833 107.5 262.5 107.5
c82 0 153.667 -22.667 215 -68l62 73l52 -44l-62 -73c67.333 -71.333 101 -158.333 101 -261c0 -105.333 -35.167 -193.833 -105.5 -265.5s-157.833 -107.5 -262.5 -107.5c-82 0 -153.667 22.667 -215 68l-62 -73l-52 44l62 73c-67.333 71.333 -101 158.333 -101 261z
M681.001 362c0 74 -22.001 137.333 -66.001 190l-363 -426c45.333 -32.667 97.333 -49 156 -49c78.667 0 143.834 27.5 195.501 82.5s77.5 122.5 77.5 202.5z" />
    <glyph glyph-name="Ugrave" unicode="&#xd9;" horiz-adv-x="730" 
d="M121 102c-32 49.333 -48.0039 128.999 -48.0039 238.999v383h95v-373c0 -89.333 9.33301 -151.666 28 -186.999c30.667 -58 88 -87 172 -87c82.667 0 139.334 29 170.001 87c18 33.333 27 94.333 27 183v377h92v-372c0 -60 -3.16699 -109.333 -9.5 -148
s-19.166 -72.667 -38.499 -102c-23.333 -35.333 -56.166 -63 -98.499 -83s-91.166 -30 -146.499 -30s-103.833 10 -145.5 30s-74.167 47.667 -97.5 83zM354.996 794.999l-110 164h101l77 -164h-68z" />
    <glyph glyph-name="Uacute" unicode="&#xda;" horiz-adv-x="730" 
d="M121 102c-32 49.333 -48.0039 128.999 -48.0039 238.999v383h95v-373c0 -89.333 9.33301 -151.666 28 -186.999c30.667 -58 88 -87 172 -87c82.667 0 139.334 29 170.001 87c18 33.333 27 94.333 27 183v377h92v-372c0 -60 -3.16699 -109.333 -9.5 -148
s-19.166 -72.667 -38.499 -102c-23.333 -35.333 -56.166 -63 -98.499 -83s-91.166 -30 -146.499 -30s-103.833 10 -145.5 30s-74.167 47.667 -97.5 83zM484.996 958.999l-110 -164h-68l77 164h101z" />
    <glyph glyph-name="Ucircumflex" unicode="&#xdb;" horiz-adv-x="730" 
d="M121 102c-32 49.333 -48.0039 128.999 -48.0039 238.999v383h95v-373c0 -89.333 9.33301 -151.666 28 -186.999c30.667 -58 88 -87 172 -87c82.667 0 139.334 29 170.001 87c18 33.333 27 94.333 27 183v377h92v-372c0 -60 -3.16699 -109.333 -9.5 -148
s-19.166 -72.667 -38.499 -102c-23.333 -35.333 -56.166 -63 -98.499 -83s-91.166 -30 -146.499 -30s-103.833 10 -145.5 30s-74.167 47.667 -97.5 83zM203.996 794.999l113 164h96l113 -164h-75l-86 105l-86 -105h-75z" />
    <glyph glyph-name="Udieresis" unicode="&#xdc;" horiz-adv-x="730" 
d="M121 102c-32 49.333 -48.0039 128.999 -48.0039 238.999v383h95v-373c0 -89.333 9.33301 -151.666 28 -186.999c30.667 -58 88 -87 172 -87c82.667 0 139.334 29 170.001 87c18 33.333 27 94.333 27 183v377h92v-372c0 -60 -3.16699 -109.333 -9.5 -148
s-19.166 -72.667 -38.499 -102c-23.333 -35.333 -56.166 -63 -98.499 -83s-91.166 -30 -146.499 -30s-103.833 10 -145.5 30s-74.167 47.667 -97.5 83zM407.996 876.999c0 15.333 5.33301 28.333 16 39s23.667 16 39 16s28.333 -5.33301 39 -16s16 -23.667 16 -39
s-5.33301 -28.333 -16 -39s-23.667 -16 -39 -16s-28.333 5.33301 -39 16s-16 23.667 -16 39zM211.996 876.999c0 15.333 5.33301 28.333 16 39s23.667 16 39 16s28.333 -5.33301 39 -16s16 -23.667 16 -39s-5.33301 -28.333 -16 -39s-23.667 -16 -39 -16
s-28.333 5.33301 -39 16s-16 23.667 -16 39z" />
    <glyph glyph-name="Yacute" unicode="&#xdd;" horiz-adv-x="655" 
d="M281 0v327l-279 397h110l123 -177l94 -138h2l94 139l122 176h106l-277 -396v-328h-95zM450 959l-110 -164h-68l77 164h101z" />
    <glyph glyph-name="Thorn" unicode="&#xde;" horiz-adv-x="622" 
d="M81 0l0.000976562 724.001h95v-141h94c97.333 0 168.666 -12.667 213.999 -38c70 -38.667 105 -98.334 105 -179.001c0 -40 -8.83301 -75.5 -26.5 -106.5s-41.5 -55.5 -71.5 -73.5c-28.667 -17.333 -61.667 -28.5 -99 -33.5s-84.333 -7.5 -141 -7.5h-75v-145h-95z
M176.001 228.001l87 0.000976562c46.667 0 82.5 1.66699 107.5 5s46.833 10.666 65.5 21.999c38.667 23.333 58 59 58 107c0 52 -22.333 89.333 -67 112c-30.667 15.333 -85.667 23 -165 23h-86v-269z" />
    <glyph glyph-name="germandbls" unicode="&#xdf;" horiz-adv-x="624" 
d="M79 0l0.000976562 575.994c0 66.667 19 116.667 57 150c38 32.667 91.667 49 161 49c70 0 124.333 -15.667 163 -47c38 -30.667 57 -76.667 57 -138c0 -37.333 -6.33301 -72.666 -19 -105.999c-39.333 -3.33301 -74.333 -10.666 -105 -21.999
c-42 -15.333 -63 -39 -63 -71c0 -6 0.5 -11.333 1.5 -16s2.83301 -9.16699 5.5 -13.5s4.83398 -8 6.50098 -11s5.33398 -6.16699 11.001 -9.5s9.83398 -6 12.501 -8s7.83398 -4.66699 15.501 -8s13.167 -5.66602 16.5 -6.99902s10.166 -3.83301 20.499 -7.5
s17.166 -6.16699 20.499 -7.5c45.333 -17.333 80.666 -37.166 105.999 -59.499s38 -55.166 38 -98.499c0 -49.333 -17.333 -87.666 -52 -114.999s-78.667 -41 -132 -41c-60.667 0 -111.334 12.333 -152.001 37v96c20.667 -15.333 45.667 -27.833 75 -37.5s56 -14.5 80 -14.5
c26 0 47.5 6 64.5 18s25.5 30 25.5 54c0 22.667 -8.66699 39.667 -26 51s-49.333 25.333 -96 42c-42.667 15.333 -75.167 34.5 -97.5 57.5s-33.5 53.167 -33.5 90.5c0 54 24 96 72 126c30.667 19.333 67.667 32.666 111 39.999c2.66699 14.667 4 28.334 4 41.001
c0 32.667 -10.667 58.334 -32 77.001c-20 17.333 -52.333 26 -97 26s-77.334 -9.33301 -98.001 -28s-31 -48.334 -31 -89.001v-576h-90z" />
    <glyph glyph-name="agrave" unicode="&#xe0;" horiz-adv-x="532" 
d="M215 -11c-47.333 0 -86.332 11.668 -116.999 35.001c-34.667 26 -52 62.333 -52 109c0 52 21.667 92 65 120c34 22 80 33 138 33c35.333 0 70.333 -4.33301 105 -13v41c0 36 -9.33301 63 -28 81c-20 18 -50.333 27 -91 27c-56 0 -106.333 -16.333 -151 -49v88
c46 28 100.667 42 164 42c65.333 0 114.333 -15 147 -45c32.667 -29.333 49 -72.333 49 -129v-209c0 -34.667 12.667 -52 38 -52c10 0 19.667 2.33301 29 7v-75c-14.667 -6 -30.667 -9 -48 -9c-44.667 0 -76.334 17.333 -95.001 52h-2
c-16 -14.667 -37.5 -27.334 -64.5 -38.001s-55.833 -16 -86.5 -16zM231.001 69.001c46 0 87 14.332 123 42.999v92c-29.333 8.66699 -61.333 13 -96 13s-63.5 -6 -86.5 -18s-34.5 -31.333 -34.5 -58c0 -23.333 8.66699 -41.166 26 -53.499s40 -18.5 68 -18.5zM254.001 563
l-110 164h101l77 -164h-68z" />
    <glyph glyph-name="aacute" unicode="&#xe1;" horiz-adv-x="532" 
d="M215 -11c-47.333 0 -86.332 11.668 -116.999 35.001c-34.667 26 -52 62.333 -52 109c0 52 21.667 92 65 120c34 22 80 33 138 33c35.333 0 70.333 -4.33301 105 -13v41c0 36 -9.33301 63 -28 81c-20 18 -50.333 27 -91 27c-56 0 -106.333 -16.333 -151 -49v88
c46 28 100.667 42 164 42c65.333 0 114.333 -15 147 -45c32.667 -29.333 49 -72.333 49 -129v-209c0 -34.667 12.667 -52 38 -52c10 0 19.667 2.33301 29 7v-75c-14.667 -6 -30.667 -9 -48 -9c-44.667 0 -76.334 17.333 -95.001 52h-2
c-16 -14.667 -37.5 -27.334 -64.5 -38.001s-55.833 -16 -86.5 -16zM231.001 69.001c46 0 87 14.332 123 42.999v92c-29.333 8.66699 -61.333 13 -96 13s-63.5 -6 -86.5 -18s-34.5 -31.333 -34.5 -58c0 -23.333 8.66699 -41.166 26 -53.499s40 -18.5 68 -18.5zM384.001 727
l-110 -164h-68l77 164h101z" />
    <glyph glyph-name="acircumflex" unicode="&#xe2;" horiz-adv-x="532" 
d="M215 -11c-47.333 0 -86.332 11.668 -116.999 35.001c-34.667 26 -52 62.333 -52 109c0 52 21.667 92 65 120c34 22 80 33 138 33c35.333 0 70.333 -4.33301 105 -13v41c0 36 -9.33301 63 -28 81c-20 18 -50.333 27 -91 27c-56 0 -106.333 -16.333 -151 -49v88
c46 28 100.667 42 164 42c65.333 0 114.333 -15 147 -45c32.667 -29.333 49 -72.333 49 -129v-209c0 -34.667 12.667 -52 38 -52c10 0 19.667 2.33301 29 7v-75c-14.667 -6 -30.667 -9 -48 -9c-44.667 0 -76.334 17.333 -95.001 52h-2
c-16 -14.667 -37.5 -27.334 -64.5 -38.001s-55.833 -16 -86.5 -16zM231.001 69.001c46 0 87 14.332 123 42.999v92c-29.333 8.66699 -61.333 13 -96 13s-63.5 -6 -86.5 -18s-34.5 -31.333 -34.5 -58c0 -23.333 8.66699 -41.166 26 -53.499s40 -18.5 68 -18.5zM103.001 563
l113 164h96l113 -164h-75l-86 105l-86 -105h-75z" />
    <glyph glyph-name="atilde" unicode="&#xe3;" horiz-adv-x="532" 
d="M215 -11c-47.333 0 -86.332 11.668 -116.999 35.001c-34.667 26 -52 62.333 -52 109c0 52 21.667 92 65 120c34 22 80 33 138 33c35.333 0 70.333 -4.33301 105 -13v41c0 36 -9.33301 63 -28 81c-20 18 -50.333 27 -91 27c-56 0 -106.333 -16.333 -151 -49v88
c46 28 100.667 42 164 42c65.333 0 114.333 -15 147 -45c32.667 -29.333 49 -72.333 49 -129v-209c0 -34.667 12.667 -52 38 -52c10 0 19.667 2.33301 29 7v-75c-14.667 -6 -30.667 -9 -48 -9c-44.667 0 -76.334 17.333 -95.001 52h-2
c-16 -14.667 -37.5 -27.334 -64.5 -38.001s-55.833 -16 -86.5 -16zM231.001 69.001c46 0 87 14.332 123 42.999v92c-29.333 8.66699 -61.333 13 -96 13s-63.5 -6 -86.5 -18s-34.5 -31.333 -34.5 -58c0 -23.333 8.66699 -41.166 26 -53.499s40 -18.5 68 -18.5zM257.001 610
c-30.667 15.333 -53 23 -67 23c-26 0 -53 -16 -81 -48l-2 1v78c20.667 28.667 48.334 43 83.001 43c22 0 49 -8 81 -24c30.667 -15.333 53 -23 67 -23c26 0 53 16 81 48l2 -1v-78c-20.667 -28.667 -48.334 -43 -83.001 -43c-22 0 -49 8 -81 24z" />
    <glyph glyph-name="adieresis" unicode="&#xe4;" horiz-adv-x="532" 
d="M215 -11c-47.333 0 -86.332 11.668 -116.999 35.001c-34.667 26 -52 62.333 -52 109c0 52 21.667 92 65 120c34 22 80 33 138 33c35.333 0 70.333 -4.33301 105 -13v41c0 36 -9.33301 63 -28 81c-20 18 -50.333 27 -91 27c-56 0 -106.333 -16.333 -151 -49v88
c46 28 100.667 42 164 42c65.333 0 114.333 -15 147 -45c32.667 -29.333 49 -72.333 49 -129v-209c0 -34.667 12.667 -52 38 -52c10 0 19.667 2.33301 29 7v-75c-14.667 -6 -30.667 -9 -48 -9c-44.667 0 -76.334 17.333 -95.001 52h-2
c-16 -14.667 -37.5 -27.334 -64.5 -38.001s-55.833 -16 -86.5 -16zM231.001 69.001c46 0 87 14.332 123 42.999v92c-29.333 8.66699 -61.333 13 -96 13s-63.5 -6 -86.5 -18s-34.5 -31.333 -34.5 -58c0 -23.333 8.66699 -41.166 26 -53.499s40 -18.5 68 -18.5zM307.001 645
c0 15.333 5.5 28.333 16.5 39s23.833 16 38.5 16s27.5 -5.33301 38.5 -16s16.5 -23.667 16.5 -39s-5.5 -28.333 -16.5 -39s-23.833 -16 -38.5 -16s-27.5 5.33301 -38.5 16s-16.5 23.667 -16.5 39zM111.001 645c0 15.333 5.5 28.333 16.5 39s23.833 16 38.5 16
s27.5 -5.33301 38.5 -16s16.5 -23.667 16.5 -39s-5.5 -28.333 -16.5 -39s-23.833 -16 -38.5 -16s-27.5 5.33301 -38.5 16s-16.5 23.667 -16.5 39z" />
    <glyph glyph-name="aring" unicode="&#xe5;" horiz-adv-x="532" 
d="M215 -11c-47.333 0 -86.332 11.668 -116.999 35.001c-34.667 26 -52 62.333 -52 109c0 52 21.667 92 65 120c34 22 80 33 138 33c35.333 0 70.333 -4.33301 105 -13v41c0 36 -9.33301 63 -28 81c-20 18 -50.333 27 -91 27c-56 0 -106.333 -16.333 -151 -49v88
c46 28 100.667 42 164 42c65.333 0 114.333 -15 147 -45c32.667 -29.333 49 -72.333 49 -129v-209c0 -34.667 12.667 -52 38 -52c10 0 19.667 2.33301 29 7v-75c-14.667 -6 -30.667 -9 -48 -9c-44.667 0 -76.334 17.333 -95.001 52h-2
c-16 -14.667 -37.5 -27.334 -64.5 -38.001s-55.833 -16 -86.5 -16zM231.001 69.001c46 0 87 14.332 123 42.999v92c-29.333 8.66699 -61.333 13 -96 13s-63.5 -6 -86.5 -18s-34.5 -31.333 -34.5 -58c0 -23.333 8.66699 -41.166 26 -53.499s40 -18.5 68 -18.5zM264.001 551
c-33.333 0 -61.166 10.833 -83.499 32.5s-33.5 48.834 -33.5 81.501s11.167 59.834 33.5 81.501s50.166 32.5 83.499 32.5s61.166 -10.833 83.499 -32.5s33.5 -48.834 33.5 -81.501s-11.167 -59.834 -33.5 -81.501s-50.166 -32.5 -83.499 -32.5zM264.001 601
c18.667 0 33.834 6.16699 45.501 18.5s17.5 27.5 17.5 45.5s-5.83301 33.167 -17.5 45.5s-26.834 18.5 -45.501 18.5s-33.834 -6.16699 -45.501 -18.5s-17.5 -27.5 -17.5 -45.5s5.83301 -33.167 17.5 -45.5s26.834 -18.5 45.501 -18.5z" />
    <glyph glyph-name="ae" unicode="&#xe6;" horiz-adv-x="858" 
d="M808 220l-370 -0.000976562c6.66699 -47.333 26 -84.166 58 -110.499s72 -39.5 120 -39.5c59.333 0 115.333 20.333 168 61v-96c-48 -30.667 -106 -46 -174 -46c-84 0 -150.667 27.667 -200 83c-56 -55.333 -120.667 -83 -194 -83c-47.333 0 -86.333 11.667 -117 35
c-35.333 26.667 -53 63.334 -53 110.001c0 51.333 21.667 91 65 119c34 22 80 33 138 33c32 0 65 -4 99 -12v39c0 36 -9.33301 63 -28 81c-19.333 18 -49 27 -89 27c-54.667 0 -103.667 -16.333 -147 -49v89c45.333 28 98 42 158 42c87.333 0 145 -26.667 173 -80h2
c46 53.333 104.333 80 175 80c62 0 114 -21.333 156 -64s63 -100.334 63 -173.001c0 -18.667 -1 -34 -3 -46zM589 421.999c-36 0 -68.333 -11.167 -97 -33.5s-46.334 -54.833 -53.001 -97.5h285c-1.33301 34.667 -14.166 65.167 -38.499 91.5s-56.5 39.5 -96.5 39.5z
M258 216.999c-34.667 0 -63.5 -6.16699 -86.5 -18.5s-34.5 -31.833 -34.5 -58.5c0 -23.333 8.66699 -41 26 -53s39.666 -18 66.999 -18c56 0 104 20 144 60c-10.667 24 -18 49 -22 75c-29.333 8.66699 -60.666 13 -93.999 13z" />
    <glyph glyph-name="ccedilla" unicode="&#xe7;" horiz-adv-x="510" 
d="M239 -86l24.002 79.001c-64.667 9.33301 -117.167 37.166 -157.5 83.499s-60.5 101.833 -60.5 166.5c0 75.333 26.167 137.5 78.5 186.5s117.166 73.5 194.499 73.5c48.667 0 93 -10.333 133 -31v-93c-44 28 -89.667 42 -137 42c-52.667 0 -95.5 -17 -128.5 -51
s-49.5 -76.333 -49.5 -127s16.833 -92 50.5 -124s77.167 -48 130.5 -48c54 0 101.333 16 142 48v-96c-41.333 -22.667 -91 -34 -149 -34l-10 -32c59.333 -13.333 89 -43.333 89 -90c0 -26.667 -9.5 -48 -28.5 -64s-44.5 -24 -76.5 -24c-29.333 0 -56 6 -80 18l15 51
c25.333 -12.667 46.666 -19 63.999 -19c14 0 25.5 3 34.5 9s13.5 14.667 13.5 26c0 30 -30.667 46.667 -92 50z" />
    <glyph glyph-name="egrave" unicode="&#xe8;" horiz-adv-x="563" 
d="M511 220l-376.001 -0.000976562c6.66699 -47.333 26.334 -84.166 59.001 -110.499s73.667 -39.5 123 -39.5c59.333 0 116 20.333 170 61v-96c-48 -30.667 -106.667 -46 -176 -46c-77.333 0 -141 23.667 -191 71s-75 109.333 -75 186c0 75.333 23.833 137 71.5 185
s105.5 72 173.5 72c63.333 0 116.5 -21.167 159.5 -63.5s64.5 -100.5 64.5 -174.5c0 -18 -1 -33 -3 -45zM287.999 421.999c-35.333 0 -67.501 -11.167 -96.501 -33.5s-47.167 -54.833 -54.5 -97.5h290c-3.33301 44.667 -18.666 77.667 -45.999 99s-58.333 32 -93 32z
M273.998 562.999l-110 164h101l77 -164h-68z" />
    <glyph glyph-name="eacute" unicode="&#xe9;" horiz-adv-x="563" 
d="M511 220l-376.001 -0.000976562c6.66699 -47.333 26.334 -84.166 59.001 -110.499s73.667 -39.5 123 -39.5c59.333 0 116 20.333 170 61v-96c-48 -30.667 -106.667 -46 -176 -46c-77.333 0 -141 23.667 -191 71s-75 109.333 -75 186c0 75.333 23.833 137 71.5 185
s105.5 72 173.5 72c63.333 0 116.5 -21.167 159.5 -63.5s64.5 -100.5 64.5 -174.5c0 -18 -1 -33 -3 -45zM287.999 421.999c-35.333 0 -67.501 -11.167 -96.501 -33.5s-47.167 -54.833 -54.5 -97.5h290c-3.33301 44.667 -18.666 77.667 -45.999 99s-58.333 32 -93 32z
M403.998 726.999l-110 -164h-68l77 164h101z" />
    <glyph glyph-name="ecircumflex" unicode="&#xea;" horiz-adv-x="563" 
d="M511 220l-376.001 -0.000976562c6.66699 -47.333 26.334 -84.166 59.001 -110.499s73.667 -39.5 123 -39.5c59.333 0 116 20.333 170 61v-96c-48 -30.667 -106.667 -46 -176 -46c-77.333 0 -141 23.667 -191 71s-75 109.333 -75 186c0 75.333 23.833 137 71.5 185
s105.5 72 173.5 72c63.333 0 116.5 -21.167 159.5 -63.5s64.5 -100.5 64.5 -174.5c0 -18 -1 -33 -3 -45zM287.999 421.999c-35.333 0 -67.501 -11.167 -96.501 -33.5s-47.167 -54.833 -54.5 -97.5h290c-3.33301 44.667 -18.666 77.667 -45.999 99s-58.333 32 -93 32z
M122.998 562.999l113 164h96l113 -164h-75l-86 105l-86 -105h-75z" />
    <glyph glyph-name="edieresis" unicode="&#xeb;" horiz-adv-x="563" 
d="M511 220l-376.001 -0.000976562c6.66699 -47.333 26.334 -84.166 59.001 -110.499s73.667 -39.5 123 -39.5c59.333 0 116 20.333 170 61v-96c-48 -30.667 -106.667 -46 -176 -46c-77.333 0 -141 23.667 -191 71s-75 109.333 -75 186c0 75.333 23.833 137 71.5 185
s105.5 72 173.5 72c63.333 0 116.5 -21.167 159.5 -63.5s64.5 -100.5 64.5 -174.5c0 -18 -1 -33 -3 -45zM287.999 421.999c-35.333 0 -67.501 -11.167 -96.501 -33.5s-47.167 -54.833 -54.5 -97.5h290c-3.33301 44.667 -18.666 77.667 -45.999 99s-58.333 32 -93 32z
M326.998 644.999c0 15.333 5.5 28.333 16.5 39s23.833 16 38.5 16s27.5 -5.33301 38.5 -16s16.5 -23.667 16.5 -39s-5.5 -28.333 -16.5 -39s-23.833 -16 -38.5 -16s-27.5 5.33301 -38.5 16s-16.5 23.667 -16.5 39zM130.998 644.999c0 15.333 5.5 28.333 16.5 39
s23.833 16 38.5 16s27.5 -5.33301 38.5 -16s16.5 -23.667 16.5 -39s-5.5 -28.333 -16.5 -39s-23.833 -16 -38.5 -16s-27.5 5.33301 -38.5 16s-16.5 23.667 -16.5 39z" />
    <glyph glyph-name="igrave" unicode="&#xec;" horiz-adv-x="248" 
d="M79 0v492h90v-492h-90zM114 563l-110 164h101l77 -164h-68z" />
    <glyph glyph-name="iacute" unicode="&#xed;" horiz-adv-x="248" 
d="M79 0v492h90v-492h-90zM244 727l-110 -164h-68l77 164h101z" />
    <glyph glyph-name="icircumflex" unicode="&#xee;" horiz-adv-x="248" 
d="M79 0v492h90v-492h-90zM-37 563l113 164h96l113 -164h-75l-86 105l-86 -105h-75z" />
    <glyph glyph-name="idieresis" unicode="&#xef;" horiz-adv-x="248" 
d="M79 0v492h90v-492h-90zM167 645c0 15.333 5.5 28.333 16.5 39s23.833 16 38.5 16s27.5 -5.33301 38.5 -16s16.5 -23.667 16.5 -39s-5.5 -28.333 -16.5 -39s-23.833 -16 -38.5 -16s-27.5 5.33301 -38.5 16s-16.5 23.667 -16.5 39zM-29 645c0 15.333 5.5 28.333 16.5 39
s23.833 16 38.5 16s27.5 -5.33301 38.5 -16s16.5 -23.667 16.5 -39s-5.5 -28.333 -16.5 -39s-23.833 -16 -38.5 -16s-27.5 5.33301 -38.5 16s-16.5 23.667 -16.5 39z" />
    <glyph glyph-name="eth" unicode="&#xf0;" horiz-adv-x="580" 
d="M148 525l-12.998 62.002l113 43c-30 21.333 -64.667 41.333 -104 60l54 60c53.333 -27.333 98.666 -56.333 135.999 -87l106 40l13 -62l-68 -26c51.333 -52.667 90.166 -110.334 116.499 -173.001s39.5 -124.667 39.5 -186c0 -86 -24 -152 -72 -198
s-108.667 -69 -182 -69c-74.667 0 -135 23.167 -181 69.5s-69 105.166 -69 176.499c0 70.667 22.333 129.667 67 177s101 71 169 71c56.667 0 102 -16 136 -48l2 2c-23.333 53.333 -59 102.333 -107 147zM127.002 240.002c0 -48.667 15.001 -89 45.001 -121s69 -48 117 -48
c49.333 0 88.666 16.5 117.999 49.5s44 73.5 44 121.5c0 50 -15.833 89.667 -47.5 119s-70.5 44 -116.5 44c-47.333 0 -85.833 -15.5 -115.5 -46.5s-44.5 -70.5 -44.5 -118.5z" />
    <glyph glyph-name="ntilde" unicode="&#xf1;" horiz-adv-x="592" 
d="M79 0l0.000976562 491.999h90v-62l2 -1c49.333 49.333 106.666 74 171.999 74c55.333 0 99 -18 131 -54c27.333 -31.333 41 -79.666 41 -144.999v-304h-90v287c0 48.667 -7.66699 82 -23 100c-18 21.333 -44.333 32 -79 32c-28 0 -56.167 -7.66699 -84.5 -23
s-51.5 -35 -69.5 -59v-337h-90zM289.001 609.999c-30.667 15.333 -53 23 -67 23c-26 0 -53 -16 -81 -48l-2 1v78c20.667 28.667 48.334 43 83.001 43c22 0 49 -8 81 -24c30.667 -15.333 53 -23 67 -23c26 0 53 16 81 48l2 -1v-78c-20.667 -28.667 -48.334 -43 -83.001 -43
c-22 0 -49 8 -81 24z" />
    <glyph glyph-name="ograve" unicode="&#xf2;" horiz-adv-x="610" 
d="M45 246c0 72.667 24.833 133.667 74.5 183s111.5 74 185.5 74s135.833 -24.667 185.5 -74s74.5 -110.333 74.5 -183s-24.833 -133.667 -74.5 -183s-111.5 -74 -185.5 -74s-135.833 24.667 -185.5 74s-74.5 110.333 -74.5 183zM135 246c0 -50 16.167 -91.667 48.5 -125
s72.833 -50 121.5 -50s89.167 16.667 121.5 50s48.5 75 48.5 125s-16.167 91.667 -48.5 125s-72.833 50 -121.5 50s-89.167 -16.667 -121.5 -50s-48.5 -75 -48.5 -125zM295 563l-110 164h101l77 -164h-68z" />
    <glyph glyph-name="oacute" unicode="&#xf3;" horiz-adv-x="610" 
d="M45 246c0 72.667 24.833 133.667 74.5 183s111.5 74 185.5 74s135.833 -24.667 185.5 -74s74.5 -110.333 74.5 -183s-24.833 -133.667 -74.5 -183s-111.5 -74 -185.5 -74s-135.833 24.667 -185.5 74s-74.5 110.333 -74.5 183zM135 246c0 -50 16.167 -91.667 48.5 -125
s72.833 -50 121.5 -50s89.167 16.667 121.5 50s48.5 75 48.5 125s-16.167 91.667 -48.5 125s-72.833 50 -121.5 50s-89.167 -16.667 -121.5 -50s-48.5 -75 -48.5 -125zM425 727l-110 -164h-68l77 164h101z" />
    <glyph glyph-name="ocircumflex" unicode="&#xf4;" horiz-adv-x="610" 
d="M45 246c0 72.667 24.833 133.667 74.5 183s111.5 74 185.5 74s135.833 -24.667 185.5 -74s74.5 -110.333 74.5 -183s-24.833 -133.667 -74.5 -183s-111.5 -74 -185.5 -74s-135.833 24.667 -185.5 74s-74.5 110.333 -74.5 183zM135 246c0 -50 16.167 -91.667 48.5 -125
s72.833 -50 121.5 -50s89.167 16.667 121.5 50s48.5 75 48.5 125s-16.167 91.667 -48.5 125s-72.833 50 -121.5 50s-89.167 -16.667 -121.5 -50s-48.5 -75 -48.5 -125zM144 563l113 164h96l113 -164h-75l-86 105l-86 -105h-75z" />
    <glyph glyph-name="otilde" unicode="&#xf5;" horiz-adv-x="610" 
d="M45 246c0 72.667 24.833 133.667 74.5 183s111.5 74 185.5 74s135.833 -24.667 185.5 -74s74.5 -110.333 74.5 -183s-24.833 -133.667 -74.5 -183s-111.5 -74 -185.5 -74s-135.833 24.667 -185.5 74s-74.5 110.333 -74.5 183zM135 246c0 -50 16.167 -91.667 48.5 -125
s72.833 -50 121.5 -50s89.167 16.667 121.5 50s48.5 75 48.5 125s-16.167 91.667 -48.5 125s-72.833 50 -121.5 50s-89.167 -16.667 -121.5 -50s-48.5 -75 -48.5 -125zM298 610c-30.667 15.333 -53 23 -67 23c-26 0 -53 -16 -81 -48l-2 1v78
c20.667 28.667 48.334 43 83.001 43c22 0 49 -8 81 -24c30.667 -15.333 53 -23 67 -23c26 0 53 16 81 48l2 -1v-78c-20.667 -28.667 -48.334 -43 -83.001 -43c-22 0 -49 8 -81 24z" />
    <glyph glyph-name="odieresis" unicode="&#xf6;" horiz-adv-x="610" 
d="M45 246c0 72.667 24.833 133.667 74.5 183s111.5 74 185.5 74s135.833 -24.667 185.5 -74s74.5 -110.333 74.5 -183s-24.833 -133.667 -74.5 -183s-111.5 -74 -185.5 -74s-135.833 24.667 -185.5 74s-74.5 110.333 -74.5 183zM135 246c0 -50 16.167 -91.667 48.5 -125
s72.833 -50 121.5 -50s89.167 16.667 121.5 50s48.5 75 48.5 125s-16.167 91.667 -48.5 125s-72.833 50 -121.5 50s-89.167 -16.667 -121.5 -50s-48.5 -75 -48.5 -125zM348 645c0 15.333 5.33301 28.333 16 39s23.667 16 39 16s28.333 -5.33301 39 -16s16 -23.667 16 -39
s-5.33301 -28.333 -16 -39s-23.667 -16 -39 -16s-28.333 5.33301 -39 16s-16 23.667 -16 39zM152 645c0 15.333 5.33301 28.333 16 39s23.667 16 39 16s28.333 -5.33301 39 -16s16 -23.667 16 -39s-5.33301 -28.333 -16 -39s-23.667 -16 -39 -16s-28.333 5.33301 -39 16
s-16 23.667 -16 39z" />
    <glyph glyph-name="divide" unicode="&#xf7;" horiz-adv-x="588" 
d="M238 576c0 15.333 5.5 28.5 16.5 39.5s24.167 16.5 39.5 16.5s28.5 -5.5 39.5 -16.5s16.5 -24.167 16.5 -39.5s-5.5 -28.5 -16.5 -39.5s-24.167 -16.5 -39.5 -16.5s-28.5 5.5 -39.5 16.5s-16.5 24.167 -16.5 39.5zM53 326v72h482v-72h-482zM238 148
c0 15.333 5.5 28.5 16.5 39.5s24.167 16.5 39.5 16.5s28.5 -5.5 39.5 -16.5s16.5 -24.167 16.5 -39.5s-5.5 -28.5 -16.5 -39.5s-24.167 -16.5 -39.5 -16.5s-28.5 5.5 -39.5 16.5s-16.5 24.167 -16.5 39.5z" />
    <glyph glyph-name="oslash" unicode="&#xf8;" horiz-adv-x="610" 
d="M135 246c0 -40.667 11 -76.333 33 -107l226 258c-28 16 -57.667 24 -89 24c-48.667 0 -89.167 -16.667 -121.5 -50s-48.5 -75 -48.5 -125zM45 246.001c0 72.667 24.833 133.667 74.5 183s111.5 74 185.5 74c54 0 102.333 -14 145 -42l50 57l49 -42l-49 -56
c43.333 -47.333 65 -105.333 65 -174c0 -72.667 -24.833 -133.667 -74.5 -183s-111.5 -74 -185.5 -74c-54 0 -102.333 14 -145 42l-50 -57l-49 42l49 56c-43.333 47.333 -65 105.333 -65 174zM475 246.001c0 40.667 -11 76.333 -33 107l-226 -258c28 -16 57.667 -24 89 -24
c48.667 0 89.167 16.667 121.5 50s48.5 75 48.5 125z" />
    <glyph glyph-name="ugrave" unicode="&#xf9;" horiz-adv-x="592" 
d="M117 44c-26.667 31.333 -39.999 80.333 -39.999 147v301h90v-284c0 -49.333 8 -83.333 24 -102c18 -22.667 44 -34 78 -34c28.667 0 56.667 8 84 24s50.666 36 69.999 60v336h90v-492h-90v62l-2 1c-49.333 -49.333 -106 -74 -170 -74c-57.333 0 -102 18.333 -134 55z
M286.001 563l-110 164h101l77 -164h-68z" />
    <glyph glyph-name="uacute" unicode="&#xfa;" horiz-adv-x="592" 
d="M117 44c-26.667 31.333 -39.999 80.333 -39.999 147v301h90v-284c0 -49.333 8 -83.333 24 -102c18 -22.667 44 -34 78 -34c28.667 0 56.667 8 84 24s50.666 36 69.999 60v336h90v-492h-90v62l-2 1c-49.333 -49.333 -106 -74 -170 -74c-57.333 0 -102 18.333 -134 55z
M416.001 727l-110 -164h-68l77 164h101z" />
    <glyph glyph-name="ucircumflex" unicode="&#xfb;" horiz-adv-x="592" 
d="M117 44c-26.667 31.333 -39.999 80.333 -39.999 147v301h90v-284c0 -49.333 8 -83.333 24 -102c18 -22.667 44 -34 78 -34c28.667 0 56.667 8 84 24s50.666 36 69.999 60v336h90v-492h-90v62l-2 1c-49.333 -49.333 -106 -74 -170 -74c-57.333 0 -102 18.333 -134 55z
M135.001 563l113 164h96l113 -164h-75l-86 105l-86 -105h-75z" />
    <glyph glyph-name="udieresis" unicode="&#xfc;" horiz-adv-x="592" 
d="M117 44c-26.667 31.333 -39.999 80.333 -39.999 147v301h90v-284c0 -49.333 8 -83.333 24 -102c18 -22.667 44 -34 78 -34c28.667 0 56.667 8 84 24s50.666 36 69.999 60v336h90v-492h-90v62l-2 1c-49.333 -49.333 -106 -74 -170 -74c-57.333 0 -102 18.333 -134 55z
M339.001 645c0 15.333 5.5 28.333 16.5 39s23.833 16 38.5 16s27.5 -5.33301 38.5 -16s16.5 -23.667 16.5 -39s-5.5 -28.333 -16.5 -39s-23.833 -16 -38.5 -16s-27.5 5.33301 -38.5 16s-16.5 23.667 -16.5 39zM143.001 645c0 15.333 5.5 28.333 16.5 39s23.833 16 38.5 16
s27.5 -5.33301 38.5 -16s16.5 -23.667 16.5 -39s-5.5 -28.333 -16.5 -39s-23.833 -16 -38.5 -16s-27.5 5.33301 -38.5 16s-16.5 23.667 -16.5 39z" />
    <glyph glyph-name="yacute" unicode="&#xfd;" horiz-adv-x="550" 
d="M192 -220h-98l133 273l-205 439h100l86 -186l67 -148h2l67 148l86 186h95zM396 727l-110 -164h-68l77 164h101z" />
    <glyph glyph-name="thorn" unicode="&#xfe;" horiz-adv-x="596" 
d="M79 -220v984.001h90v-302l2 -1c42 28 88.667 42 140 42c67.333 0 124 -23.667 170 -71s69 -108 69 -182c0 -76.667 -24.667 -139.334 -74 -188.001s-111 -73 -185 -73c-39.333 0 -79.333 8.33301 -120 25l-2 -1v-233h-90zM169 379.001l0.00292969 -278
c39.333 -22 80.666 -33 123.999 -33c49.333 0 89.333 16.5 120 49.5s46 75.167 46 126.5s-14.833 93.833 -44.5 127.5s-68.834 50.5 -117.501 50.5c-46.667 0 -89.334 -14.333 -128.001 -43z" />
    <glyph glyph-name="ydieresis" unicode="&#xff;" horiz-adv-x="550" 
d="M192 -220h-98l133 273l-205 439h100l86 -186l67 -148h2l67 148l86 186h95zM319 645c0 15.333 5.5 28.333 16.5 39s23.833 16 38.5 16s27.5 -5.33301 38.5 -16s16.5 -23.667 16.5 -39s-5.5 -28.333 -16.5 -39s-23.833 -16 -38.5 -16s-27.5 5.33301 -38.5 16
s-16.5 23.667 -16.5 39zM123 645c0 15.333 5.5 28.333 16.5 39s23.833 16 38.5 16s27.5 -5.33301 38.5 -16s16.5 -23.667 16.5 -39s-5.5 -28.333 -16.5 -39s-23.833 -16 -38.5 -16s-27.5 5.33301 -38.5 16s-16.5 23.667 -16.5 39z" />
    <glyph glyph-name="Amacron" unicode="&#x100;" horiz-adv-x="698" 
d="M5 0l298 724h91l299 -724h-102l-81 202h-326l-82 -202h-97zM276 432l-59 -146.999h260l-59 150l-69 179h-2c-19.333 -52.667 -43 -113.334 -71 -182.001zM212 843.001v68h274v-68h-274z" />
    <glyph glyph-name="amacron" unicode="&#x101;" horiz-adv-x="532" 
d="M215 -11c-47.333 0 -86.332 11.668 -116.999 35.001c-34.667 26 -52 62.333 -52 109c0 52 21.667 92 65 120c34 22 80 33 138 33c35.333 0 70.333 -4.33301 105 -13v41c0 36 -9.33301 63 -28 81c-20 18 -50.333 27 -91 27c-56 0 -106.333 -16.333 -151 -49v88
c46 28 100.667 42 164 42c65.333 0 114.333 -15 147 -45c32.667 -29.333 49 -72.333 49 -129v-209c0 -34.667 12.667 -52 38 -52c10 0 19.667 2.33301 29 7v-75c-14.667 -6 -30.667 -9 -48 -9c-44.667 0 -76.334 17.333 -95.001 52h-2
c-16 -14.667 -37.5 -27.334 -64.5 -38.001s-55.833 -16 -86.5 -16zM231.001 69.001c46 0 87 14.332 123 42.999v92c-29.333 8.66699 -61.333 13 -96 13s-63.5 -6 -86.5 -18s-34.5 -31.333 -34.5 -58c0 -23.333 8.66699 -41.166 26 -53.499s40 -18.5 68 -18.5zM127.001 611
v68h274v-68h-274z" />
    <glyph glyph-name="Abreve" unicode="&#x102;" horiz-adv-x="698" 
d="M5 0l298 724h91l299 -724h-102l-81 202h-326l-82 -202h-97zM276 432l-59 -146.999h260l-59 150l-69 179h-2c-19.333 -52.667 -43 -113.334 -71 -182.001zM349 804.001c-44 0 -77.833 13.667 -101.5 41s-36.167 63 -37.5 107h58c5.33301 -61.333 32.333 -92 81 -92
s75.667 30.667 81 92h58c-1.33301 -44 -13.833 -79.667 -37.5 -107s-57.5 -41 -101.5 -41z" />
    <glyph glyph-name="abreve" unicode="&#x103;" horiz-adv-x="532" 
d="M215 -11c-47.333 0 -86.332 11.668 -116.999 35.001c-34.667 26 -52 62.333 -52 109c0 52 21.667 92 65 120c34 22 80 33 138 33c35.333 0 70.333 -4.33301 105 -13v41c0 36 -9.33301 63 -28 81c-20 18 -50.333 27 -91 27c-56 0 -106.333 -16.333 -151 -49v88
c46 28 100.667 42 164 42c65.333 0 114.333 -15 147 -45c32.667 -29.333 49 -72.333 49 -129v-209c0 -34.667 12.667 -52 38 -52c10 0 19.667 2.33301 29 7v-75c-14.667 -6 -30.667 -9 -48 -9c-44.667 0 -76.334 17.333 -95.001 52h-2
c-16 -14.667 -37.5 -27.334 -64.5 -38.001s-55.833 -16 -86.5 -16zM231.001 69.001c46 0 87 14.332 123 42.999v92c-29.333 8.66699 -61.333 13 -96 13s-63.5 -6 -86.5 -18s-34.5 -31.333 -34.5 -58c0 -23.333 8.66699 -41.166 26 -53.499s40 -18.5 68 -18.5zM264.001 572
c-44 0 -77.833 13.667 -101.5 41s-36.167 63 -37.5 107h58c5.33301 -61.333 32.333 -92 81 -92s75.667 30.667 81 92h58c-1.33301 -44 -13.833 -79.667 -37.5 -107s-57.5 -41 -101.5 -41z" />
    <glyph glyph-name="Aogonek" unicode="&#x104;" horiz-adv-x="698" 
d="M5 0l297.999 723.999h91l299 -724c-32 -14.667 -56.667 -32.667 -74 -54s-26 -42.333 -26 -63c0 -34 17 -51 51 -51c14.667 0 28.334 2 41.001 6v-60c-18 -6 -36.667 -9 -56 -9c-34 0 -61.167 9.16699 -81.5 27.5s-30.5 42.5 -30.5 72.5c0 24 6.83301 47.833 20.5 71.5
s31.167 43.834 52.5 60.501l-80 201h-326l-82 -202h-97zM275.999 431.999l-59 -146.999h260l-59 150l-69 179h-2c-19.333 -52.667 -43 -113.334 -71 -182.001z" />
    <glyph glyph-name="aogonek" unicode="&#x105;" horiz-adv-x="532" 
d="M215 -11c-47.333 0 -86.333 11.667 -117 35c-34.667 26 -52 62.333 -52 109c0 52 21.667 92 65 120c34 22 80 33 138 33c35.333 0 70.333 -4.33301 105 -13v41c0 36 -9.33301 63 -28 81c-20 18 -50.333 27 -91 27c-56 0 -106.333 -16.333 -151 -49v88
c46 28 100.667 42 164 42c65.333 0 114.333 -15 147 -45c32.667 -29.333 49 -72.333 49 -129v-209c0 -34.667 12.667 -52 38 -52c10 0 19.667 2.33301 29 7v-75c-32.667 -6 -59.834 -21.167 -81.501 -45.5s-32.5 -48.833 -32.5 -73.5c0 -14.667 4.5 -26.5 13.5 -35.5
s21.5 -13.5 37.5 -13.5c13.333 0 27 2 41 6v-60c-19.333 -6 -38.333 -9 -57 -9c-33.333 0 -60.166 9.33301 -80.499 28s-30.5 42.334 -30.5 71.001c0 25.333 7.16699 50.5 21.5 75.5s33.833 45.833 58.5 62.5v2c-14 8 -25 19.667 -33 35h-2
c-16 -14.667 -37.5 -27.334 -64.5 -38.001s-55.833 -16 -86.5 -16zM231 69c46 0 87 14.332 123 42.999v92c-29.333 8.66699 -61.333 13 -96 13s-63.5 -6 -86.5 -18s-34.5 -31.333 -34.5 -58c0 -23.333 8.66699 -41.166 26 -53.499s40 -18.5 68 -18.5z" />
    <glyph glyph-name="Cacute" unicode="&#x106;" horiz-adv-x="681" 
d="M41 360c0 105.333 35 194.165 105 266.498s160.667 108.5 272 108.5c75.333 0 143.333 -17 204 -51v-104c-60 44.667 -128.333 67 -205 67c-82 0 -149.333 -27.167 -202 -81.5s-79 -122.166 -79 -203.499s26.833 -149.166 80.5 -203.499s123.167 -81.5 208.5 -81.5
c78.667 0 148 24.333 208 73v-105c-58.667 -37.333 -129.667 -56 -213 -56c-109.333 0 -199.833 35.167 -271.5 105.5s-107.5 158.833 -107.5 265.5zM560 958.999l-110 -164h-68l77 164h101z" />
    <glyph glyph-name="cacute" unicode="&#x107;" horiz-adv-x="510" 
d="M459 119l0.000976562 -96c-41.333 -22.667 -90.333 -34 -147 -34c-78 0 -142 24 -192 72s-75 108.667 -75 182c0 75.333 26.167 137.5 78.5 186.5s117.166 73.5 194.499 73.5c48.667 0 93 -10.333 133 -31v-93c-44 28 -89.667 42 -137 42c-52.667 0 -95.5 -17 -128.5 -51
s-49.5 -76.333 -49.5 -127s16.833 -92 50.5 -124s77.167 -48 130.5 -48c54 0 101.333 16 142 48zM447.001 727l-110 -164h-68l77 164h101z" />
    <glyph glyph-name="Ccircumflex" unicode="&#x108;" horiz-adv-x="681" 
d="M41 360c0 105.333 35 194.165 105 266.498s160.667 108.5 272 108.5c75.333 0 143.333 -17 204 -51v-104c-60 44.667 -128.333 67 -205 67c-82 0 -149.333 -27.167 -202 -81.5s-79 -122.166 -79 -203.499s26.833 -149.166 80.5 -203.499s123.167 -81.5 208.5 -81.5
c78.667 0 148 24.333 208 73v-105c-58.667 -37.333 -129.667 -56 -213 -56c-109.333 0 -199.833 35.167 -271.5 105.5s-107.5 158.833 -107.5 265.5zM229 794.999l113 164h96l113 -164h-75l-86 105l-86 -105h-75z" />
    <glyph glyph-name="ccircumflex" unicode="&#x109;" horiz-adv-x="510" 
d="M459 119l0.000976562 -96c-41.333 -22.667 -90.333 -34 -147 -34c-78 0 -142 24 -192 72s-75 108.667 -75 182c0 75.333 26.167 137.5 78.5 186.5s117.166 73.5 194.499 73.5c48.667 0 93 -10.333 133 -31v-93c-44 28 -89.667 42 -137 42c-52.667 0 -95.5 -17 -128.5 -51
s-49.5 -76.333 -49.5 -127s16.833 -92 50.5 -124s77.167 -48 130.5 -48c54 0 101.333 16 142 48zM130.001 563l113 164h96l113 -164h-75l-86 105l-86 -105h-75z" />
    <glyph glyph-name="Cdotaccent" unicode="&#x10a;" horiz-adv-x="681" 
d="M41 360c0 105.333 35 194.165 105 266.498s160.667 108.5 272 108.5c75.333 0 143.333 -17 204 -51v-104c-60 44.667 -128.333 67 -205 67c-82 0 -149.333 -27.167 -202 -81.5s-79 -122.166 -79 -203.499s26.833 -149.166 80.5 -203.499s123.167 -81.5 208.5 -81.5
c78.667 0 148 24.333 208 73v-105c-58.667 -37.333 -129.667 -56 -213 -56c-109.333 0 -199.833 35.167 -271.5 105.5s-107.5 158.833 -107.5 265.5zM391 821.999c-15.333 0 -28.333 5.33301 -39 16s-16 23.667 -16 39s5.33301 28.333 16 39s23.667 16 39 16
s28.333 -5.33301 39 -16s16 -23.667 16 -39s-5.33301 -28.333 -16 -39s-23.667 -16 -39 -16z" />
    <glyph glyph-name="cdotaccent" unicode="&#x10b;" horiz-adv-x="510" 
d="M459 119l0.000976562 -96c-41.333 -22.667 -90.333 -34 -147 -34c-78 0 -142 24 -192 72s-75 108.667 -75 182c0 75.333 26.167 137.5 78.5 186.5s117.166 73.5 194.499 73.5c48.667 0 93 -10.333 133 -31v-93c-44 28 -89.667 42 -137 42c-52.667 0 -95.5 -17 -128.5 -51
s-49.5 -76.333 -49.5 -127s16.833 -92 50.5 -124s77.167 -48 130.5 -48c54 0 101.333 16 142 48zM292.001 590c-15.333 0 -28.333 5.33301 -39 16s-16 23.667 -16 39s5.33301 28.333 16 39s23.667 16 39 16s28.333 -5.33301 39 -16s16 -23.667 16 -39
s-5.33301 -28.333 -16 -39s-23.667 -16 -39 -16z" />
    <glyph glyph-name="Ccaron" unicode="&#x10c;" horiz-adv-x="681" 
d="M41 360c0 105.333 35 194.165 105 266.498s160.667 108.5 272 108.5c75.333 0 143.333 -17 204 -51v-104c-60 44.667 -128.333 67 -205 67c-82 0 -149.333 -27.167 -202 -81.5s-79 -122.166 -79 -203.499s26.833 -149.166 80.5 -203.499s123.167 -81.5 208.5 -81.5
c78.667 0 148 24.333 208 73v-105c-58.667 -37.333 -129.667 -56 -213 -56c-109.333 0 -199.833 35.167 -271.5 105.5s-107.5 158.833 -107.5 265.5zM551 958.999l-113 -164h-96l-113 164h75l86 -105l86 105h75z" />
    <glyph glyph-name="ccaron" unicode="&#x10d;" horiz-adv-x="510" 
d="M459 119l0.000976562 -96c-41.333 -22.667 -90.333 -34 -147 -34c-78 0 -142 24 -192 72s-75 108.667 -75 182c0 75.333 26.167 137.5 78.5 186.5s117.166 73.5 194.499 73.5c48.667 0 93 -10.333 133 -31v-93c-44 28 -89.667 42 -137 42c-52.667 0 -95.5 -17 -128.5 -51
s-49.5 -76.333 -49.5 -127s16.833 -92 50.5 -124s77.167 -48 130.5 -48c54 0 101.333 16 142 48zM452.001 727l-113 -164h-96l-113 164h75l86 -105l86 105h75z" />
    <glyph glyph-name="Dcaron" unicode="&#x10e;" horiz-adv-x="735" 
d="M81 0l0.000976562 724h199c105.333 0 190.666 -19.667 255.999 -59c51.333 -31.333 91.166 -73.333 119.499 -126s42.5 -110.667 42.5 -174c0 -60 -12.5 -115.5 -37.5 -166.5s-60.5 -92.833 -106.5 -125.5c-69.333 -48.667 -168.666 -73 -297.999 -73h-175zM176.001 86
h95.001c93.333 0 165 16 215 48c35.333 22.667 63.666 54 84.999 94s32 84.667 32 134c0 50 -10.667 94.5 -32 133.5s-49.333 69.833 -84 92.5c-50 33.333 -122.667 50 -218 50h-93v-552zM498.002 959l-113 -164h-96l-113 164h75l86 -105l86 105h75z" />
    <glyph glyph-name="dcaron" unicode="&#x10f;" horiz-adv-x="692" 
d="M47 238c0 76 24.333 139.167 73 189.5s111.334 75.5 188.001 75.5c39.333 0 78.666 -8.66699 117.999 -26l2 1v286h90v-764h-90v30l-2 1c-40 -28 -86 -42 -138 -42c-68 0 -125.167 23 -171.5 69s-69.5 106 -69.5 180zM138 243c0 -50 14.667 -91.5 44 -124.5
s68.666 -49.5 117.999 -49.5c44.667 0 87.334 14 128.001 42v281c-40 20.667 -80.333 31 -121 31c-50.667 0 -91.5 -17 -122.5 -51s-46.5 -77 -46.5 -129zM632 764h88l-76 -218h-65z" />
    <glyph glyph-name="Dcroat" unicode="&#x110;" horiz-adv-x="746" 
d="M3 330l0.000976562 78h89v316h199c105.333 0 190.666 -19.667 255.999 -59c51.333 -31.333 91.166 -73.333 119.499 -126s42.5 -110.667 42.5 -174c0 -60 -12.5 -115.5 -37.5 -166.5s-60.5 -92.833 -106.5 -125.5c-69.333 -48.667 -168.666 -73 -297.999 -73h-175v330
h-89zM187.001 86h95.001c93.333 0 165 16 215 48c35.333 22.667 63.666 54 84.999 94s32 84.667 32 134c0 50 -10.667 94.5 -32 133.5s-49.333 69.833 -84 92.5c-50 33.333 -122.667 50 -218 50h-93v-230h156v-78h-156v-244z" />
    <glyph glyph-name="dcroat" unicode="&#x111;" horiz-adv-x="597" 
d="M256 587v73h172v104h90v-104h69v-73h-69v-587h-90v30l-2 1c-40 -28 -86 -42 -138 -42c-68 0 -125.167 23 -171.5 69s-69.5 106 -69.5 180c0 76 24.333 139.167 73 189.5s111.334 75.5 188.001 75.5c39.333 0 78.666 -8.66699 117.999 -26l2 1v109h-172zM138 243
c0 -50 14.667 -91.5 44 -124.5s68.666 -49.5 117.999 -49.5c44.667 0 87.334 14 128.001 42v281c-40 20.667 -80.333 31 -121 31c-50.667 0 -91.5 -17 -122.5 -51s-46.5 -77 -46.5 -129z" />
    <glyph glyph-name="Emacron" unicode="&#x112;" horiz-adv-x="551" 
d="M81 0v724h418v-86h-323v-220h283v-83h-283v-249h332v-86h-427zM152 843v68h274v-68h-274z" />
    <glyph glyph-name="emacron" unicode="&#x113;" horiz-adv-x="563" 
d="M511 220l-376.001 -0.000976562c6.66699 -47.333 26.334 -84.166 59.001 -110.499s73.667 -39.5 123 -39.5c59.333 0 116 20.333 170 61v-96c-48 -30.667 -106.667 -46 -176 -46c-77.333 0 -141 23.667 -191 71s-75 109.333 -75 186c0 75.333 23.833 137 71.5 185
s105.5 72 173.5 72c63.333 0 116.5 -21.167 159.5 -63.5s64.5 -100.5 64.5 -174.5c0 -18 -1 -33 -3 -45zM287.999 421.999c-35.333 0 -67.501 -11.167 -96.501 -33.5s-47.167 -54.833 -54.5 -97.5h290c-3.33301 44.667 -18.666 77.667 -45.999 99s-58.333 32 -93 32z
M146.998 610.999v68h274v-68h-274z" />
    <glyph glyph-name="Ebreve" unicode="&#x114;" horiz-adv-x="551" 
d="M81 0v724h418v-86h-323v-220h283v-83h-283v-249h332v-86h-427zM289 804c-44 0 -77.833 13.667 -101.5 41s-36.167 63 -37.5 107h58c5.33301 -61.333 32.333 -92 81 -92s75.667 30.667 81 92h58c-1.33301 -44 -13.833 -79.667 -37.5 -107s-57.5 -41 -101.5 -41z" />
    <glyph glyph-name="ebreve" unicode="&#x115;" horiz-adv-x="563" 
d="M511 220l-376.001 -0.000976562c6.66699 -47.333 26.334 -84.166 59.001 -110.499s73.667 -39.5 123 -39.5c59.333 0 116 20.333 170 61v-96c-48 -30.667 -106.667 -46 -176 -46c-77.333 0 -141 23.667 -191 71s-75 109.333 -75 186c0 75.333 23.833 137 71.5 185
s105.5 72 173.5 72c63.333 0 116.5 -21.167 159.5 -63.5s64.5 -100.5 64.5 -174.5c0 -18 -1 -33 -3 -45zM287.999 421.999c-35.333 0 -67.501 -11.167 -96.501 -33.5s-47.167 -54.833 -54.5 -97.5h290c-3.33301 44.667 -18.666 77.667 -45.999 99s-58.333 32 -93 32z
M283.998 571.999c-44 0 -77.833 13.667 -101.5 41s-36.167 63 -37.5 107h58c5.33301 -61.333 32.333 -92 81 -92s75.667 30.667 81 92h58c-1.33301 -44 -13.833 -79.667 -37.5 -107s-57.5 -41 -101.5 -41z" />
    <glyph glyph-name="Edotaccent" unicode="&#x116;" horiz-adv-x="551" 
d="M81 0v724h418v-86h-323v-220h283v-83h-283v-249h332v-86h-427zM290 822c-15.333 0 -28.333 5.33301 -39 16s-16 23.667 -16 39s5.33301 28.333 16 39s23.667 16 39 16s28.333 -5.33301 39 -16s16 -23.667 16 -39s-5.33301 -28.333 -16 -39s-23.667 -16 -39 -16z" />
    <glyph glyph-name="edotaccent" unicode="&#x117;" horiz-adv-x="563" 
d="M511 220l-376.001 -0.000976562c6.66699 -47.333 26.334 -84.166 59.001 -110.499s73.667 -39.5 123 -39.5c59.333 0 116 20.333 170 61v-96c-48 -30.667 -106.667 -46 -176 -46c-77.333 0 -141 23.667 -191 71s-75 109.333 -75 186c0 75.333 23.833 137 71.5 185
s105.5 72 173.5 72c63.333 0 116.5 -21.167 159.5 -63.5s64.5 -100.5 64.5 -174.5c0 -18 -1 -33 -3 -45zM287.999 421.999c-35.333 0 -67.501 -11.167 -96.501 -33.5s-47.167 -54.833 -54.5 -97.5h290c-3.33301 44.667 -18.666 77.667 -45.999 99s-58.333 32 -93 32z
M284.998 589.999c-15.333 0 -28.333 5.33301 -39 16s-16 23.667 -16 39s5.33301 28.333 16 39s23.667 16 39 16s28.333 -5.33301 39 -16s16 -23.667 16 -39s-5.33301 -28.333 -16 -39s-23.667 -16 -39 -16z" />
    <glyph glyph-name="Eogonek" unicode="&#x118;" horiz-adv-x="551" 
d="M81 0v723.997h418v-86h-323v-220h283v-83h-283v-249h332v-86c-28 -13.333 -50.333 -31.166 -67 -53.499s-25 -44.166 -25 -65.499c0 -14.667 4.5 -26.5 13.5 -35.5s21.5 -13.5 37.5 -13.5c13.333 0 27 2 41 6v-60c-19.333 -6 -38 -9 -56 -9
c-34 0 -61.167 9.33301 -81.5 28s-30.5 42.334 -30.5 71.001c0 48.667 23.667 92 71 130l-1 2h-329z" />
    <glyph glyph-name="eogonek" unicode="&#x119;" horiz-adv-x="563" 
d="M511 220l-376.002 -0.000976562c6.66699 -47.333 26.334 -84.166 59.001 -110.499s73.667 -39.5 123 -39.5c59.333 0 116 20.333 170 61v-96c-82.667 -51.333 -124 -102.333 -124 -153c0 -34 17.333 -51 52 -51c10.667 0 23.334 1.66699 38.001 5v-60
c-20 -5.33301 -38 -8 -54 -8c-34 0 -61.167 9.16699 -81.5 27.5s-30.5 42.5 -30.5 72.5c0 41.333 17.667 81.333 53 120l-1 2c-6 -0.666992 -15.333 -1 -28 -1c-77.333 0 -141 23.667 -191 71s-75 109.333 -75 186c0 75.333 23.833 137 71.5 185s105.5 72 173.5 72
c63.333 0 116.5 -21.167 159.5 -63.5s64.5 -100.5 64.5 -174.5c0 -18 -1 -33 -3 -45zM287.998 421.999c-35.333 0 -67.501 -11.167 -96.501 -33.5s-47.167 -54.833 -54.5 -97.5h290c-3.33301 44.667 -18.666 77.667 -45.999 99s-58.333 32 -93 32z" />
    <glyph glyph-name="Ecaron" unicode="&#x11a;" horiz-adv-x="551" 
d="M81 0v724h418v-86h-323v-220h283v-83h-283v-249h332v-86h-427zM450 959l-113 -164h-96l-113 164h75l86 -105l86 105h75z" />
    <glyph glyph-name="ecaron" unicode="&#x11b;" horiz-adv-x="563" 
d="M511 220l-376.001 -0.000976562c6.66699 -47.333 26.334 -84.166 59.001 -110.499s73.667 -39.5 123 -39.5c59.333 0 116 20.333 170 61v-96c-48 -30.667 -106.667 -46 -176 -46c-77.333 0 -141 23.667 -191 71s-75 109.333 -75 186c0 75.333 23.833 137 71.5 185
s105.5 72 173.5 72c63.333 0 116.5 -21.167 159.5 -63.5s64.5 -100.5 64.5 -174.5c0 -18 -1 -33 -3 -45zM287.999 421.999c-35.333 0 -67.501 -11.167 -96.501 -33.5s-47.167 -54.833 -54.5 -97.5h290c-3.33301 44.667 -18.666 77.667 -45.999 99s-58.333 32 -93 32z
M444.998 726.999l-113 -164h-96l-113 164h75l86 -105l86 105h75z" />
    <glyph glyph-name="Gcircumflex" unicode="&#x11c;" horiz-adv-x="735" 
d="M41 360c0 107.333 35.8359 196.668 107.503 268.001s163.167 107 274.5 107c83.333 0 157.333 -20 222 -60v-108c-64.667 53.333 -139.334 80 -224.001 80c-84 0 -152.5 -27.333 -205.5 -82s-79.5 -122.334 -79.5 -203.001c0 -80 26.167 -147.833 78.5 -203.5
s122.166 -83.5 209.499 -83.5c55.333 0 104.666 11.333 147.999 34v169h-162v83h257v-299c-70.667 -48.667 -154.334 -73 -251.001 -73c-107.333 0 -196.666 35 -267.999 105s-107 158.667 -107 266zM244.003 795.002l113 164h96l113 -164h-75l-86 105l-86 -105h-75z" />
    <glyph glyph-name="gcircumflex" unicode="&#x11d;" horiz-adv-x="595" 
d="M112 -194v96.001c51.333 -34 103.333 -51 156 -51c47.333 0 85.333 13.333 114 40s43 63 43 109v36l-2 1c-37.333 -25.333 -82 -38 -134 -38c-68 0 -125.167 23.167 -171.5 69.5s-69.5 105.166 -69.5 176.499c0 72 23.167 133 69.5 183s108.166 75 185.499 75
c44.667 0 86.334 -9.33301 125.001 -28l87 15v-488c0 -72 -22.167 -128.833 -66.5 -170.5s-104.5 -62.5 -180.5 -62.5c-56 0 -108 12.333 -156 37zM139 251.001c0 -50 15.168 -91.333 45.501 -124s69.5 -49 117.5 -49c48.667 0 89.667 13.333 123 40v271
c-36.667 22.667 -78 34 -124 34c-48.667 0 -87.834 -16.333 -117.501 -49s-44.5 -73.667 -44.5 -123zM146.001 563.001l113 164h96l113 -164h-75l-86 105l-86 -105h-75z" />
    <glyph glyph-name="Gbreve" unicode="&#x11e;" horiz-adv-x="735" 
d="M41 360c0 107.333 35.8359 196.668 107.503 268.001s163.167 107 274.5 107c83.333 0 157.333 -20 222 -60v-108c-64.667 53.333 -139.334 80 -224.001 80c-84 0 -152.5 -27.333 -205.5 -82s-79.5 -122.334 -79.5 -203.001c0 -80 26.167 -147.833 78.5 -203.5
s122.166 -83.5 209.499 -83.5c55.333 0 104.666 11.333 147.999 34v169h-162v83h257v-299c-70.667 -48.667 -154.334 -73 -251.001 -73c-107.333 0 -196.666 35 -267.999 105s-107 158.667 -107 266zM405.003 804.002c-44 0 -77.833 13.667 -101.5 41s-36.167 63 -37.5 107
h58c5.33301 -61.333 32.333 -92 81 -92s75.667 30.667 81 92h58c-1.33301 -44 -13.833 -79.667 -37.5 -107s-57.5 -41 -101.5 -41z" />
    <glyph glyph-name="gbreve" unicode="&#x11f;" horiz-adv-x="595" 
d="M112 -194v96.001c51.333 -34 103.333 -51 156 -51c47.333 0 85.333 13.333 114 40s43 63 43 109v36l-2 1c-37.333 -25.333 -82 -38 -134 -38c-68 0 -125.167 23.167 -171.5 69.5s-69.5 105.166 -69.5 176.499c0 72 23.167 133 69.5 183s108.166 75 185.499 75
c44.667 0 86.334 -9.33301 125.001 -28l87 15v-488c0 -72 -22.167 -128.833 -66.5 -170.5s-104.5 -62.5 -180.5 -62.5c-56 0 -108 12.333 -156 37zM139 251.001c0 -50 15.168 -91.333 45.501 -124s69.5 -49 117.5 -49c48.667 0 89.667 13.333 123 40v271
c-36.667 22.667 -78 34 -124 34c-48.667 0 -87.834 -16.333 -117.501 -49s-44.5 -73.667 -44.5 -123zM307.001 572.001c-44 0 -77.833 13.667 -101.5 41s-36.167 63 -37.5 107h58c5.33301 -61.333 32.333 -92 81 -92s75.667 30.667 81 92h58
c-1.33301 -44 -13.833 -79.667 -37.5 -107s-57.5 -41 -101.5 -41z" />
    <glyph glyph-name="Gdotaccent" unicode="&#x120;" horiz-adv-x="735" 
d="M41 360c0 107.333 35.8359 196.668 107.503 268.001s163.167 107 274.5 107c83.333 0 157.333 -20 222 -60v-108c-64.667 53.333 -139.334 80 -224.001 80c-84 0 -152.5 -27.333 -205.5 -82s-79.5 -122.334 -79.5 -203.001c0 -80 26.167 -147.833 78.5 -203.5
s122.166 -83.5 209.499 -83.5c55.333 0 104.666 11.333 147.999 34v169h-162v83h257v-299c-70.667 -48.667 -154.334 -73 -251.001 -73c-107.333 0 -196.666 35 -267.999 105s-107 158.667 -107 266zM406.003 822.002c-15.333 0 -28.333 5.33301 -39 16s-16 23.667 -16 39
s5.33301 28.333 16 39s23.667 16 39 16s28.333 -5.33301 39 -16s16 -23.667 16 -39s-5.33301 -28.333 -16 -39s-23.667 -16 -39 -16z" />
    <glyph glyph-name="gdotaccent" unicode="&#x121;" horiz-adv-x="595" 
d="M112 -194v96.001c51.333 -34 103.333 -51 156 -51c47.333 0 85.333 13.333 114 40s43 63 43 109v36l-2 1c-37.333 -25.333 -82 -38 -134 -38c-68 0 -125.167 23.167 -171.5 69.5s-69.5 105.166 -69.5 176.499c0 72 23.167 133 69.5 183s108.166 75 185.499 75
c44.667 0 86.334 -9.33301 125.001 -28l87 15v-488c0 -72 -22.167 -128.833 -66.5 -170.5s-104.5 -62.5 -180.5 -62.5c-56 0 -108 12.333 -156 37zM139 251.001c0 -50 15.168 -91.333 45.501 -124s69.5 -49 117.5 -49c48.667 0 89.667 13.333 123 40v271
c-36.667 22.667 -78 34 -124 34c-48.667 0 -87.834 -16.333 -117.501 -49s-44.5 -73.667 -44.5 -123zM308.001 590.001c-15.333 0 -28.333 5.33301 -39 16s-16 23.667 -16 39s5.33301 28.333 16 39s23.667 16 39 16s28.333 -5.33301 39 -16s16 -23.667 16 -39
s-5.33301 -28.333 -16 -39s-23.667 -16 -39 -16z" />
    <glyph glyph-name="Gcommaaccent" unicode="&#x122;" horiz-adv-x="735" 
d="M41 360c0 107.333 35.8359 196.668 107.503 268.001s163.167 107 274.5 107c83.333 0 157.333 -20 222 -60v-108c-64.667 53.333 -139.334 80 -224.001 80c-84 0 -152.5 -27.333 -205.5 -82s-79.5 -122.334 -79.5 -203.001c0 -80 26.167 -147.833 78.5 -203.5
s122.166 -83.5 209.499 -83.5c55.333 0 104.666 11.333 147.999 34v169h-162v83h257v-299c-70.667 -48.667 -154.334 -73 -251.001 -73c-107.333 0 -196.666 35 -267.999 105s-107 158.667 -107 266zM387.003 -53.998h88l-76 -218h-65z" />
    <glyph glyph-name="gcommaaccent" unicode="&#x123;" horiz-adv-x="595" 
d="M112 -194v96.001c51.333 -34 103.333 -51 156 -51c47.333 0 85.333 13.333 114 40s43 63 43 109v36l-2 1c-37.333 -25.333 -82 -38 -134 -38c-68 0 -125.167 23.167 -171.5 69.5s-69.5 105.166 -69.5 176.499c0 72 23.167 133 69.5 183s108.166 75 185.499 75
c44.667 0 86.334 -9.33301 125.001 -28l87 15v-488c0 -72 -22.167 -128.833 -66.5 -170.5s-104.5 -62.5 -180.5 -62.5c-56 0 -108 12.333 -156 37zM139 251.001c0 -50 15.168 -91.333 45.501 -124s69.5 -49 117.5 -49c48.667 0 89.667 13.333 123 40v271
c-36.667 22.667 -78 34 -124 34c-48.667 0 -87.834 -16.333 -117.501 -49s-44.5 -73.667 -44.5 -123zM236.001 556.001l76 218h65l-53 -218h-88z" />
    <glyph glyph-name="Hcircumflex" unicode="&#x124;" horiz-adv-x="746" 
d="M81 0v724h95v-305h394v305h95v-724h-95v333h-394v-333h-95zM212 795l113 164h96l113 -164h-75l-86 105l-86 -105h-75z" />
    <glyph glyph-name="hcircumflex" unicode="&#x125;" horiz-adv-x="592" 
d="M79 0v763.999h90v-334l2 -1c49.333 49.333 106.666 74 171.999 74c55.333 0 99 -18 131 -54c27.333 -31.333 41 -79.666 41 -144.999v-304h-90v287c0 48.667 -8 82 -24 100c-18.667 21.333 -43.667 32 -75 32c-28.667 0 -57.167 -7.66699 -85.5 -23
s-52.166 -35 -71.499 -59v-337h-90zM-37 825.999l113 164h96l113 -164h-75l-86 105l-86 -105h-75z" />
    <glyph glyph-name="Hbar" unicode="&#x126;" horiz-adv-x="754" 
d="M6 532v78h79v114h95v-114h394v114h95v-114h79v-78h-79v-532h-95v333h-394v-333h-95v532h-79zM180 419h394v113h-394v-113z" />
    <glyph glyph-name="hbar" unicode="&#x127;" horiz-adv-x="592" 
d="M10 587v72.999h69v104h90v-104h172v-73h-172v-157l2 -1c49.333 49.333 106.666 74 171.999 74c55.333 0 99 -18 131 -54c27.333 -31.333 41 -79.666 41 -144.999v-304h-90v287c0 48.667 -8 82 -24 100c-18.667 21.333 -43.667 32 -75 32
c-28.667 0 -57.167 -7.66699 -85.5 -23s-52.166 -35 -71.499 -59v-337h-90v587h-69z" />
    <glyph glyph-name="Itilde" unicode="&#x128;" horiz-adv-x="257" 
d="M81 0v724h95v-724h-95zM121 842c-30.667 15.333 -53 23 -67 23c-26 0 -53 -16 -81 -48l-2 1v78c20.667 28.667 48.334 43 83.001 43c22 0 49 -8 81 -24c30.667 -15.333 53 -23 67 -23c26 0 53 16 81 48l2 -1v-78c-20.667 -28.667 -48.334 -43 -83.001 -43
c-22 0 -49 8 -81 24z" />
    <glyph glyph-name="itilde" unicode="&#x129;" horiz-adv-x="248" 
d="M79 0v492h90v-492h-90zM117 610c-30.667 15.333 -53 23 -67 23c-26 0 -53 -16 -81 -48l-2 1v78c20.667 28.667 48.334 43 83.001 43c22 0 49 -8 81 -24c30.667 -15.333 53 -23 67 -23c26 0 53 16 81 48l2 -1v-78c-20.667 -28.667 -48.334 -43 -83.001 -43
c-22 0 -49 8 -81 24z" />
    <glyph glyph-name="Imacron" unicode="&#x12a;" horiz-adv-x="257" 
d="M81 0v724h95v-724h-95zM-9 843v68h274v-68h-274z" />
    <glyph glyph-name="imacron" unicode="&#x12b;" horiz-adv-x="248" 
d="M79 0v492h90v-492h-90zM-13 611v68h274v-68h-274z" />
    <glyph glyph-name="Ibreve" unicode="&#x12c;" horiz-adv-x="257" 
d="M81 0v724h95v-724h-95zM128 804c-44 0 -77.833 13.667 -101.5 41s-36.167 63 -37.5 107h58c5.33301 -61.333 32.333 -92 81 -92s75.667 30.667 81 92h58c-1.33301 -44 -13.833 -79.667 -37.5 -107s-57.5 -41 -101.5 -41z" />
    <glyph glyph-name="ibreve" unicode="&#x12d;" horiz-adv-x="248" 
d="M79 0v492h90v-492h-90zM124 572c-44 0 -77.833 13.667 -101.5 41s-36.167 63 -37.5 107h58c5.33301 -61.333 32.333 -92 81 -92s75.667 30.667 81 92h58c-1.33301 -44 -13.833 -79.667 -37.5 -107s-57.5 -41 -101.5 -41z" />
    <glyph glyph-name="Iogonek" unicode="&#x12e;" horiz-adv-x="257" 
d="M138 -231c-34 0 -61.167 9.66699 -81.5 29s-30.5 44.333 -30.5 75c0 42 18.333 84.333 55 127v724h95v-724c-23.333 -17.333 -41.5 -36.5 -54.5 -57.5s-19.5 -40.833 -19.5 -59.5c0 -34 17 -51 51 -51c12 0 25.333 1.66699 40 5v-60c-16 -5.33301 -34.333 -8 -55 -8z" />
    <glyph glyph-name="iogonek" unicode="&#x12f;" horiz-adv-x="248" 
d="M79 0l-0.000976562 492h90v-492c-46 -38.667 -69 -77.667 -69 -117c0 -34 17.333 -51 52 -51c10.667 0 23.334 1.66699 38.001 5v-60c-20 -5.33301 -37.667 -8 -53 -8c-34.667 0 -62.167 9.66699 -82.5 29s-30.5 44.333 -30.5 75c0 40.667 18.333 83 55 127zM60.999 661
c0 17.333 6.16699 32.166 18.5 44.499s27.166 18.5 44.499 18.5s32.166 -6.16699 44.499 -18.5s18.5 -27.166 18.5 -44.499s-6.16699 -32.166 -18.5 -44.499s-27.166 -18.5 -44.499 -18.5s-32.166 6.16699 -44.499 18.5s-18.5 27.166 -18.5 44.499z" />
    <glyph glyph-name="Idotaccent" unicode="&#x130;" horiz-adv-x="257" 
d="M81 0v724h95v-724h-95zM129 822c-15.333 0 -28.333 5.33301 -39 16s-16 23.667 -16 39s5.33301 28.333 16 39s23.667 16 39 16s28.333 -5.33301 39 -16s16 -23.667 16 -39s-5.33301 -28.333 -16 -39s-23.667 -16 -39 -16z" />
    <glyph glyph-name="dotlessi" unicode="&#x131;" horiz-adv-x="248" 
d="M79 0v492h90v-492h-90z" />
    <glyph glyph-name="IJ" unicode="&#x132;" horiz-adv-x="655" 
d="M81 0v724h95v-724h-95zM286 10v90c36.667 -15.333 71 -23 103 -23c36 0 60 10.5 72 31.5s18 53.167 18 96.5v519h95v-514c0 -76 -12.667 -129.667 -38 -161c-32.667 -40 -81 -60 -145 -60c-32 0 -67 7 -105 21z" />
    <glyph glyph-name="ij" unicode="&#x133;" horiz-adv-x="497" 
d="M61 661c0 17.333 6.16699 32.166 18.5 44.499s27.166 18.5 44.499 18.5s32.166 -6.16699 44.499 -18.5s18.5 -27.166 18.5 -44.499s-6.16699 -32.166 -18.5 -44.499s-27.166 -18.5 -44.499 -18.5s-32.166 6.16699 -44.499 18.5s-18.5 27.166 -18.5 44.499zM79 0v492h90
v-492h-90zM310 661c0 17.333 6.16699 32.166 18.5 44.499s27.166 18.5 44.499 18.5s32.166 -6.16699 44.499 -18.5s18.5 -27.166 18.5 -44.499s-6.16699 -32.166 -18.5 -44.499s-27.166 -18.5 -44.499 -18.5s-32.166 6.16699 -44.499 18.5s-18.5 27.166 -18.5 44.499z
M328 -55v547h90v-543c0 -62.667 -11.333 -107 -34 -133c-26.667 -31.333 -67 -47 -121 -47c-21.333 0 -41 2.66699 -59 8v81c22 -4.66699 40.667 -7 56 -7c26.667 0 44.667 7.83301 54 23.5s14 39.167 14 70.5z" />
    <glyph glyph-name="Jcircumflex" unicode="&#x134;" horiz-adv-x="398" 
d="M29 10v90c36.667 -15.333 71 -23 103 -23c36 0 60 10.5 72 31.5s18 53.167 18 96.5v519h95v-514c0 -76 -12.667 -129.667 -38 -161c-32.667 -40 -81 -60 -145 -60c-32 0 -67 7 -105 21zM108 795l113 164h96l113 -164h-75l-86 105l-86 -105h-75z" />
    <glyph glyph-name="jcircumflex" unicode="&#x135;" horiz-adv-x="249" 
d="M80 -55v547h90v-543c0 -62.667 -11.333 -107 -34 -133c-26.667 -31.333 -67 -47 -121 -47c-21.333 0 -41 2.66699 -59 8v81c22 -4.66699 40.667 -7 56 -7c26.667 0 44.667 7.83301 54 23.5s14 39.167 14 70.5zM-34 563l113 164h96l113 -164h-75l-86 105l-86 -105h-75z
" />
    <glyph glyph-name="Kcommaaccent" unicode="&#x136;" horiz-adv-x="627" 
d="M81 0v724h95v-328l2 -1l316 329h118l-325 -336l353 -388h-124l-338 374l-2 -1v-373h-95zM295 -54h88l-76 -218h-65z" />
    <glyph glyph-name="kcommaaccent" unicode="&#x137;" horiz-adv-x="528" 
d="M79 0v764h90v-488l2 -1l220 217h115l-225 -220l249 -272h-118l-241 267l-2 -1v-266h-90zM246 -54h88l-76 -218h-65z" />
    <glyph glyph-name="kgreenlandic" unicode="&#x138;" horiz-adv-x="528" 
d="M79 0v492h90v-216l2 -1l220 217h115l-225 -220l249 -272h-118l-241 267l-2 -1v-266h-90z" />
    <glyph glyph-name="Lacute" unicode="&#x139;" horiz-adv-x="547" 
d="M81 0v724h95v-638h342v-86h-437zM274 959l-110 -164h-68l77 164h101z" />
    <glyph glyph-name="lacute" unicode="&#x13a;" horiz-adv-x="248" 
d="M79 0v764h90v-764h-90zM251 990l-110 -164h-68l77 164h101z" />
    <glyph glyph-name="Lcommaaccent" unicode="&#x13b;" horiz-adv-x="547" 
d="M81 0v724h95v-638h342v-86h-437zM275 -54h88l-76 -218h-65z" />
    <glyph glyph-name="lcommaaccent" unicode="&#x13c;" horiz-adv-x="248" 
d="M79 0v764h90v-764h-90zM106 -54h88l-76 -218h-65z" />
    <glyph glyph-name="Lcaron" unicode="&#x13d;" horiz-adv-x="547" 
d="M81 0v724h95v-638h342v-86h-437zM276 511l55 269h88l-82 -269h-61z" />
    <glyph glyph-name="lcaron" unicode="&#x13e;" horiz-adv-x="343" 
d="M79 0v764h90v-764h-90zM283 764h88l-76 -218h-65z" />
    <glyph glyph-name="Ldot" unicode="&#x13f;" horiz-adv-x="547" 
d="M81 0v724h95v-638h342v-86h-437zM337 390c0 18 6.5 33.5 19.5 46.5s28.5 19.5 46.5 19.5s33.5 -6.5 46.5 -19.5s19.5 -28.5 19.5 -46.5s-6.5 -33.5 -19.5 -46.5s-28.5 -19.5 -46.5 -19.5s-33.5 6.5 -46.5 19.5s-19.5 28.5 -19.5 46.5z" />
    <glyph glyph-name="ldot" unicode="&#x140;" horiz-adv-x="350" 
d="M79 0v764h90v-764h-90zM297 271c-15.333 0 -28.333 5.33301 -39 16s-16 23.667 -16 39s5.33301 28.333 16 39s23.667 16 39 16s28.333 -5.33301 39 -16s16 -23.667 16 -39s-5.33301 -28.333 -16 -39s-23.667 -16 -39 -16z" />
    <glyph glyph-name="Lslash" unicode="&#x141;" horiz-adv-x="550" 
d="M84 0v275l-93 -63v89l93 63v360h95v-297l127 86v-89l-127 -86v-252h342v-86h-437z" />
    <glyph glyph-name="lslash" unicode="&#x142;" horiz-adv-x="260" 
d="M85 0v294l-83 -56v87l83 56v383h90v-322l83 56v-87l-83 -56v-355h-90z" />
    <glyph glyph-name="Nacute" unicode="&#x143;" horiz-adv-x="772" 
d="M173 0h-92v724h90l303 -402l125 -169l2 1c-1.33301 84 -2 152.667 -2 206v364h92v-724h-90l-303 402l-125 169l-2 -1c1.33301 -84 2 -152.667 2 -206v-364zM506 959l-110 -164h-68l77 164h101z" />
    <glyph glyph-name="nacute" unicode="&#x144;" horiz-adv-x="592" 
d="M79 0l0.000976562 491.999h90v-62l2 -1c49.333 49.333 106.666 74 171.999 74c55.333 0 99 -18 131 -54c27.333 -31.333 41 -79.666 41 -144.999v-304h-90v287c0 48.667 -7.66699 82 -23 100c-18 21.333 -44.333 32 -79 32c-28 0 -56.167 -7.66699 -84.5 -23
s-51.5 -35 -69.5 -59v-337h-90zM416.001 726.999l-110 -164h-68l77 164h101z" />
    <glyph glyph-name="Ncommaaccent" unicode="&#x145;" horiz-adv-x="772" 
d="M173 0h-92v724h90l303 -402l125 -169l2 1c-1.33301 84 -2 152.667 -2 206v364h92v-724h-90l-303 402l-125 169l-2 -1c1.33301 -84 2 -152.667 2 -206v-364zM368 -54h88l-76 -218h-65z" />
    <glyph glyph-name="ncommaaccent" unicode="&#x146;" horiz-adv-x="592" 
d="M79 0l0.000976562 491.999h90v-62l2 -1c49.333 49.333 106.666 74 171.999 74c55.333 0 99 -18 131 -54c27.333 -31.333 41 -79.666 41 -144.999v-304h-90v287c0 48.667 -7.66699 82 -23 100c-18 21.333 -44.333 32 -79 32c-28 0 -56.167 -7.66699 -84.5 -23
s-51.5 -35 -69.5 -59v-337h-90zM278.001 -54.001h88l-76 -218h-65z" />
    <glyph glyph-name="Ncaron" unicode="&#x147;" horiz-adv-x="772" 
d="M173 0h-92v724h90l303 -402l125 -169l2 1c-1.33301 84 -2 152.667 -2 206v364h92v-724h-90l-303 402l-125 169l-2 -1c1.33301 -84 2 -152.667 2 -206v-364zM547 959l-113 -164h-96l-113 164h75l86 -105l86 105h75z" />
    <glyph glyph-name="ncaron" unicode="&#x148;" horiz-adv-x="592" 
d="M79 0l0.000976562 491.999h90v-62l2 -1c49.333 49.333 106.666 74 171.999 74c55.333 0 99 -18 131 -54c27.333 -31.333 41 -79.666 41 -144.999v-304h-90v287c0 48.667 -7.66699 82 -23 100c-18 21.333 -44.333 32 -79 32c-28 0 -56.167 -7.66699 -84.5 -23
s-51.5 -35 -69.5 -59v-337h-90zM457.001 726.999l-113 -164h-96l-113 164h75l86 -105l86 105h75z" />
    <glyph glyph-name="napostrophe" unicode="&#x149;" horiz-adv-x="592" 
d="M79 0l0.000976562 491.999h90v-62l2 -1c49.333 49.333 106.666 74 171.999 74c55.333 0 99 -18 131 -54c27.333 -31.333 41 -79.666 41 -144.999v-304h-90v287c0 48.667 -7.66699 82 -23 100c-18 21.333 -44.333 32 -79 32c-28 0 -56.167 -7.66699 -84.5 -23
s-51.5 -35 -69.5 -59v-337h-90zM118.001 771.999h88l-76 -218h-65z" />
    <glyph glyph-name="Eng" unicode="&#x14a;" horiz-adv-x="772" 
d="M403 -210v90c36.667 -15.333 71 -23 103 -23c36 0 60 10.5 72 31.5s18 53.167 18 96.5v21l-298 396l-125 169l-2 -1c1.33301 -84 2 -152.667 2 -206v-364h-92v724h90l303 -402l125 -169l2 1c-1.33301 84 -2 152.667 -2 206v364h92v-734c0 -76 -12.667 -129.667 -38 -161
c-32.667 -40 -81 -60 -145 -60c-32 0 -67 7 -105 21z" />
    <glyph glyph-name="eng" unicode="&#x14b;" horiz-adv-x="592" 
d="M79 0l0.000976562 491.999h90v-62l2 -1c49.333 49.333 106.666 74 171.999 74c55.333 0 99 -18 131 -54c27.333 -31.333 41 -79.666 41 -144.999v-355c0 -62.667 -11.333 -107 -34 -133c-26.667 -31.333 -67 -47 -121 -47c-21.333 0 -41 2.66699 -59 8v81
c22 -4.66699 40.667 -7 56 -7c26.667 0 44.667 7.83301 54 23.5s14 39.167 14 70.5v342c0 48.667 -7.66699 82 -23 100c-18 21.333 -44.333 32 -79 32c-28 0 -56.167 -7.66699 -84.5 -23s-51.5 -35 -69.5 -59v-337h-90z" />
    <glyph glyph-name="Omacron" unicode="&#x14c;" horiz-adv-x="816" 
d="M40 362c0 105.333 35.167 193.833 105.5 265.5s157.833 107.5 262.5 107.5s192.167 -35.833 262.5 -107.5s105.5 -160.167 105.5 -265.5s-35.167 -193.833 -105.5 -265.5s-157.833 -107.5 -262.5 -107.5s-192.167 35.833 -262.5 107.5s-105.5 160.167 -105.5 265.5z
M135 362c0 -80 25.833 -147.5 77.5 -202.5s116.834 -82.5 195.501 -82.5s143.834 27.5 195.501 82.5s77.5 122.5 77.5 202.5s-25.833 147.5 -77.5 202.5s-116.834 82.5 -195.501 82.5s-143.834 -27.5 -195.501 -82.5s-77.5 -122.5 -77.5 -202.5zM271 843v68h274v-68h-274z
" />
    <glyph glyph-name="omacron" unicode="&#x14d;" horiz-adv-x="610" 
d="M45 246c0 72.667 24.833 133.667 74.5 183s111.5 74 185.5 74s135.833 -24.667 185.5 -74s74.5 -110.333 74.5 -183s-24.833 -133.667 -74.5 -183s-111.5 -74 -185.5 -74s-135.833 24.667 -185.5 74s-74.5 110.333 -74.5 183zM135 246c0 -50 16.167 -91.667 48.5 -125
s72.833 -50 121.5 -50s89.167 16.667 121.5 50s48.5 75 48.5 125s-16.167 91.667 -48.5 125s-72.833 50 -121.5 50s-89.167 -16.667 -121.5 -50s-48.5 -75 -48.5 -125zM168 611v68h274v-68h-274z" />
    <glyph glyph-name="Obreve" unicode="&#x14e;" horiz-adv-x="816" 
d="M40 362c0 105.333 35.167 193.833 105.5 265.5s157.833 107.5 262.5 107.5s192.167 -35.833 262.5 -107.5s105.5 -160.167 105.5 -265.5s-35.167 -193.833 -105.5 -265.5s-157.833 -107.5 -262.5 -107.5s-192.167 35.833 -262.5 107.5s-105.5 160.167 -105.5 265.5z
M135 362c0 -80 25.833 -147.5 77.5 -202.5s116.834 -82.5 195.501 -82.5s143.834 27.5 195.501 82.5s77.5 122.5 77.5 202.5s-25.833 147.5 -77.5 202.5s-116.834 82.5 -195.501 82.5s-143.834 -27.5 -195.501 -82.5s-77.5 -122.5 -77.5 -202.5zM408 804
c-44 0 -77.833 13.667 -101.5 41s-36.167 63 -37.5 107h58c5.33301 -61.333 32.333 -92 81 -92s75.667 30.667 81 92h58c-1.33301 -44 -13.833 -79.667 -37.5 -107s-57.5 -41 -101.5 -41z" />
    <glyph glyph-name="obreve" unicode="&#x14f;" horiz-adv-x="610" 
d="M45 246c0 72.667 24.833 133.667 74.5 183s111.5 74 185.5 74s135.833 -24.667 185.5 -74s74.5 -110.333 74.5 -183s-24.833 -133.667 -74.5 -183s-111.5 -74 -185.5 -74s-135.833 24.667 -185.5 74s-74.5 110.333 -74.5 183zM135 246c0 -50 16.167 -91.667 48.5 -125
s72.833 -50 121.5 -50s89.167 16.667 121.5 50s48.5 75 48.5 125s-16.167 91.667 -48.5 125s-72.833 50 -121.5 50s-89.167 -16.667 -121.5 -50s-48.5 -75 -48.5 -125zM305 572c-44 0 -77.833 13.667 -101.5 41s-36.167 63 -37.5 107h58c5.33301 -61.333 32.333 -92 81 -92
s75.667 30.667 81 92h58c-1.33301 -44 -13.833 -79.667 -37.5 -107s-57.5 -41 -101.5 -41z" />
    <glyph glyph-name="Ohungarumlaut" unicode="&#x150;" horiz-adv-x="816" 
d="M40 362c0 105.333 35.167 193.833 105.5 265.5s157.833 107.5 262.5 107.5s192.167 -35.833 262.5 -107.5s105.5 -160.167 105.5 -265.5s-35.167 -193.833 -105.5 -265.5s-157.833 -107.5 -262.5 -107.5s-192.167 35.833 -262.5 107.5s-105.5 160.167 -105.5 265.5z
M135 362c0 -80 25.833 -147.5 77.5 -202.5s116.834 -82.5 195.501 -82.5s143.834 27.5 195.501 82.5s77.5 122.5 77.5 202.5s-25.833 147.5 -77.5 202.5s-116.834 82.5 -195.501 82.5s-143.834 -27.5 -195.501 -82.5s-77.5 -122.5 -77.5 -202.5zM420 795l83 164h79
l-103 -164h-59zM282 795l83 164h79l-103 -164h-59z" />
    <glyph glyph-name="ohungarumlaut" unicode="&#x151;" horiz-adv-x="610" 
d="M45 246c0 72.667 24.833 133.667 74.5 183s111.5 74 185.5 74s135.833 -24.667 185.5 -74s74.5 -110.333 74.5 -183s-24.833 -133.667 -74.5 -183s-111.5 -74 -185.5 -74s-135.833 24.667 -185.5 74s-74.5 110.333 -74.5 183zM135 246c0 -50 16.167 -91.667 48.5 -125
s72.833 -50 121.5 -50s89.167 16.667 121.5 50s48.5 75 48.5 125s-16.167 91.667 -48.5 125s-72.833 50 -121.5 50s-89.167 -16.667 -121.5 -50s-48.5 -75 -48.5 -125zM317 563l83 164h79l-103 -164h-59zM179 563l83 164h79l-103 -164h-59z" />
    <glyph glyph-name="OE" unicode="&#x152;" horiz-adv-x="929" 
d="M202 60c-52 32 -92 73.833 -120 125.5s-42 110.167 -42 175.5c0 126 47.667 222.667 143 290c68.667 48.667 162 73 280 73h414v-86h-311v-220h271v-83h-271v-249h320v-86h-427c-105.333 0 -191 20 -257 60zM252 136c29.333 -18.667 60 -31.5 92 -38.5
s74.333 -10.833 127 -11.5v552c-97.333 -0.666992 -170.333 -17 -219 -49c-78 -50.667 -117 -126.334 -117 -227.001c0 -99.333 39 -174.666 117 -225.999z" />
    <glyph glyph-name="oe" unicode="&#x153;" horiz-adv-x="980" 
d="M929 220l-367.999 0.00195312c6.66699 -47.333 26 -84.166 58 -110.499s72 -39.5 120 -39.5c57.333 0 113 20.333 167 61v-96c-48 -30.667 -105.667 -46 -173 -46c-48 0 -90.833 9.66699 -128.5 29s-67.167 46.666 -88.5 81.999h-2
c-22.667 -34.667 -52.334 -61.834 -89.001 -81.501s-77.667 -29.5 -123 -29.5c-74 0 -135.333 24.5 -184 73.5s-73 109.833 -73 182.5c0 73.333 24.5 134.666 73.5 183.999s110.5 74 184.5 74c44.667 0 85.167 -9.83301 121.5 -29.5s65.833 -46.834 88.5 -81.501h2
c20.667 34.667 48.5 61.834 83.5 81.501s73.167 29.5 114.5 29.5c62.667 0 115 -21.167 157 -63.5s63 -98.833 63 -169.5c0 -17.333 -1.33301 -34 -4 -50zM135.001 247.002c0 -50 16 -91.832 48 -125.499s72.333 -50.5 121 -50.5c48 0 87.833 16.667 119.5 50
s47.5 74.666 47.5 123.999c0 50 -16 91.833 -48 125.5s-72.333 50.5 -121 50.5c-48 0 -87.833 -16.5 -119.5 -49.5s-47.5 -74.5 -47.5 -124.5zM711.001 422.003c-36 0 -68.167 -11.167 -96.5 -33.5s-45.833 -54.833 -52.5 -97.5h285c-1.33301 35.333 -14.333 66 -39 92
s-57 39 -97 39z" />
    <glyph glyph-name="Racute" unicode="&#x154;" horiz-adv-x="646" 
d="M81 0v724h196c92 0 159.333 -12 202 -36c66.667 -36.667 100 -93 100 -169s-31 -132.667 -93 -170c-24 -14.667 -51.667 -24.667 -83 -30l232 -319h-115l-221 310h-123v-310h-95zM176 388h123.001c65.333 0 112.666 11 141.999 33c28.667 21.333 43 51.333 43 90
c0 46.667 -19.667 81 -59 103c-30 16 -81.667 24 -155 24h-94v-250zM423.001 959l-110 -164h-68l77 164h101z" />
    <glyph glyph-name="racute" unicode="&#x155;" horiz-adv-x="367" 
d="M79 0v492h90v-72l2 -1c36.667 51.333 85.334 77 146.001 77c11.333 0 22 -1.33301 32 -4v-89c-10.667 2.66699 -22.334 4 -35.001 4c-62.667 0 -111 -29 -145 -87v-320h-90zM303 727l-110 -164h-68l77 164h101z" />
    <glyph glyph-name="Rcommaaccent" unicode="&#x156;" horiz-adv-x="646" 
d="M81 0v724h196c92 0 159.333 -12 202 -36c66.667 -36.667 100 -93 100 -169s-31 -132.667 -93 -170c-24 -14.667 -51.667 -24.667 -83 -30l232 -319h-115l-221 310h-123v-310h-95zM176 388h123.001c65.333 0 112.666 11 141.999 33c28.667 21.333 43 51.333 43 90
c0 46.667 -19.667 81 -59 103c-30 16 -81.667 24 -155 24h-94v-250zM285.001 -54h88l-76 -218h-65z" />
    <glyph glyph-name="rcommaaccent" unicode="&#x157;" horiz-adv-x="367" 
d="M79 0v492h90v-72l2 -1c36.667 51.333 85.334 77 146.001 77c11.333 0 22 -1.33301 32 -4v-89c-10.667 2.66699 -22.334 4 -35.001 4c-62.667 0 -111 -29 -145 -87v-320h-90zM126 -54h88l-76 -218h-65z" />
    <glyph glyph-name="Rcaron" unicode="&#x158;" horiz-adv-x="646" 
d="M81 0v724h196c92 0 159.333 -12 202 -36c66.667 -36.667 100 -93 100 -169s-31 -132.667 -93 -170c-24 -14.667 -51.667 -24.667 -83 -30l232 -319h-115l-221 310h-123v-310h-95zM176 388h123.001c65.333 0 112.666 11 141.999 33c28.667 21.333 43 51.333 43 90
c0 46.667 -19.667 81 -59 103c-30 16 -81.667 24 -155 24h-94v-250zM464.001 959l-113 -164h-96l-113 164h75l86 -105l86 105h75z" />
    <glyph glyph-name="rcaron" unicode="&#x159;" horiz-adv-x="367" 
d="M79 0v492h90v-72l2 -1c36.667 51.333 85.334 77 146.001 77c11.333 0 22 -1.33301 32 -4v-89c-10.667 2.66699 -22.334 4 -35.001 4c-62.667 0 -111 -29 -145 -87v-320h-90zM344 727l-113 -164h-96l-113 164h75l86 -105l86 105h75z" />
    <glyph glyph-name="Sacute" unicode="&#x15a;" horiz-adv-x="561" 
d="M64 44l-0.00195312 103.995c32 -24 67.333 -42 106 -54s75.334 -18 110.001 -18c44.667 0 80.334 10.167 107.001 30.5s40 49.5 40 87.5c0 20.667 -3.66699 38.167 -11 52.5s-20.166 26.5 -38.499 36.5s-33.833 17.333 -46.5 22s-33.667 11 -63 19
c-2.66699 0.666992 -5 1.33398 -7 2.00098s-4.33301 1.33398 -7 2.00098s-5 1.33398 -7 2.00098c-30 8.66699 -55.167 17.334 -75.5 26.001s-41 20.667 -62 36s-36.833 34.833 -47.5 58.5s-16 51.167 -16 82.5c0 63.333 21.167 112.833 63.5 148.5s99.166 53.5 170.499 53.5
c82 0 151.333 -18 208 -54v-100c-64 44.667 -134 67 -210 67c-42 0 -75.5 -9.16699 -100.5 -27.5s-37.5 -45.5 -37.5 -81.5c0 -8.66699 1 -17 3 -25s4.16699 -15 6.5 -21s6.16602 -11.833 11.499 -17.5l13.5 -14c3.66699 -3.66699 9.83398 -7.66699 18.501 -12l20 -10
c4.66699 -2.33301 12.5 -5.16602 23.5 -8.49902l23.5 -7l26 -7.5l26 -7.5c24.667 -6.66699 45.667 -13.334 63 -20.001s35.833 -15.667 55.5 -27s35.5 -24 47.5 -38s22.167 -31.667 30.5 -53s12.5 -45.333 12.5 -72c0 -65.333 -22 -116.666 -66 -153.999
s-102.667 -56 -176 -56c-80 0 -151.667 18.333 -215 55zM399.998 958.995l-110 -164h-68l77 164h101z" />
    <glyph glyph-name="sacute" unicode="&#x15b;" horiz-adv-x="499" 
d="M66 28l0.00390625 94.001c55.333 -34.667 117.666 -52 186.999 -52c74.667 0 112 22.667 112 68c0 8 -1.16699 15.167 -3.5 21.5s-6.5 11.833 -12.5 16.5s-11.833 8.5 -17.5 11.5s-13.834 5.66699 -24.501 8s-19.334 4.16602 -26.001 5.49902s-17 3 -31 5
s-24.667 3.66699 -32 5c-54.667 9.33301 -96.334 24 -125.001 44s-43 52.333 -43 97c0.666992 49.333 19.5 86.833 56.5 112.5s85.5 38.5 145.5 38.5c68 0 126.667 -13 176 -39v-90c-54.667 32 -114.667 48 -180 48c-71.333 0 -107 -21 -107 -63c0 -8 1.16699 -15 3.5 -21
s6.33301 -11 12 -15s11.334 -7.5 17.001 -10.5s13.5 -5.5 23.5 -7.5s18.667 -3.66699 26 -5s17.5 -3 30.5 -5s23.167 -3.66699 30.5 -5c26.667 -4.66699 49.167 -9.83398 67.5 -15.501s36 -13.667 53 -24s29.833 -24.166 38.5 -41.499s13 -38.333 13 -63
c0 -53.333 -19.833 -92.833 -59.5 -118.5s-88.834 -38.5 -147.501 -38.5c-71.333 0 -132.333 13 -183 39zM370.004 727.001l-110 -164h-68l77 164h101z" />
    <glyph glyph-name="Scircumflex" unicode="&#x15c;" horiz-adv-x="561" 
d="M64 44l-0.00195312 103.995c32 -24 67.333 -42 106 -54s75.334 -18 110.001 -18c44.667 0 80.334 10.167 107.001 30.5s40 49.5 40 87.5c0 20.667 -3.66699 38.167 -11 52.5s-20.166 26.5 -38.499 36.5s-33.833 17.333 -46.5 22s-33.667 11 -63 19
c-2.66699 0.666992 -5 1.33398 -7 2.00098s-4.33301 1.33398 -7 2.00098s-5 1.33398 -7 2.00098c-30 8.66699 -55.167 17.334 -75.5 26.001s-41 20.667 -62 36s-36.833 34.833 -47.5 58.5s-16 51.167 -16 82.5c0 63.333 21.167 112.833 63.5 148.5s99.166 53.5 170.499 53.5
c82 0 151.333 -18 208 -54v-100c-64 44.667 -134 67 -210 67c-42 0 -75.5 -9.16699 -100.5 -27.5s-37.5 -45.5 -37.5 -81.5c0 -8.66699 1 -17 3 -25s4.16699 -15 6.5 -21s6.16602 -11.833 11.499 -17.5l13.5 -14c3.66699 -3.66699 9.83398 -7.66699 18.501 -12l20 -10
c4.66699 -2.33301 12.5 -5.16602 23.5 -8.49902l23.5 -7l26 -7.5l26 -7.5c24.667 -6.66699 45.667 -13.334 63 -20.001s35.833 -15.667 55.5 -27s35.5 -24 47.5 -38s22.167 -31.667 30.5 -53s12.5 -45.333 12.5 -72c0 -65.333 -22 -116.666 -66 -153.999
s-102.667 -56 -176 -56c-80 0 -151.667 18.333 -215 55zM118.998 794.995l113 164h96l113 -164h-75l-86 105l-86 -105h-75z" />
    <glyph glyph-name="scircumflex" unicode="&#x15d;" horiz-adv-x="499" 
d="M66 28l0.00390625 94.001c55.333 -34.667 117.666 -52 186.999 -52c74.667 0 112 22.667 112 68c0 8 -1.16699 15.167 -3.5 21.5s-6.5 11.833 -12.5 16.5s-11.833 8.5 -17.5 11.5s-13.834 5.66699 -24.501 8s-19.334 4.16602 -26.001 5.49902s-17 3 -31 5
s-24.667 3.66699 -32 5c-54.667 9.33301 -96.334 24 -125.001 44s-43 52.333 -43 97c0.666992 49.333 19.5 86.833 56.5 112.5s85.5 38.5 145.5 38.5c68 0 126.667 -13 176 -39v-90c-54.667 32 -114.667 48 -180 48c-71.333 0 -107 -21 -107 -63c0 -8 1.16699 -15 3.5 -21
s6.33301 -11 12 -15s11.334 -7.5 17.001 -10.5s13.5 -5.5 23.5 -7.5s18.667 -3.66699 26 -5s17.5 -3 30.5 -5s23.167 -3.66699 30.5 -5c26.667 -4.66699 49.167 -9.83398 67.5 -15.501s36 -13.667 53 -24s29.833 -24.166 38.5 -41.499s13 -38.333 13 -63
c0 -53.333 -19.833 -92.833 -59.5 -118.5s-88.834 -38.5 -147.501 -38.5c-71.333 0 -132.333 13 -183 39zM89.0039 563.001l113 164h96l113 -164h-75l-86 105l-86 -105h-75z" />
    <glyph glyph-name="Scedilla" unicode="&#x15e;" horiz-adv-x="561" 
d="M228 -86l22.998 75.9961c-73.333 6 -135.666 24 -186.999 54v104c32 -24 67.333 -42 106 -54s75.334 -18 110.001 -18c44.667 0 80.334 10.167 107.001 30.5s40 49.5 40 87.5c0 20.667 -3.66699 38.167 -11 52.5s-20.166 26.5 -38.499 36.5s-33.833 17.333 -46.5 22
s-33.667 11 -63 19c-2.66699 0.666992 -5 1.33398 -7 2.00098s-4.33301 1.33398 -7 2.00098s-5 1.33398 -7 2.00098c-30 8.66699 -55.167 17.334 -75.5 26.001s-41 20.667 -62 36s-36.833 34.833 -47.5 58.5s-16 51.167 -16 82.5c0 63.333 21.167 112.833 63.5 148.5
s99.166 53.5 170.499 53.5c82 0 151.333 -18 208 -54v-100c-64 44.667 -134 67 -210 67c-42 0 -75.5 -9.16699 -100.5 -27.5s-37.5 -45.5 -37.5 -81.5c0 -8.66699 1 -17 3 -25s4.16699 -15 6.5 -21s6.16602 -11.833 11.499 -17.5l13.5 -14
c3.66699 -3.66699 9.83398 -7.66699 18.501 -12l20 -10c4.66699 -2.33301 12.5 -5.16602 23.5 -8.49902l23.5 -7l26 -7.5l26 -7.5c24.667 -6.66699 45.667 -13.334 63 -20.001s35.833 -15.667 55.5 -27s35.5 -24 47.5 -38s22.167 -31.667 30.5 -53s12.5 -45.333 12.5 -72
c0 -62 -20 -111.5 -60 -148.5s-94 -57.167 -162 -60.5l-10 -33c59.333 -13.333 89 -43.333 89 -90c0 -26.667 -9.5 -48 -28.5 -64s-44.5 -24 -76.5 -24c-29.333 0 -56 6 -80 18l15 51c25.333 -12.667 46.666 -19 63.999 -19c14 0 25.5 3 34.5 9s13.5 14.667 13.5 26
c0 30 -30.667 46.667 -92 50z" />
    <glyph glyph-name="scedilla" unicode="&#x15f;" horiz-adv-x="499" 
d="M204 -86l23.0039 76.001c-62 2 -115.667 14.667 -161 38v94c55.333 -34.667 117.666 -52 186.999 -52c74.667 0 112 22.667 112 68c0 8 -1.16699 15.167 -3.5 21.5s-6.5 11.833 -12.5 16.5s-11.833 8.5 -17.5 11.5s-13.834 5.66699 -24.501 8
s-19.334 4.16602 -26.001 5.49902s-17 3 -31 5s-24.667 3.66699 -32 5c-54.667 9.33301 -96.334 24 -125.001 44s-43 52.333 -43 97c0.666992 49.333 19.5 86.833 56.5 112.5s85.5 38.5 145.5 38.5c68 0 126.667 -13 176 -39v-90c-54.667 32 -114.667 48 -180 48
c-71.333 0 -107 -21 -107 -63c0 -8 1.16699 -15 3.5 -21s6.33301 -11 12 -15s11.334 -7.5 17.001 -10.5s13.5 -5.5 23.5 -7.5s18.667 -3.66699 26 -5s17.5 -3 30.5 -5s23.167 -3.66699 30.5 -5c26.667 -4.66699 49.167 -9.83398 67.5 -15.501s36 -13.667 53 -24
s29.833 -24.166 38.5 -41.499s13 -38.333 13 -63c0 -49.333 -17.167 -86.833 -51.5 -112.5s-77.5 -40.167 -129.5 -43.5l-10 -33c59.333 -13.333 89 -43.333 89 -90c0 -26.667 -9.5 -48 -28.5 -64s-44.5 -24 -76.5 -24c-29.333 0 -56 6 -80 18l15 51
c25.333 -12.667 46.666 -19 63.999 -19c14 0 25.5 3 34.5 9s13.5 14.667 13.5 26c0 30 -30.667 46.667 -92 50z" />
    <glyph glyph-name="Scaron" unicode="&#x160;" horiz-adv-x="561" 
d="M64 44l-0.00195312 103.995c32 -24 67.333 -42 106 -54s75.334 -18 110.001 -18c44.667 0 80.334 10.167 107.001 30.5s40 49.5 40 87.5c0 20.667 -3.66699 38.167 -11 52.5s-20.166 26.5 -38.499 36.5s-33.833 17.333 -46.5 22s-33.667 11 -63 19
c-2.66699 0.666992 -5 1.33398 -7 2.00098s-4.33301 1.33398 -7 2.00098s-5 1.33398 -7 2.00098c-30 8.66699 -55.167 17.334 -75.5 26.001s-41 20.667 -62 36s-36.833 34.833 -47.5 58.5s-16 51.167 -16 82.5c0 63.333 21.167 112.833 63.5 148.5s99.166 53.5 170.499 53.5
c82 0 151.333 -18 208 -54v-100c-64 44.667 -134 67 -210 67c-42 0 -75.5 -9.16699 -100.5 -27.5s-37.5 -45.5 -37.5 -81.5c0 -8.66699 1 -17 3 -25s4.16699 -15 6.5 -21s6.16602 -11.833 11.499 -17.5l13.5 -14c3.66699 -3.66699 9.83398 -7.66699 18.501 -12l20 -10
c4.66699 -2.33301 12.5 -5.16602 23.5 -8.49902l23.5 -7l26 -7.5l26 -7.5c24.667 -6.66699 45.667 -13.334 63 -20.001s35.833 -15.667 55.5 -27s35.5 -24 47.5 -38s22.167 -31.667 30.5 -53s12.5 -45.333 12.5 -72c0 -65.333 -22 -116.666 -66 -153.999
s-102.667 -56 -176 -56c-80 0 -151.667 18.333 -215 55zM440.998 958.995l-113 -164h-96l-113 164h75l86 -105l86 105h75z" />
    <glyph glyph-name="scaron" unicode="&#x161;" horiz-adv-x="499" 
d="M66 28l0.00390625 94.001c55.333 -34.667 117.666 -52 186.999 -52c74.667 0 112 22.667 112 68c0 8 -1.16699 15.167 -3.5 21.5s-6.5 11.833 -12.5 16.5s-11.833 8.5 -17.5 11.5s-13.834 5.66699 -24.501 8s-19.334 4.16602 -26.001 5.49902s-17 3 -31 5
s-24.667 3.66699 -32 5c-54.667 9.33301 -96.334 24 -125.001 44s-43 52.333 -43 97c0.666992 49.333 19.5 86.833 56.5 112.5s85.5 38.5 145.5 38.5c68 0 126.667 -13 176 -39v-90c-54.667 32 -114.667 48 -180 48c-71.333 0 -107 -21 -107 -63c0 -8 1.16699 -15 3.5 -21
s6.33301 -11 12 -15s11.334 -7.5 17.001 -10.5s13.5 -5.5 23.5 -7.5s18.667 -3.66699 26 -5s17.5 -3 30.5 -5s23.167 -3.66699 30.5 -5c26.667 -4.66699 49.167 -9.83398 67.5 -15.501s36 -13.667 53 -24s29.833 -24.166 38.5 -41.499s13 -38.333 13 -63
c0 -53.333 -19.833 -92.833 -59.5 -118.5s-88.834 -38.5 -147.501 -38.5c-71.333 0 -132.333 13 -183 39zM411.004 727.001l-113 -164h-96l-113 164h75l86 -105l86 105h75z" />
    <glyph glyph-name="Tcommaaccent" unicode="&#x162;" horiz-adv-x="621" 
d="M263 0l0.000976562 638h-243v86h581v-86h-243v-638h-25l-13 -43c59.333 -13.333 89 -43.333 89 -90c0 -26.667 -9.5 -48 -28.5 -64s-44.5 -24 -76.5 -24c-29.333 0 -56 6 -80 18l15 51c25.333 -12.667 46.666 -19 63.999 -19c14 0 25.5 3 34.5 9s13.5 14.667 13.5 26
c0 30 -30.667 46.667 -92 50l26 86h-22z" />
    <glyph glyph-name="tcommaaccent" unicode="&#x163;" horiz-adv-x="389" 
d="M180 -86l26 85.001c-21.333 8 -38.666 20 -51.999 36c-24.667 28 -37 73.333 -37 136v240h-91v81h91v134l90 15v-149h148v-81h-148v-223c0 -36.667 5 -65.334 15 -86.001s29.667 -31 59 -31c27.333 0 52 7 74 21v-85c-24 -12 -53.667 -18 -89 -18
c-6 0 -11 0.333008 -15 1l-10 -33c59.333 -13.333 89 -43.333 89 -90c0 -26.667 -9.5 -48 -28.5 -64s-44.5 -24 -76.5 -24c-29.333 0 -56 6 -80 18l15 51c25.333 -12.667 46.666 -19 63.999 -19c14 0 25.5 3 34.5 9s13.5 14.667 13.5 26c0 30 -30.667 46.667 -92 50z" />
    <glyph glyph-name="Tcaron" unicode="&#x164;" horiz-adv-x="621" 
d="M263 0v638h-243v86h581v-86h-243v-638h-95zM471 959l-113 -164h-96l-113 164h75l86 -105l86 105h75z" />
    <glyph glyph-name="tcaron" unicode="&#x165;" horiz-adv-x="389" 
d="M154 35c-24.667 28 -37 73.334 -37 136.001v240h-91v81h91v134l90 15v-149h148v-81h-148v-223c0 -36.667 5 -65.334 15 -86.001s29.667 -31 59 -31c27.333 0 52 7 74 21v-85c-24 -12 -53.667 -18 -89 -18c-48 0 -85.333 15.333 -112 46zM338 772.001h88l-76 -218h-65z
" />
    <glyph glyph-name="Tbar" unicode="&#x166;" horiz-adv-x="621" 
d="M132 318v78h131v242h-243v86h581v-86h-243v-242h131v-78h-131v-318h-95v318h-131z" />
    <glyph glyph-name="tbar" unicode="&#x167;" horiz-adv-x="400" 
d="M30 228v81.001h91v102h-91v81h91v134l90 15v-149h148v-81h-148v-102h148v-81h-148v-40c0 -36.667 5 -65.334 15 -86.001s29.667 -31 59 -31c27.333 0 52 7 74 21v-85c-24 -12 -53.667 -18 -89 -18c-48 0 -85.333 15.333 -112 46c-24.667 28 -37 73.333 -37 136v57h-91z
" />
    <glyph glyph-name="Utilde" unicode="&#x168;" horiz-adv-x="730" 
d="M121 102c-32 49.333 -48.0039 128.999 -48.0039 238.999v383h95v-373c0 -89.333 9.33301 -151.666 28 -186.999c30.667 -58 88 -87 172 -87c82.667 0 139.334 29 170.001 87c18 33.333 27 94.333 27 183v377h92v-372c0 -60 -3.16699 -109.333 -9.5 -148
s-19.166 -72.667 -38.499 -102c-23.333 -35.333 -56.166 -63 -98.499 -83s-91.166 -30 -146.499 -30s-103.833 10 -145.5 30s-74.167 47.667 -97.5 83zM357.996 841.999c-30.667 15.333 -53 23 -67 23c-26 0 -53 -16 -81 -48l-2 1v78c20.667 28.667 48.334 43 83.001 43
c22 0 49 -8 81 -24c30.667 -15.333 53 -23 67 -23c26 0 53 16 81 48l2 -1v-78c-20.667 -28.667 -48.334 -43 -83.001 -43c-22 0 -49 8 -81 24z" />
    <glyph glyph-name="utilde" unicode="&#x169;" horiz-adv-x="592" 
d="M117 44c-26.667 31.333 -39.999 80.333 -39.999 147v301h90v-284c0 -49.333 8 -83.333 24 -102c18 -22.667 44 -34 78 -34c28.667 0 56.667 8 84 24s50.666 36 69.999 60v336h90v-492h-90v62l-2 1c-49.333 -49.333 -106 -74 -170 -74c-57.333 0 -102 18.333 -134 55z
M289.001 610c-30.667 15.333 -53 23 -67 23c-26 0 -53 -16 -81 -48l-2 1v78c20.667 28.667 48.334 43 83.001 43c22 0 49 -8 81 -24c30.667 -15.333 53 -23 67 -23c26 0 53 16 81 48l2 -1v-78c-20.667 -28.667 -48.334 -43 -83.001 -43c-22 0 -49 8 -81 24z" />
    <glyph glyph-name="Umacron" unicode="&#x16a;" horiz-adv-x="730" 
d="M121 102c-32 49.333 -48.0039 128.999 -48.0039 238.999v383h95v-373c0 -89.333 9.33301 -151.666 28 -186.999c30.667 -58 88 -87 172 -87c82.667 0 139.334 29 170.001 87c18 33.333 27 94.333 27 183v377h92v-372c0 -60 -3.16699 -109.333 -9.5 -148
s-19.166 -72.667 -38.499 -102c-23.333 -35.333 -56.166 -63 -98.499 -83s-91.166 -30 -146.499 -30s-103.833 10 -145.5 30s-74.167 47.667 -97.5 83zM227.996 842.999v68h274v-68h-274z" />
    <glyph glyph-name="umacron" unicode="&#x16b;" horiz-adv-x="592" 
d="M117 44c-26.667 31.333 -39.999 80.333 -39.999 147v301h90v-284c0 -49.333 8 -83.333 24 -102c18 -22.667 44 -34 78 -34c28.667 0 56.667 8 84 24s50.666 36 69.999 60v336h90v-492h-90v62l-2 1c-49.333 -49.333 -106 -74 -170 -74c-57.333 0 -102 18.333 -134 55z
M159.001 611v68h274v-68h-274z" />
    <glyph glyph-name="Ubreve" unicode="&#x16c;" horiz-adv-x="730" 
d="M121 102c-32 49.333 -48.0039 128.999 -48.0039 238.999v383h95v-373c0 -89.333 9.33301 -151.666 28 -186.999c30.667 -58 88 -87 172 -87c82.667 0 139.334 29 170.001 87c18 33.333 27 94.333 27 183v377h92v-372c0 -60 -3.16699 -109.333 -9.5 -148
s-19.166 -72.667 -38.499 -102c-23.333 -35.333 -56.166 -63 -98.499 -83s-91.166 -30 -146.499 -30s-103.833 10 -145.5 30s-74.167 47.667 -97.5 83zM364.996 803.999c-44 0 -77.833 13.667 -101.5 41s-36.167 63 -37.5 107h58c5.33301 -61.333 32.333 -92 81 -92
s75.667 30.667 81 92h58c-1.33301 -44 -13.833 -79.667 -37.5 -107s-57.5 -41 -101.5 -41z" />
    <glyph glyph-name="ubreve" unicode="&#x16d;" horiz-adv-x="592" 
d="M117 44c-26.667 31.333 -39.999 80.333 -39.999 147v301h90v-284c0 -49.333 8 -83.333 24 -102c18 -22.667 44 -34 78 -34c28.667 0 56.667 8 84 24s50.666 36 69.999 60v336h90v-492h-90v62l-2 1c-49.333 -49.333 -106 -74 -170 -74c-57.333 0 -102 18.333 -134 55z
M296.001 572c-44 0 -77.833 13.667 -101.5 41s-36.167 63 -37.5 107h58c5.33301 -61.333 32.333 -92 81 -92s75.667 30.667 81 92h58c-1.33301 -44 -13.833 -79.667 -37.5 -107s-57.5 -41 -101.5 -41z" />
    <glyph glyph-name="Uring" unicode="&#x16e;" horiz-adv-x="730" 
d="M121 102c-32 49.333 -48.0039 128.999 -48.0039 238.999v383h95v-373c0 -89.333 9.33301 -151.666 28 -186.999c30.667 -58 88 -87 172 -87c82.667 0 139.334 29 170.001 87c18 33.333 27 94.333 27 183v377h92v-372c0 -60 -3.16699 -109.333 -9.5 -148
s-19.166 -72.667 -38.499 -102c-23.333 -35.333 -56.166 -63 -98.499 -83s-91.166 -30 -146.499 -30s-103.833 10 -145.5 30s-74.167 47.667 -97.5 83zM364.996 782.999c-33.333 0 -61.166 10.833 -83.499 32.5s-33.5 48.834 -33.5 81.501s11.167 59.834 33.5 81.501
s50.166 32.5 83.499 32.5s61.166 -10.833 83.499 -32.5s33.5 -48.834 33.5 -81.501s-11.167 -59.834 -33.5 -81.501s-50.166 -32.5 -83.499 -32.5zM364.996 832.999c18.667 0 33.834 6.16699 45.501 18.5s17.5 27.5 17.5 45.5s-5.83301 33.167 -17.5 45.5
s-26.834 18.5 -45.501 18.5s-33.834 -6.16699 -45.501 -18.5s-17.5 -27.5 -17.5 -45.5s5.83301 -33.167 17.5 -45.5s26.834 -18.5 45.501 -18.5z" />
    <glyph glyph-name="uring" unicode="&#x16f;" horiz-adv-x="592" 
d="M117 44c-26.667 31.333 -39.999 80.333 -39.999 147v301h90v-284c0 -49.333 8 -83.333 24 -102c18 -22.667 44 -34 78 -34c28.667 0 56.667 8 84 24s50.666 36 69.999 60v336h90v-492h-90v62l-2 1c-49.333 -49.333 -106 -74 -170 -74c-57.333 0 -102 18.333 -134 55z
M296.001 551c-33.333 0 -61.166 10.833 -83.499 32.5s-33.5 48.834 -33.5 81.501s11.167 59.834 33.5 81.501s50.166 32.5 83.499 32.5s61.166 -10.833 83.499 -32.5s33.5 -48.834 33.5 -81.501s-11.167 -59.834 -33.5 -81.501s-50.166 -32.5 -83.499 -32.5zM296.001 601
c18.667 0 33.834 6.16699 45.501 18.5s17.5 27.5 17.5 45.5s-5.83301 33.167 -17.5 45.5s-26.834 18.5 -45.501 18.5s-33.834 -6.16699 -45.501 -18.5s-17.5 -27.5 -17.5 -45.5s5.83301 -33.167 17.5 -45.5s26.834 -18.5 45.501 -18.5z" />
    <glyph glyph-name="Uhungarumlaut" unicode="&#x170;" horiz-adv-x="730" 
d="M121 102c-32 49.333 -48.0039 128.999 -48.0039 238.999v383h95v-373c0 -89.333 9.33301 -151.666 28 -186.999c30.667 -58 88 -87 172 -87c82.667 0 139.334 29 170.001 87c18 33.333 27 94.333 27 183v377h92v-372c0 -60 -3.16699 -109.333 -9.5 -148
s-19.166 -72.667 -38.499 -102c-23.333 -35.333 -56.166 -63 -98.499 -83s-91.166 -30 -146.499 -30s-103.833 10 -145.5 30s-74.167 47.667 -97.5 83zM376.996 794.999l83 164h79l-103 -164h-59zM238.996 794.999l83 164h79l-103 -164h-59z" />
    <glyph glyph-name="uhungarumlaut" unicode="&#x171;" horiz-adv-x="592" 
d="M117 44c-26.667 31.333 -39.999 80.333 -39.999 147v301h90v-284c0 -49.333 8 -83.333 24 -102c18 -22.667 44 -34 78 -34c28.667 0 56.667 8 84 24s50.666 36 69.999 60v336h90v-492h-90v62l-2 1c-49.333 -49.333 -106 -74 -170 -74c-57.333 0 -102 18.333 -134 55z
M308.001 563l83 164h79l-103 -164h-59zM170.001 563l83 164h79l-103 -164h-59z" />
    <glyph glyph-name="Uogonek" unicode="&#x172;" horiz-adv-x="730" 
d="M121 102c-32 49.333 -48.002 128.999 -48.002 238.999v383h95v-373c0 -89.333 9.33301 -151.666 28 -186.999c30.667 -58 88 -87 172 -87c82.667 0 139.334 29 170.001 87c18 33.333 27 94.333 27 183v377h92v-372c0 -60 -3.16699 -109.333 -9.5 -148
s-19.166 -72.667 -38.499 -102c-38.667 -58.667 -99.334 -94.667 -182.001 -108c-48.667 -37.333 -73 -75 -73 -113c0 -14.667 4.5 -26.5 13.5 -35.5s21.5 -13.5 37.5 -13.5c13.333 0 27 2 41 6v-60c-19.333 -6 -38 -9 -56 -9c-34 0 -61.167 9.33301 -81.5 28
s-30.5 42.334 -30.5 71.001c0 41.333 19.333 81.333 58 120l-1 2c-99.333 7.33301 -170.666 44.666 -213.999 111.999z" />
    <glyph glyph-name="uogonek" unicode="&#x173;" horiz-adv-x="592" 
d="M117 44c-26.667 31.333 -39.999 80.333 -39.999 147v301h90v-284c0 -49.333 8 -83.333 24 -102c18 -22.667 44 -34 78 -34c28.667 0 56.667 8 84 24s50.666 36 69.999 60v336h90v-492c-28 -17.333 -50 -36.5 -66 -57.5s-24 -40.833 -24 -59.5c0 -34 17 -51 51 -51
c10.667 0 23.667 1.66699 39 5v-60c-16 -5.33301 -34 -8 -54 -8c-34 0 -61.167 9.16699 -81.5 27.5s-30.5 42.5 -30.5 72.5c0 48 25.333 91.667 76 131v62l-2 1c-49.333 -49.333 -106 -74 -170 -74c-57.333 0 -102 18.333 -134 55z" />
    <glyph glyph-name="Wcircumflex" unicode="&#x174;" horiz-adv-x="1013" 
d="M237 0l-225 724.001h101l121 -392l57 -189h2c12 41.333 31.333 104.666 58 189.999l123 391h70l123 -392l58 -189h2l57 190l121 391h96l-225 -724h-101l-116 368l-51 168h-2l-51 -169l-115 -367h-103zM347 795.001l113 164h96l113 -164h-75l-86 105l-86 -105h-75z" />
    <glyph glyph-name="wcircumflex" unicode="&#x175;" horiz-adv-x="825" 
d="M197 0l-171 492h98l73 -219l49 -152h2l54 152l81 219h64l81 -219c18 -47.333 36 -98 54 -152h2c14 46.667 30 97 48 151l73 220h94l-171 -492h-89l-77 211c-14.667 39.333 -30.667 85.333 -48 138h-2c-17.333 -52.667 -33.333 -98.667 -48 -138l-77 -211h-90zM253 563
l113 164h96l113 -164h-75l-86 105l-86 -105h-75z" />
    <glyph glyph-name="Ycircumflex" unicode="&#x176;" horiz-adv-x="655" 
d="M281 0v327l-279 397h110l123 -177l94 -138h2l94 139l122 176h106l-277 -396v-328h-95zM169 795l113 164h96l113 -164h-75l-86 105l-86 -105h-75z" />
    <glyph glyph-name="ycircumflex" unicode="&#x177;" horiz-adv-x="550" 
d="M192 -220h-98l133 273l-205 439h100l86 -186l67 -148h2l67 148l86 186h95zM115 563l113 164h96l113 -164h-75l-86 105l-86 -105h-75z" />
    <glyph glyph-name="Ydieresis" unicode="&#x178;" horiz-adv-x="655" 
d="M281 0v327l-279 397h110l123 -177l94 -138h2l94 139l122 176h106l-277 -396v-328h-95zM373 877c0 15.333 5.5 28.333 16.5 39s23.833 16 38.5 16s27.5 -5.33301 38.5 -16s16.5 -23.667 16.5 -39s-5.5 -28.333 -16.5 -39s-23.833 -16 -38.5 -16s-27.5 5.33301 -38.5 16
s-16.5 23.667 -16.5 39zM177 877c0 15.333 5.5 28.333 16.5 39s23.833 16 38.5 16s27.5 -5.33301 38.5 -16s16.5 -23.667 16.5 -39s-5.5 -28.333 -16.5 -39s-23.833 -16 -38.5 -16s-27.5 5.33301 -38.5 16s-16.5 23.667 -16.5 39z" />
    <glyph glyph-name="Zacute" unicode="&#x179;" horiz-adv-x="639" 
d="M598 0h-568l-1 2l410 634l-1 2h-383v86h550l1 -2l-410 -634l1 -2h401v-86zM443 959l-110 -164h-68l77 164h101z" />
    <glyph glyph-name="zacute" unicode="&#x17a;" horiz-adv-x="471" 
d="M441 0h-421l-1 2l269 406l-1 2h-248v82h407l1 -2l-269 -406l1 -2h262v-82zM356 727l-110 -164h-68l77 164h101z" />
    <glyph glyph-name="Zdotaccent" unicode="&#x17b;" horiz-adv-x="639" 
d="M598 0h-568l-1 2l410 634l-1 2h-383v86h550l1 -2l-410 -634l1 -2h401v-86zM324 822c-15.333 0 -28.333 5.33301 -39 16s-16 23.667 -16 39s5.33301 28.333 16 39s23.667 16 39 16s28.333 -5.33301 39 -16s16 -23.667 16 -39s-5.33301 -28.333 -16 -39
s-23.667 -16 -39 -16z" />
    <glyph glyph-name="zdotaccent" unicode="&#x17c;" horiz-adv-x="471" 
d="M441 0h-421l-1 2l269 406l-1 2h-248v82h407l1 -2l-269 -406l1 -2h262v-82zM237 590c-15.333 0 -28.333 5.33301 -39 16s-16 23.667 -16 39s5.33301 28.333 16 39s23.667 16 39 16s28.333 -5.33301 39 -16s16 -23.667 16 -39s-5.33301 -28.333 -16 -39
s-23.667 -16 -39 -16z" />
    <glyph glyph-name="Zcaron" unicode="&#x17d;" horiz-adv-x="639" 
d="M598 0h-568l-1 2l410 634l-1 2h-383v86h550l1 -2l-410 -634l1 -2h401v-86zM484 959l-113 -164h-96l-113 164h75l86 -105l86 105h75z" />
    <glyph glyph-name="zcaron" unicode="&#x17e;" horiz-adv-x="471" 
d="M441 0h-421l-1 2l269 406l-1 2h-248v82h407l1 -2l-269 -406l1 -2h262v-82zM397 727l-113 -164h-96l-113 164h75l86 -105l86 105h75z" />
    <glyph glyph-name="longs" unicode="&#x17f;" horiz-adv-x="283" 
d="M104 0l-0.000976562 411h-78v81h78v94c0 70 14.667 119.333 44 148c28 27.333 66.333 41 115 41c26.667 0 51.334 -3.33301 74.001 -10v-81c-22.667 6 -46 9 -70 9c-28.667 0 -48 -8.16699 -58 -24.5s-15 -39.5 -15 -69.5v-599h-90z" />
    <glyph glyph-name="florin" unicode="&#x192;" horiz-adv-x="503" 
d="M118 412l13.002 80h87l20 111c19.333 108.667 84.333 163 195 163c19.333 0 38.333 -1.66699 57 -5v-84c-18 4.66699 -38 7 -60 7c-60 0 -95 -29 -105 -87l-19 -105h128l-13 -80h-129l-85 -485c-18.667 -105.333 -79 -158 -181 -158c-16.667 0 -34.334 1.66699 -53.001 5
v85c20 -5.33301 38.667 -8 56 -8c51.333 0 81.666 27.333 90.999 82l84 479h-86z" />
    <glyph glyph-name="AEacute" unicode="&#x1fc;" horiz-adv-x="937" 
d="M5 0l420 724h460v-86h-311v-220h271v-83h-271v-249h320v-86h-415v202h-254l-117 -202h-103zM377 464l-104 -178.999h206v165c0 59.333 0.666992 123.666 2 192.999h-2zM751 959.001l-110 -164h-68l77 164h101z" />
    <glyph glyph-name="aeacute" unicode="&#x1fd;" horiz-adv-x="858" 
d="M808 220l-370 -0.000976562c6.66699 -47.333 26 -84.166 58 -110.499s72 -39.5 120 -39.5c59.333 0 115.333 20.333 168 61v-96c-48 -30.667 -106 -46 -174 -46c-84 0 -150.667 27.667 -200 83c-56 -55.333 -120.667 -83 -194 -83c-47.333 0 -86.333 11.667 -117 35
c-35.333 26.667 -53 63.334 -53 110.001c0 51.333 21.667 91 65 119c34 22 80 33 138 33c32 0 65 -4 99 -12v39c0 36 -9.33301 63 -28 81c-19.333 18 -49 27 -89 27c-54.667 0 -103.667 -16.333 -147 -49v89c45.333 28 98 42 158 42c87.333 0 145 -26.667 173 -80h2
c46 53.333 104.333 80 175 80c62 0 114 -21.333 156 -64s63 -100.334 63 -173.001c0 -18.667 -1 -34 -3 -46zM589 421.999c-36 0 -68.333 -11.167 -97 -33.5s-46.334 -54.833 -53.001 -97.5h285c-1.33301 34.667 -14.166 65.167 -38.499 91.5s-56.5 39.5 -96.5 39.5z
M258 216.999c-34.667 0 -63.5 -6.16699 -86.5 -18.5s-34.5 -31.833 -34.5 -58.5c0 -23.333 8.66699 -41 26 -53s39.666 -18 66.999 -18c56 0 104 20 144 60c-10.667 24 -18 49 -22 75c-29.333 8.66699 -60.666 13 -93.999 13zM578 726.999l-110 -164h-68l77 164h101z" />
    <glyph glyph-name="Oslashacute" unicode="&#x1fe;" horiz-adv-x="816" 
d="M135 362c0 -74 22.001 -137.333 66.001 -190l363 426c-45.333 32.667 -97.333 49 -156 49c-78.667 0 -143.834 -27.5 -195.501 -82.5s-77.5 -122.5 -77.5 -202.5zM40.001 362c0 105.333 35.167 193.833 105.5 265.5s157.833 107.5 262.5 107.5
c82 0 153.667 -22.667 215 -68l62 73l52 -44l-62 -73c67.333 -71.333 101 -158.333 101 -261c0 -105.333 -35.167 -193.833 -105.5 -265.5s-157.833 -107.5 -262.5 -107.5c-82 0 -153.667 22.667 -215 68l-62 -73l-52 44l62 73c-67.333 71.333 -101 158.333 -101 261z
M681.001 362c0 74 -22.001 137.333 -66.001 190l-363 -426c45.333 -32.667 97.333 -49 156 -49c78.667 0 143.834 27.5 195.501 82.5s77.5 122.5 77.5 202.5zM528 959l-110 -164h-68l77 164h101z" />
    <glyph glyph-name="oslashacute" unicode="&#x1ff;" horiz-adv-x="610" 
d="M135 246c0 -40.667 11 -76.333 33 -107l226 258c-28 16 -57.667 24 -89 24c-48.667 0 -89.167 -16.667 -121.5 -50s-48.5 -75 -48.5 -125zM45 246.001c0 72.667 24.833 133.667 74.5 183s111.5 74 185.5 74c54 0 102.333 -14 145 -42l50 57l49 -42l-49 -56
c43.333 -47.333 65 -105.333 65 -174c0 -72.667 -24.833 -133.667 -74.5 -183s-111.5 -74 -185.5 -74c-54 0 -102.333 14 -145 42l-50 -57l-49 42l49 56c-43.333 47.333 -65 105.333 -65 174zM475 246.001c0 40.667 -11 76.333 -33 107l-226 -258c28 -16 57.667 -24 89 -24
c48.667 0 89.167 16.667 121.5 50s48.5 75 48.5 125zM425 727l-110 -164h-68l77 164h101z" />
    <glyph glyph-name="Scommaaccent" unicode="&#x218;" horiz-adv-x="561" 
d="M64 44l-0.00195312 103.995c32 -24 67.333 -42 106 -54s75.334 -18 110.001 -18c44.667 0 80.334 10.167 107.001 30.5s40 49.5 40 87.5c0 20.667 -3.66699 38.167 -11 52.5s-20.166 26.5 -38.499 36.5s-33.833 17.333 -46.5 22s-33.667 11 -63 19
c-2.66699 0.666992 -5 1.33398 -7 2.00098s-4.33301 1.33398 -7 2.00098s-5 1.33398 -7 2.00098c-30 8.66699 -55.167 17.334 -75.5 26.001s-41 20.667 -62 36s-36.833 34.833 -47.5 58.5s-16 51.167 -16 82.5c0 63.333 21.167 112.833 63.5 148.5s99.166 53.5 170.499 53.5
c82 0 151.333 -18 208 -54v-100c-64 44.667 -134 67 -210 67c-42 0 -75.5 -9.16699 -100.5 -27.5s-37.5 -45.5 -37.5 -81.5c0 -8.66699 1 -17 3 -25s4.16699 -15 6.5 -21s6.16602 -11.833 11.499 -17.5l13.5 -14c3.66699 -3.66699 9.83398 -7.66699 18.501 -12l20 -10
c4.66699 -2.33301 12.5 -5.16602 23.5 -8.49902l23.5 -7l26 -7.5l26 -7.5c24.667 -6.66699 45.667 -13.334 63 -20.001s35.833 -15.667 55.5 -27s35.5 -24 47.5 -38s22.167 -31.667 30.5 -53s12.5 -45.333 12.5 -72c0 -65.333 -22 -116.666 -66 -153.999
s-102.667 -56 -176 -56c-80 0 -151.667 18.333 -215 55zM261.998 -54.0049h88l-76 -218h-65z" />
    <glyph glyph-name="scommaaccent" unicode="&#x219;" horiz-adv-x="499" 
d="M66 28l0.00390625 94.001c55.333 -34.667 117.666 -52 186.999 -52c74.667 0 112 22.667 112 68c0 8 -1.16699 15.167 -3.5 21.5s-6.5 11.833 -12.5 16.5s-11.833 8.5 -17.5 11.5s-13.834 5.66699 -24.501 8s-19.334 4.16602 -26.001 5.49902s-17 3 -31 5
s-24.667 3.66699 -32 5c-54.667 9.33301 -96.334 24 -125.001 44s-43 52.333 -43 97c0.666992 49.333 19.5 86.833 56.5 112.5s85.5 38.5 145.5 38.5c68 0 126.667 -13 176 -39v-90c-54.667 32 -114.667 48 -180 48c-71.333 0 -107 -21 -107 -63c0 -8 1.16699 -15 3.5 -21
s6.33301 -11 12 -15s11.334 -7.5 17.001 -10.5s13.5 -5.5 23.5 -7.5s18.667 -3.66699 26 -5s17.5 -3 30.5 -5s23.167 -3.66699 30.5 -5c26.667 -4.66699 49.167 -9.83398 67.5 -15.501s36 -13.667 53 -24s29.833 -24.166 38.5 -41.499s13 -38.333 13 -63
c0 -53.333 -19.833 -92.833 -59.5 -118.5s-88.834 -38.5 -147.501 -38.5c-71.333 0 -132.333 13 -183 39zM232.004 -53.999h88l-76 -218h-65z" />
    <glyph glyph-name="uni021A" unicode="&#x21a;" horiz-adv-x="621" 
d="M263 0v638h-243v86h581v-86h-243v-638h-95zM292 -54h88l-76 -218h-65z" />
    <glyph glyph-name="uni021B" unicode="&#x21b;" horiz-adv-x="389" 
d="M154 35c-24.667 28 -37 73.334 -37 136.001v240h-91v81h91v134l90 15v-149h148v-81h-148v-223c0 -36.667 5 -65.334 15 -86.001s29.667 -31 59 -31c27.333 0 52 7 74 21v-85c-24 -12 -53.667 -18 -89 -18c-48 0 -85.333 15.333 -112 46zM208 -53.999h88l-76 -218h-65z
" />
    <glyph glyph-name="dotlessj" unicode="&#x237;" horiz-adv-x="249" 
d="M80 -55v547h90v-543c0 -62.667 -11.333 -107 -34 -133c-26.667 -31.333 -67 -47 -121 -47c-21.333 0 -41 2.66699 -59 8v81c22 -4.66699 40.667 -7 56 -7c26.667 0 44.667 7.83301 54 23.5s14 39.167 14 70.5z" />
    <glyph glyph-name="circumflex" unicode="&#x2c6;" 
d="M90 563l113 164h96l113 -164h-75l-86 105l-86 -105h-75z" />
    <glyph glyph-name="caron" unicode="&#x2c7;" 
d="M412 727l-113 -164h-96l-113 164h75l86 -105l86 105h75z" />
    <glyph glyph-name="breve" unicode="&#x2d8;" 
d="M251 572c-44 0 -77.833 13.667 -101.5 41s-36.167 63 -37.5 107h58c5.33301 -61.333 32.333 -92 81 -92s75.667 30.667 81 92h58c-1.33301 -44 -13.833 -79.667 -37.5 -107s-57.5 -41 -101.5 -41z" />
    <glyph glyph-name="dotaccent" unicode="&#x2d9;" 
d="M252 590c-15.333 0 -28.333 5.33301 -39 16s-16 23.667 -16 39s5.33301 28.333 16 39s23.667 16 39 16s28.333 -5.33301 39 -16s16 -23.667 16 -39s-5.33301 -28.333 -16 -39s-23.667 -16 -39 -16z" />
    <glyph glyph-name="ring" unicode="&#x2da;" 
d="M251 551c-33.333 0 -61.166 10.833 -83.499 32.5s-33.5 48.834 -33.5 81.501s11.167 59.834 33.5 81.501s50.166 32.5 83.499 32.5s61.166 -10.833 83.499 -32.5s33.5 -48.834 33.5 -81.501s-11.167 -59.834 -33.5 -81.501s-50.166 -32.5 -83.499 -32.5zM251 601
c18.667 0 33.834 6.16699 45.501 18.5s17.5 27.5 17.5 45.5s-5.83301 33.167 -17.5 45.5s-26.834 18.5 -45.501 18.5s-33.834 -6.16699 -45.501 -18.5s-17.5 -27.5 -17.5 -45.5s5.83301 -33.167 17.5 -45.5s26.834 -18.5 45.501 -18.5z" />
    <glyph glyph-name="ogonek" unicode="&#x2db;" 
d="M190 -132c0 26.667 8.83105 53.8311 26.498 81.498s41.834 51.834 72.501 72.501l69 -15c-61.333 -41.333 -92 -83.333 -92 -126c0 -14.667 4.5 -26.5 13.5 -35.5s21.5 -13.5 37.5 -13.5c13.333 0 27 2 41 6v-60c-19.333 -6 -38.333 -9 -57 -9
c-33.333 0 -60.166 9.33301 -80.499 28s-30.5 42.334 -30.5 71.001z" />
    <glyph glyph-name="tilde" unicode="&#x2dc;" 
d="M244 610c-30.667 15.333 -53 23 -67 23c-26 0 -53 -16 -81 -48l-2 1v78c20.667 28.667 48.334 43 83.001 43c22 0 49 -8 81 -24c30.667 -15.333 53 -23 67 -23c26 0 53 16 81 48l2 -1v-78c-20.667 -28.667 -48.334 -43 -83.001 -43c-22 0 -49 8 -81 24z" />
    <glyph glyph-name="hungarumlaut" unicode="&#x2dd;" 
d="M263 563l83 164h79l-103 -164h-59zM125 563l83 164h79l-103 -164h-59z" />
    <glyph glyph-name="uni0394" unicode="&#x394;" horiz-adv-x="695" 
d="M28 0v61l272 663h96l272 -663v-61h-640zM133 86h427l-133 329l-79 199h-2l-82 -206z" />
    <glyph glyph-name="uni03A9" unicode="&#x3a9;" horiz-adv-x="750" 
d="M375 647c-72.667 0 -129.998 -23.833 -171.998 -71.5s-63 -109.167 -63 -184.5c0 -122.667 54.667 -231.667 164 -327v-64h-282v86h158l1 2c-90.667 92 -136 197 -136 315c0 94.667 30.667 173.667 92 237s140.666 95 237.999 95s176.666 -31.667 237.999 -95
s92 -142.333 92 -237c0 -118 -45.333 -223 -136 -315l1 -2h158v-86h-282v64c109.333 95.333 164 204.333 164 327c0 75.333 -21 136.833 -63 184.5s-99.333 71.5 -172 71.5z" />
    <glyph glyph-name="uni03BC" unicode="&#x3bc;" horiz-adv-x="594" 
d="M173 -220h-93.999v712h90v-284c0 -49.333 8 -83.333 24 -102c18 -22.667 44 -34 78 -34c28.667 0 56.667 8 84 24s50.666 36 69.999 60v336h90v-492h-90v62l-2 1c-49.333 -49.333 -105 -74 -167 -74c-35.333 0 -65.333 7.66699 -90 23l-2 -1z" />
    <glyph glyph-name="pi" unicode="&#x3c0;" horiz-adv-x="646" 
d="M123 0c21.333 118 32.667 253.333 34 406c-40 -4.66699 -82.667 -19 -128 -43v80c48.667 32.667 111.667 49 189 49h414l-14 -81h-97v-411h-90v411h-184c-1.33301 -151.333 -12.333 -288.333 -33 -411h-91z" />
    <glyph glyph-name="Wgrave" unicode="&#x1e80;" horiz-adv-x="1013" 
d="M237 0l-225 724.001h101l121 -392l57 -189h2c12 41.333 31.333 104.666 58 189.999l123 391h70l123 -392l58 -189h2l57 190l121 391h96l-225 -724h-101l-116 368l-51 168h-2l-51 -169l-115 -367h-103zM498 795.001l-110 164h101l77 -164h-68z" />
    <glyph glyph-name="wgrave" unicode="&#x1e81;" horiz-adv-x="825" 
d="M197 0l-171 492h98l73 -219l49 -152h2l54 152l81 219h64l81 -219c18 -47.333 36 -98 54 -152h2c14 46.667 30 97 48 151l73 220h94l-171 -492h-89l-77 211c-14.667 39.333 -30.667 85.333 -48 138h-2c-17.333 -52.667 -33.333 -98.667 -48 -138l-77 -211h-90zM404 563
l-110 164h101l77 -164h-68z" />
    <glyph glyph-name="Wacute" unicode="&#x1e82;" horiz-adv-x="1013" 
d="M237 0l-225 724.001h101l121 -392l57 -189h2c12 41.333 31.333 104.666 58 189.999l123 391h70l123 -392l58 -189h2l57 190l121 391h96l-225 -724h-101l-116 368l-51 168h-2l-51 -169l-115 -367h-103zM628 959.001l-110 -164h-68l77 164h101z" />
    <glyph glyph-name="wacute" unicode="&#x1e83;" horiz-adv-x="825" 
d="M197 0l-171 492h98l73 -219l49 -152h2l54 152l81 219h64l81 -219c18 -47.333 36 -98 54 -152h2c14 46.667 30 97 48 151l73 220h94l-171 -492h-89l-77 211c-14.667 39.333 -30.667 85.333 -48 138h-2c-17.333 -52.667 -33.333 -98.667 -48 -138l-77 -211h-90zM534 727
l-110 -164h-68l77 164h101z" />
    <glyph glyph-name="Wdieresis" unicode="&#x1e84;" horiz-adv-x="1013" 
d="M237 0l-225 724.001h101l121 -392l57 -189h2c12 41.333 31.333 104.666 58 189.999l123 391h70l123 -392l58 -189h2l57 190l121 391h96l-225 -724h-101l-116 368l-51 168h-2l-51 -169l-115 -367h-103zM551 877.001c0 15.333 5.5 28.333 16.5 39s23.833 16 38.5 16
s27.5 -5.33301 38.5 -16s16.5 -23.667 16.5 -39s-5.5 -28.333 -16.5 -39s-23.833 -16 -38.5 -16s-27.5 5.33301 -38.5 16s-16.5 23.667 -16.5 39zM355 877.001c0 15.333 5.5 28.333 16.5 39s23.833 16 38.5 16s27.5 -5.33301 38.5 -16s16.5 -23.667 16.5 -39
s-5.5 -28.333 -16.5 -39s-23.833 -16 -38.5 -16s-27.5 5.33301 -38.5 16s-16.5 23.667 -16.5 39z" />
    <glyph glyph-name="wdieresis" unicode="&#x1e85;" horiz-adv-x="825" 
d="M197 0l-171 492h98l73 -219l49 -152h2l54 152l81 219h64l81 -219c18 -47.333 36 -98 54 -152h2c14 46.667 30 97 48 151l73 220h94l-171 -492h-89l-77 211c-14.667 39.333 -30.667 85.333 -48 138h-2c-17.333 -52.667 -33.333 -98.667 -48 -138l-77 -211h-90zM457 645
c0 15.333 5.5 28.333 16.5 39s23.833 16 38.5 16s27.5 -5.33301 38.5 -16s16.5 -23.667 16.5 -39s-5.5 -28.333 -16.5 -39s-23.833 -16 -38.5 -16s-27.5 5.33301 -38.5 16s-16.5 23.667 -16.5 39zM261 645c0 15.333 5.5 28.333 16.5 39s23.833 16 38.5 16
s27.5 -5.33301 38.5 -16s16.5 -23.667 16.5 -39s-5.5 -28.333 -16.5 -39s-23.833 -16 -38.5 -16s-27.5 5.33301 -38.5 16s-16.5 23.667 -16.5 39z" />
    <glyph glyph-name="Ygrave" unicode="&#x1ef2;" horiz-adv-x="655" 
d="M281 0v327l-279 397h110l123 -177l94 -138h2l94 139l122 176h106l-277 -396v-328h-95zM320 795l-110 164h101l77 -164h-68z" />
    <glyph glyph-name="ygrave" unicode="&#x1ef3;" horiz-adv-x="550" 
d="M192 -220h-98l133 273l-205 439h100l86 -186l67 -148h2l67 148l86 186h95zM266 563l-110 164h101l77 -164h-68z" />
    <glyph glyph-name="endash" unicode="&#x2013;" horiz-adv-x="496" 
d="M52 241v72h392v-72h-392z" />
    <glyph glyph-name="emdash" unicode="&#x2014;" horiz-adv-x="786" 
d="M36 246v62h714v-62h-714z" />
    <glyph glyph-name="quoteleft" unicode="&#x2018;" horiz-adv-x="268" 
d="M62 473l82 269h61l-55 -269h-88z" />
    <glyph glyph-name="quoteright" unicode="&#x2019;" horiz-adv-x="268" 
d="M63 473l55 269h88l-82 -269h-61z" />
    <glyph glyph-name="quotesinglbase" unicode="&#x201a;" horiz-adv-x="268" 
d="M63 -105l55 269h88l-82 -269h-61z" />
    <glyph glyph-name="quotedblleft" unicode="&#x201c;" horiz-adv-x="430" 
d="M62 473l82 269h61l-55 -269h-88zM224 473l82 269h61l-55 -269h-88z" />
    <glyph glyph-name="quotedblright" unicode="&#x201d;" horiz-adv-x="430" 
d="M63 473l55 269h88l-82 -269h-61zM225 473l55 269h88l-82 -269h-61z" />
    <glyph glyph-name="quotedblbase" unicode="&#x201e;" horiz-adv-x="430" 
d="M63 -105l55 269h88l-82 -269h-61zM225 -105l55 269h88l-82 -269h-61z" />
    <glyph glyph-name="dagger" unicode="&#x2020;" horiz-adv-x="611" 
d="M264 -220v630h-199v80h199v234h83v-234h199v-80h-199v-630h-83z" />
    <glyph glyph-name="daggerdbl" unicode="&#x2021;" horiz-adv-x="611" 
d="M65 14v80h199v316h-199v80h199v234h83v-234h199v-80h-199v-316h199v-80h-199v-234h-83v234h-199z" />
    <glyph glyph-name="bullet" unicode="&#x2022;" horiz-adv-x="384" 
d="M83 297c0 30 10.667 55.667 32 77s47 32 77 32s55.667 -10.667 77 -32s32 -47 32 -77s-10.667 -55.667 -32 -77s-47 -32 -77 -32s-55.667 10.667 -77 32s-32 47 -32 77z" />
    <glyph glyph-name="ellipsis" unicode="&#x2026;" horiz-adv-x="816" 
d="M82 55c0 18 6.5 33.5 19.5 46.5s28.5 19.5 46.5 19.5s33.5 -6.5 46.5 -19.5s19.5 -28.5 19.5 -46.5s-6.5 -33.5 -19.5 -46.5s-28.5 -19.5 -46.5 -19.5s-33.5 6.5 -46.5 19.5s-19.5 28.5 -19.5 46.5zM343 55c0 18 6.5 33.5 19.5 46.5s28.5 19.5 46.5 19.5
s33.5 -6.5 46.5 -19.5s19.5 -28.5 19.5 -46.5s-6.5 -33.5 -19.5 -46.5s-28.5 -19.5 -46.5 -19.5s-33.5 6.5 -46.5 19.5s-19.5 28.5 -19.5 46.5zM604 55c0 18 6.5 33.5 19.5 46.5s28.5 19.5 46.5 19.5s33.5 -6.5 46.5 -19.5s19.5 -28.5 19.5 -46.5s-6.5 -33.5 -19.5 -46.5
s-28.5 -19.5 -46.5 -19.5s-33.5 6.5 -46.5 19.5s-19.5 28.5 -19.5 46.5z" />
    <glyph glyph-name="perthousand" unicode="&#x2030;" horiz-adv-x="1348" 
d="M228 361c-50.667 0 -92.334 17.833 -125.001 53.5s-49 80.167 -49 133.5s16.333 97.833 49 133.5s74.334 53.5 125.001 53.5s92.334 -17.833 125.001 -53.5s49 -80.167 49 -133.5s-16.333 -97.833 -49 -133.5s-74.334 -53.5 -125.001 -53.5zM196 0l471 724h69l-471 -724
h-69zM228 423c31.333 0 57.333 12 78 36s31 53.667 31 89s-10.333 65 -31 89s-46.667 36 -78 36s-57.333 -12 -78 -36s-31 -53.667 -31 -89s10.333 -65 31 -89s46.667 -36 78 -36zM946 176c0 53.333 16.333 97.833 49 133.5s74.334 53.5 125.001 53.5
s92.334 -17.833 125.001 -53.5s49 -80.167 49 -133.5s-16.333 -97.833 -49 -133.5s-74.334 -53.5 -125.001 -53.5s-92.334 17.833 -125.001 53.5s-49 80.167 -49 133.5zM530 176c0 53.333 16.333 97.833 49 133.5s74.334 53.5 125.001 53.5s92.334 -17.833 125.001 -53.5
s49 -80.167 49 -133.5s-16.333 -97.833 -49 -133.5s-74.334 -53.5 -125.001 -53.5s-92.334 17.833 -125.001 53.5s-49 80.167 -49 133.5zM1011 176c0 -35.333 10.333 -65 31 -89s46.667 -36 78 -36s57.333 12 78 36s31 53.667 31 89s-10.333 65 -31 89s-46.667 36 -78 36
s-57.333 -12 -78 -36s-31 -53.667 -31 -89zM595 176c0 -35.333 10.333 -65 31 -89s46.667 -36 78 -36s57.333 12 78 36s31 53.667 31 89s-10.333 65 -31 89s-46.667 36 -78 36s-57.333 -12 -78 -36s-31 -53.667 -31 -89z" />
    <glyph glyph-name="guilsinglleft" unicode="&#x2039;" horiz-adv-x="344" 
d="M212 27l-166 219l166 219h78l-166 -219l166 -219h-78z" />
    <glyph glyph-name="guilsinglright" unicode="&#x203a;" horiz-adv-x="344" 
d="M54 27l166 219l-166 219h78l166 -219l-166 -219h-78z" />
    <glyph glyph-name="fraction" unicode="&#x2044;" horiz-adv-x="359" 
d="M-18 -13h-82l477 737h82z" />
    <glyph glyph-name="four.superior" unicode="&#x2074;" horiz-adv-x="411" 
d="M238 422v100h-228l-1 2l234 332h69v-274h75v-60h-75v-100h-74zM180 669l-60 -85l1 -2h117v72c0 30.667 0.666992 64 2 100l-2 1z" />
    <glyph glyph-name="Euro" unicode="&#x20ac;" horiz-adv-x="599" 
d="M17 246l0.000976562 73h75c-1.33301 17.333 -2 32.333 -2 45c0 16.667 0.666992 32.334 2 47.001h-75v73h88c20.667 77.333 61 138.5 121 183.5s134.667 67.5 224 67.5c34.667 0 70.667 -4.66699 108 -14v-94c-38 13.333 -75.667 20 -113 20
c-58 0 -107.833 -14.5 -149.5 -43.5s-71.834 -68.833 -90.501 -119.5h203v-73h-220c-2 -14.667 -3 -30.334 -3 -47.001c0 -11.333 0.666992 -26.333 2 -45h221v-73h-204c18 -52.667 48 -94 90 -124s92 -45 150 -45c47.333 0 89.333 7.66699 126 23v-93
c-42.667 -12 -86 -18 -130 -18c-86.667 0 -159.167 23.333 -217.5 70s-97.833 109 -118.5 187h-87z" />
    <glyph glyph-name="litre" unicode="&#x2113;" horiz-adv-x="425" 
d="M57 144l-33 56.999c37.333 34.667 64 60.334 80 77.001v258c0 68 13.5 120.667 40.5 158s61.167 56 102.5 56c35.333 0 63.5 -13.833 84.5 -41.5s31.5 -65.5 31.5 -113.5c0 -104.667 -53 -214 -159 -328v-66c0 -50 4.83301 -85.167 14.5 -105.5s25.167 -30.5 46.5 -30.5
c26.667 0 56 18.333 88 55l37 -48c-40 -57.333 -89.333 -86 -148 -86c-46 0 -80.333 15.333 -103 46s-34 71.667 -34 123v35c-28.667 -28.667 -44.667 -44 -48 -46zM204 362.999c56.667 76.667 85 154 85 232c0 54 -12.667 81 -38 81c-31.333 0 -47 -44 -47 -132v-181z" />
    <glyph glyph-name="trademark" unicode="&#x2122;" horiz-adv-x="630" 
d="M112 434v242h-88v48h228v-48h-88v-242h-52zM440 508l-46 64l-46 67l-2 -1c1.33301 -28 2 -52.667 2 -74v-130h-51v290h49l94 -130l94 130h50v-290h-52v130c0 21.333 0.666992 46 2 74l-2 1l-46 -67z" />
    <glyph glyph-name="Omega" unicode="&#x2126;" horiz-adv-x="750" 
d="M375 647c-72.667 0 -129.998 -23.833 -171.998 -71.5s-63 -109.167 -63 -184.5c0 -122.667 54.667 -231.667 164 -327v-64h-282v86h158l1 2c-90.667 92 -136 197 -136 315c0 94.667 30.667 173.667 92 237s140.666 95 237.999 95s176.666 -31.667 237.999 -95
s92 -142.333 92 -237c0 -118 -45.333 -223 -136 -315l1 -2h158v-86h-282v64c109.333 95.333 164 204.333 164 327c0 75.333 -21 136.833 -63 184.5s-99.333 71.5 -172 71.5z" />
    <glyph glyph-name="estimated" unicode="&#x212e;" horiz-adv-x="752" 
d="M174 137c0 -27.333 11.8301 -51 35.4971 -71s50.667 -34.167 81 -42.5s60.833 -12.5 91.5 -12.5c44.667 0 88.5 10.167 131.5 30.5s78.5 49.5 106.5 87.5l33 -7c-68 -92.667 -159.333 -139 -274 -139c-97.333 0 -177.833 31 -241.5 93s-95.5 138.333 -95.5 229
s31.833 167.167 95.5 229.5s143.834 93.5 240.501 93.5c56.667 0 109.167 -10.833 157.5 -32.5s89 -55.5 122 -101.5s50.833 -100 53.5 -162c0.666992 -15.333 -0.666016 -24.5 -3.99902 -27.5s-12.666 -4.5 -27.999 -4.5h-473c-16.667 0 -26.167 -1.33301 -28.5 -4
s-3.5 -12 -3.5 -28v-131zM205.997 328h342c16.667 0 26.167 1.33301 28.5 4s3.5 12 3.5 28v125c0 32 -19.833 59.167 -59.5 81.5s-87.5 33.5 -143.5 33.5s-103.833 -11.167 -143.5 -33.5s-59.5 -49.5 -59.5 -81.5v-125c0 -16 1.16699 -25.333 3.5 -28s11.833 -4 28.5 -4z
" />
    <glyph glyph-name="partialdiff" unicode="&#x2202;" horiz-adv-x="565" 
d="M33 212c0 67.333 21.165 124.831 63.498 172.498s98.833 71.5 169.5 71.5c58.667 0 113.334 -19.333 164.001 -58l2 1c-0.666992 22.667 -2.16699 44.334 -4.5 65.001s-6 42.834 -11 66.501s-11.833 45 -20.5 64s-19.167 36.333 -31.5 52s-27.833 28 -46.5 37
s-39.667 13.5 -63 13.5c-45.333 0 -89 -12.333 -131 -37v83c48 24 97.667 36 149 36c59.333 0 108.333 -19.167 147 -57.5s65.5 -85.833 80.5 -142.5s22.5 -121.667 22.5 -195c0 -58 -5.16699 -110.333 -15.5 -157s-25.833 -88.167 -46.5 -124.5s-48.167 -64.333 -82.5 -84
s-74.5 -29.5 -120.5 -29.5c-69.333 0 -124.166 20.833 -164.499 62.5s-60.5 95.167 -60.5 160.5zM122.998 213.998c0 -42.667 12.501 -77.167 37.501 -103.5s58.5 -39.5 100.5 -39.5c52.667 0 92.667 21.167 120 63.5s43.666 100.166 48.999 173.499
c-44 45.333 -95.667 68 -155 68c-48 0 -85.333 -16.167 -112 -48.5s-40 -70.166 -40 -113.499z" />
    <glyph glyph-name="Delta" unicode="&#x2206;" horiz-adv-x="695" 
d="M28 0v61l272 663h96l272 -663v-61h-640zM133 86h427l-133 329l-79 199h-2l-82 -206z" />
    <glyph glyph-name="product" unicode="&#x220f;" horiz-adv-x="782" 
d="M150 -116v754h-118v86h718v-86h-118v-754h-95v754h-292v-754h-95z" />
    <glyph glyph-name="summation" unicode="&#x2211;" horiz-adv-x="614" 
d="M51 -53l229 380l-221 334v63h484v-86h-364l204 -308l-217 -360h393v-86h-508v63z" />
    <glyph glyph-name="minus" unicode="&#x2212;" horiz-adv-x="588" 
d="M53 326v72h482v-72h-482z" />
    <glyph glyph-name="radical" unicode="&#x221a;" horiz-adv-x="670" 
d="M346 41l2 -0.000976562c18.667 58.667 40 122 64 190l224 647h77l-346 -994h-37l-209 523l-100 -41l-25 62l170 71l107 -270c2.66699 -7.33301 13.167 -34.166 31.5 -80.499z" />
    <glyph glyph-name="infinity" unicode="&#x221e;" horiz-adv-x="757" 
d="M207 136c30.667 0 55.8311 10 75.498 30s38.834 48 57.501 84c-16.667 37.333 -35.167 66.333 -55.5 87s-46.166 31 -77.499 31s-56 -10.833 -74 -32.5s-27 -49.5 -27 -83.5s9 -61.833 27 -83.5s42.667 -32.5 74 -32.5zM33.9971 252c0 52 15.5 96.167 46.5 132.5
s72.833 54.5 125.5 54.5c69.333 0 127 -40.333 173 -121h2c44 80.667 100.333 121 169 121c50.667 0 91.834 -18 123.501 -54s47.5 -80.333 47.5 -133c0 -52 -15.5 -96.167 -46.5 -132.5s-72.833 -54.5 -125.5 -54.5c-69.333 0 -127 40.333 -173 121h-2
c-44 -80.667 -100.333 -121 -169 -121c-50.667 0 -91.834 18 -123.501 54s-47.5 80.333 -47.5 133zM547.997 368c-30.667 0 -55.8311 -10 -75.498 -30s-38.834 -48 -57.501 -84c16.667 -37.333 35.167 -66.333 55.5 -87s46.166 -31 77.499 -31s56 10.833 74 32.5
s27 49.5 27 83.5s-9 61.833 -27 83.5s-42.667 32.5 -74 32.5z" />
    <glyph glyph-name="integral" unicode="&#x222b;" horiz-adv-x="347" 
d="M42 -96c21.333 -3.33301 39.667 -5 55 -5c60 0 90 29.333 90 88c0 21.333 -3.66699 51 -11 89l-93 467c-8.66699 42 -13 81 -13 117c0 56.667 16 98.5 48 125.5s74.333 40.5 127 40.5c20 0 39.333 -1.66699 58 -5v-82c-20 3.33301 -38 5 -54 5c-60 0 -90 -29.333 -90 -88
c0 -21.333 3.66699 -51 11 -89l93 -467c8.66699 -42 13 -81 13 -117c0 -56.667 -16 -98.5 -48 -125.5s-74.333 -40.5 -127 -40.5c-19.333 0 -39 1.66699 -59 5v82z" />
    <glyph glyph-name="approxequal" unicode="&#x2248;" horiz-adv-x="588" 
d="M89 391l-21 57c26 48 64 72 114 72c28 0 66.667 -9.16699 116 -27.5s85.333 -27.5 108 -27.5c38 0 69 19.333 93 58l21 -57c-26 -48 -64 -72 -114 -72c-28 0 -66.667 9.16699 -116 27.5s-85.333 27.5 -108 27.5c-38 0 -69 -19.333 -93 -58zM89 201l-21 57
c26 48 64 72 114 72c28 0 66.667 -9.16699 116 -27.5s85.333 -27.5 108 -27.5c38 0 69 19.333 93 58l21 -57c-26 -48 -64 -72 -114 -72c-28 0 -66.667 9.16699 -116 27.5s-85.333 27.5 -108 27.5c-38 0 -69 -19.333 -93 -58z" />
    <glyph glyph-name="notequal" unicode="&#x2260;" horiz-adv-x="588" 
d="M53 428v72h315l113 142l42 -35l-85 -107h97v-72h-154l-105 -132h259v-72h-316l-112 -142l-43 35l85 107h-96v72h153l105 132h-258z" />
    <glyph glyph-name="lessequal" unicode="&#x2264;" horiz-adv-x="687" 
d="M90 375v52l507 216v-77l-387 -164v-2l387 -164v-78zM90 0v65h507v-65h-507z" />
    <glyph glyph-name="greaterequal" unicode="&#x2265;" horiz-adv-x="687" 
d="M90 158v78l387 164v2l-387 164v77l507 -216v-52zM90 0v65h507v-65h-507z" />
    <glyph glyph-name="lozenge" unicode="&#x25ca;" horiz-adv-x="540" 
d="M242 -19l-185 379l185 378h56l185 -379l-185 -378h-56zM269 73h2l139 286l-139 287h-2l-139 -286z" />
    <glyph glyph-name="commaaccent" unicode="&#xf6c3;" 
d="M233 -54h88l-76 -218h-65z" />
    <glyph glyph-name="apple" unicode="&#xf8ff;" horiz-adv-x="1006" 
d="M484 674c-1.33301 8 -2.00098 16.999 -2.00098 26.999c0 42 17 82 51 120s74 60 120 66l15 1c1.33301 -9.33301 2 -17.666 2 -24.999c0 -49.333 -18.667 -93.333 -56 -132c-37.333 -38 -80.666 -57 -129.999 -57zM208.999 95.999
c-32 42.667 -57.666 91.999 -76.999 147.999s-29 112.333 -29 169c0 82.667 22.333 148.334 67 197.001c45.333 49.333 104.333 74 177 74c26 0 57.333 -7 94 -21c28 -10.667 46.667 -16 56 -16c8 0 34.333 7.66699 79 23c28 9.33301 57.333 14 88 14
c78 0 140.333 -29 187 -87c-67.333 -49.333 -101 -108 -101 -176c0 -78.667 41.667 -139.667 125 -183c-23.333 -66 -56 -123 -98 -171s-80.667 -72 -116 -72c-14 0 -41.333 7.33301 -82 22c-30.667 11.333 -56.334 17 -77.001 17c-20 0 -41.667 -4.33301 -65 -13
c-45.333 -17.333 -74.333 -26 -87 -26c-44 0 -91 33.667 -141 101z" />
    <glyph glyph-name="ff" unicode="&#xfb00;" horiz-adv-x="659" 
d="M419 0l-0.00195312 411h-225v-411h-90v411h-78v81h78v94c0 70 14.667 119.333 44 148c28 27.333 66.333 41 115 41c26.667 0 51.334 -3.33301 74.001 -10v-81c-22.667 6 -46 9 -70 9c-28.667 0 -48 -8.16699 -58 -24.5s-15 -39.5 -15 -69.5v-107h225v94
c0 70 14.667 119.333 44 148c28 27.333 66.333 41 115 41c26.667 0 51.334 -3.33301 74.001 -10v-81c-22.667 6 -46 9 -70 9c-28.667 0 -48 -8.16699 -58 -24.5s-15 -39.5 -15 -69.5v-107h126v-81h-126v-411h-90z" />
    <glyph glyph-name="nonmarkingreturn" horiz-adv-x="333" 
 />
    <glyph glyph-name="commaaccent.alt" 
d="M180 556l76 218h65l-53 -218h-88z" />
    <glyph glyph-name="hyphen.cap" horiz-adv-x="352" 
d="M57 321v80h238v-80h-238z" />
    <glyph glyph-name="exclamdown.cap" horiz-adv-x="306" 
d="M182 502l24 -502h-104l24 502h56zM217 672c0 -17.333 -6.16699 -32.166 -18.5 -44.499s-27.166 -18.5 -44.499 -18.5s-32.166 6.16699 -44.499 18.5s-18.5 27.166 -18.5 44.499s6.16699 32.166 18.5 44.499s27.166 18.5 44.499 18.5s32.166 -6.16699 44.499 -18.5
s18.5 -27.166 18.5 -44.499z" />
    <glyph glyph-name="questiondown.cap" horiz-adv-x="467" 
d="M337 534l21 -179.999c-67.333 0 -121 -11.833 -161 -35.5s-60 -58.834 -60 -105.501c0 -39.333 13.333 -71.666 40 -96.999s59.667 -38 99 -38c48.667 0 93 14.667 133 44l10 -92c-41.333 -26.667 -90 -40 -146 -40c-66 0 -121 21 -165 63s-66 93.333 -66 154
c0 58 20.5 107.167 61.5 147.5s92.167 64.166 153.5 71.499l-4 108h84zM346 673.001c0 -17.333 -6.16699 -32.166 -18.5 -44.499s-27.166 -18.5 -44.499 -18.5s-32.166 6.16699 -44.499 18.5s-18.5 27.166 -18.5 44.499s6.16699 32.166 18.5 44.499s27.166 18.5 44.499 18.5
s32.166 -6.16699 44.499 -18.5s18.5 -27.166 18.5 -44.499z" />
    <glyph glyph-name="guilsinglleft.cap" horiz-adv-x="344" 
d="M212 143l-166 219l166 219h78l-166 -219l166 -219h-78z" />
    <glyph glyph-name="guilsinglright.cap" horiz-adv-x="344" 
d="M54 143l166 219l-166 219h78l166 -219l-166 -219h-78z" />
    <glyph glyph-name="guillemotleft.cap" horiz-adv-x="548" 
d="M212 143l-166 219l166 219h78l-166 -219l166 -219h-78zM416 143l-166 219l166 219h78l-166 -219l166 -219h-78z" />
    <glyph glyph-name="guillemotright.cap" horiz-adv-x="548" 
d="M54 143l166 219l-166 219h78l166 -219l-166 -219h-78zM258 143l166 219l-166 219h78l166 -219l-166 -219h-78z" />
    <glyph glyph-name="endash.cap" horiz-adv-x="496" 
d="M52 325v72h392v-72h-392z" />
    <glyph glyph-name="emdash.cap" horiz-adv-x="786" 
d="M36 330v62h714v-62h-714z" />
    <glyph glyph-name="parenleft.cap" horiz-adv-x="350" 
d="M73 362c0 100.667 13.333 191.5 40 272.5s61.334 149.5 104.001 205.5h89c-44.667 -58.667 -80.834 -129 -108.501 -211s-41.5 -171 -41.5 -267s13.833 -185 41.5 -267s63.834 -152.333 108.501 -211h-89c-42.667 56 -77.334 124.5 -104.001 205.5s-40 171.833 -40 272.5
z" />
    <glyph glyph-name="parenright.cap" horiz-adv-x="350" 
d="M44 -116c44.667 58.667 80.834 129 108.501 211s41.5 171 41.5 267s-13.833 185 -41.5 267s-63.834 152.333 -108.501 211h89c42.667 -56 77.334 -124.5 104.001 -205.5s40 -171.833 40 -272.5s-13.333 -191.5 -40 -272.5s-61.334 -149.5 -104.001 -205.5h-89z" />
    <glyph glyph-name="bracketleft.cap" horiz-adv-x="360" 
d="M179 -44h134v-72h-217v956h217v-72h-134v-812z" />
    <glyph glyph-name="bracketright.cap" horiz-adv-x="360" 
d="M47 -44h134v812h-134v72h217v-956h-217v72z" />
    <glyph glyph-name="braceleft.cap" horiz-adv-x="382" 
d="M137 31v211c0 31.333 -4.83301 53.166 -14.5 65.499s-31.167 18.5 -64.5 18.5h-25v72h25c33.333 0 54.833 6.16699 64.5 18.5s14.5 34.166 14.5 65.499v211c0 105.333 49 158 147 158c24.667 0 44.667 -1.66699 60 -5v-71c-11.333 2.66699 -27.333 4 -48 4
c-28.667 0 -48.5 -7.16699 -59.5 -21.5s-16.5 -39.166 -16.5 -74.499v-196c0 -35.333 -4.5 -63 -13.5 -83s-25.167 -33.667 -48.5 -41v-2c23.333 -7.33301 39.5 -21 48.5 -41s13.5 -47.667 13.5 -83v-196c0 -35.333 5.5 -60.166 16.5 -74.499s30.833 -21.5 59.5 -21.5
c20.667 0 36.667 1.33301 48 4v-71c-15.333 -3.33301 -35.333 -5 -60 -5c-98 0 -147 52.667 -147 158z" />
    <glyph glyph-name="braceright.cap" horiz-adv-x="382" 
d="M162 41v196c0 35.333 4.5 63 13.5 83s25.167 33.667 48.5 41v2c-23.333 7.33301 -39.5 21 -48.5 41s-13.5 47.667 -13.5 83v196c0 35.333 -5.5 60.166 -16.5 74.499s-30.833 21.5 -59.5 21.5c-20.667 0 -36.667 -1.33301 -48 -4v71c15.333 3.33301 35.333 5 60 5
c98 0 147 -52.667 147 -158v-211c0 -31.333 4.83301 -53.166 14.5 -65.499s31.167 -18.5 64.5 -18.5h25v-72h-25c-33.333 0 -54.833 -6.16699 -64.5 -18.5s-14.5 -34.166 -14.5 -65.499v-211c0 -105.333 -49 -158 -147 -158c-24.667 0 -44.667 1.66699 -60 5v71
c11.333 -2.66699 27.333 -4 48 -4c28.667 0 48.5 7.16699 59.5 21.5s16.5 39.166 16.5 74.499z" />
    <glyph glyph-name="i.TRK" horiz-adv-x="248" 
d="M79 0v492h90v-492h-90z" />
    <glyph glyph-name="tilde.cap" 
d="M244 842c-30.667 15.333 -53 23 -67 23c-26 0 -53 -16 -81 -48l-2 1v78c20.667 28.667 48.334 43 83.001 43c22 0 49 -8 81 -24c30.667 -15.333 53 -23 67 -23c26 0 53 16 81 48l2 -1v-78c-20.667 -28.667 -48.334 -43 -83.001 -43c-22 0 -49 8 -81 24z" />
    <glyph glyph-name="dieresis.cap" 
d="M294 877c0 15.333 5.33301 28.333 16 39s23.667 16 39 16s28.333 -5.33301 39 -16s16 -23.667 16 -39s-5.33301 -28.333 -16 -39s-23.667 -16 -39 -16s-28.333 5.33301 -39 16s-16 23.667 -16 39zM98 877c0 15.333 5.33301 28.333 16 39s23.667 16 39 16
s28.333 -5.33301 39 -16s16 -23.667 16 -39s-5.33301 -28.333 -16 -39s-23.667 -16 -39 -16s-28.333 5.33301 -39 16s-16 23.667 -16 39z" />
    <glyph glyph-name="macron.cap" 
d="M114 843v68h274v-68h-274z" />
    <glyph glyph-name="breve.cap" 
d="M251 804c-44 0 -77.833 13.667 -101.5 41s-36.167 63 -37.5 107h58c5.33301 -61.333 32.333 -92 81 -92s75.667 30.667 81 92h58c-1.33301 -44 -13.833 -79.667 -37.5 -107s-57.5 -41 -101.5 -41z" />
    <glyph glyph-name="ring.cap" 
d="M251 783c-33.333 0 -61.166 10.833 -83.499 32.5s-33.5 48.834 -33.5 81.501s11.167 59.834 33.5 81.501s50.166 32.5 83.499 32.5s61.166 -10.833 83.499 -32.5s33.5 -48.834 33.5 -81.501s-11.167 -59.834 -33.5 -81.501s-50.166 -32.5 -83.499 -32.5zM251 833
c18.667 0 33.834 6.16699 45.501 18.5s17.5 27.5 17.5 45.5s-5.83301 33.167 -17.5 45.5s-26.834 18.5 -45.501 18.5s-33.834 -6.16699 -45.501 -18.5s-17.5 -27.5 -17.5 -45.5s5.83301 -33.167 17.5 -45.5s26.834 -18.5 45.501 -18.5z" />
    <glyph glyph-name="hungarumlaut.cap" 
d="M263 795l83 164h79l-103 -164h-59zM125 795l83 164h79l-103 -164h-59z" />
    <glyph glyph-name="dotaccent.cap" 
d="M252 822c-15.333 0 -28.333 5.33301 -39 16s-16 23.667 -16 39s5.33301 28.333 16 39s23.667 16 39 16s28.333 -5.33301 39 -16s16 -23.667 16 -39s-5.33301 -28.333 -16 -39s-23.667 -16 -39 -16z" />
    <glyph glyph-name="grave.cap" 
d="M241 795l-110 164h101l77 -164h-68z" />
    <glyph glyph-name="acute.cap" 
d="M371 959l-110 -164h-68l77 164h101z" />
    <glyph glyph-name="circumflex.cap" 
d="M90 795l113 164h96l113 -164h-75l-86 105l-86 -105h-75z" />
    <glyph glyph-name="caron.cap" 
d="M412 959l-113 -164h-96l-113 164h75l86 -105l86 105h75z" />
    <glyph glyph-name="a.alt" horiz-adv-x="597" 
d="M47 240c0 76.667 24.5 139.667 73.5 189s111.167 74 186.5 74c42.667 0 84 -9 124 -27l87 15v-491h-89v31l-2 1c-40.667 -28.667 -87 -43 -139 -43c-68 0 -125.167 23.167 -171.5 69.5s-69.5 106.833 -69.5 181.5zM138 245c0 -50.667 14.833 -92.667 44.5 -126
s69.167 -50 118.5 -50c46.667 0 89 14 127 42v279c-41.333 22 -82.333 33 -123 33c-50 0 -90.333 -16.667 -121 -50s-46 -76 -46 -128z" />
    <glyph glyph-name="agrave.alt" horiz-adv-x="597" 
d="M47 240c0 76.667 24.5 139.667 73.5 189s111.167 74 186.5 74c42.667 0 84 -9 124 -27l87 15v-491h-89v31l-2 1c-40.667 -28.667 -87 -43 -139 -43c-68 0 -125.167 23.167 -171.5 69.5s-69.5 106.833 -69.5 181.5zM138 245c0 -50.667 14.833 -92.667 44.5 -126
s69.167 -50 118.5 -50c46.667 0 89 14 127 42v279c-41.333 22 -82.333 33 -123 33c-50 0 -90.333 -16.667 -121 -50s-46 -76 -46 -128zM290 563l-110 164h101l77 -164h-68z" />
    <glyph glyph-name="aacute.alt" horiz-adv-x="597" 
d="M420 727l-110 -164h-68l77 164h101zM47 240c0 76.667 24.5 139.667 73.5 189s111.167 74 186.5 74c42.667 0 84 -9 124 -27l87 15v-491h-89v31l-2 1c-40.667 -28.667 -87 -43 -139 -43c-68 0 -125.167 23.167 -171.5 69.5s-69.5 106.833 -69.5 181.5zM138 245
c0 -50.667 14.833 -92.667 44.5 -126s69.167 -50 118.5 -50c46.667 0 89 14 127 42v279c-41.333 22 -82.333 33 -123 33c-50 0 -90.333 -16.667 -121 -50s-46 -76 -46 -128z" />
    <glyph glyph-name="acircumflex.alt" horiz-adv-x="597" 
d="M47 240c0 76.667 24.5 139.667 73.5 189s111.167 74 186.5 74c42.667 0 84 -9 124 -27l87 15v-491h-89v31l-2 1c-40.667 -28.667 -87 -43 -139 -43c-68 0 -125.167 23.167 -171.5 69.5s-69.5 106.833 -69.5 181.5zM138 245c0 -50.667 14.833 -92.667 44.5 -126
s69.167 -50 118.5 -50c46.667 0 89 14 127 42v279c-41.333 22 -82.333 33 -123 33c-50 0 -90.333 -16.667 -121 -50s-46 -76 -46 -128zM139 563l113 164h96l113 -164h-75l-86 105l-86 -105h-75z" />
    <glyph glyph-name="atilde.alt" horiz-adv-x="597" 
d="M47 240c0 76.667 24.5 139.667 73.5 189s111.167 74 186.5 74c42.667 0 84 -9 124 -27l87 15v-491h-89v31l-2 1c-40.667 -28.667 -87 -43 -139 -43c-68 0 -125.167 23.167 -171.5 69.5s-69.5 106.833 -69.5 181.5zM138 245c0 -50.667 14.833 -92.667 44.5 -126
s69.167 -50 118.5 -50c46.667 0 89 14 127 42v279c-41.333 22 -82.333 33 -123 33c-50 0 -90.333 -16.667 -121 -50s-46 -76 -46 -128zM296 610c-30.667 15.333 -53 23 -67 23c-26 0 -53 -16 -81 -48l-2 1v78c20.667 28.667 48.334 43 83.001 43c22 0 49 -8 81 -24
c30.667 -15.333 53 -23 67 -23c26 0 53 16 81 48l2 -1v-78c-20.667 -28.667 -48.334 -43 -83.001 -43c-22 0 -49 8 -81 24z" />
    <glyph glyph-name="adieresis.alt" horiz-adv-x="597" 
d="M343 645c0 15.333 5.5 28.333 16.5 39s23.833 16 38.5 16s27.5 -5.33301 38.5 -16s16.5 -23.667 16.5 -39s-5.5 -28.333 -16.5 -39s-23.833 -16 -38.5 -16s-27.5 5.33301 -38.5 16s-16.5 23.667 -16.5 39zM147 645c0 15.333 5.5 28.333 16.5 39s23.833 16 38.5 16
s27.5 -5.33301 38.5 -16s16.5 -23.667 16.5 -39s-5.5 -28.333 -16.5 -39s-23.833 -16 -38.5 -16s-27.5 5.33301 -38.5 16s-16.5 23.667 -16.5 39zM47 240c0 76.667 24.5 139.667 73.5 189s111.167 74 186.5 74c42.667 0 84 -9 124 -27l87 15v-491h-89v31l-2 1
c-40.667 -28.667 -87 -43 -139 -43c-68 0 -125.167 23.167 -171.5 69.5s-69.5 106.833 -69.5 181.5zM138 245c0 -50.667 14.833 -92.667 44.5 -126s69.167 -50 118.5 -50c46.667 0 89 14 127 42v279c-41.333 22 -82.333 33 -123 33c-50 0 -90.333 -16.667 -121 -50
s-46 -76 -46 -128z" />
    <glyph glyph-name="amacron.alt" horiz-adv-x="597" 
d="M47 240c0 76.667 24.5 139.667 73.5 189s111.167 74 186.5 74c42.667 0 84 -9 124 -27l87 15v-491h-89v31l-2 1c-40.667 -28.667 -87 -43 -139 -43c-68 0 -125.167 23.167 -171.5 69.5s-69.5 106.833 -69.5 181.5zM138 245c0 -50.667 14.833 -92.667 44.5 -126
s69.167 -50 118.5 -50c46.667 0 89 14 127 42v279c-41.333 22 -82.333 33 -123 33c-50 0 -90.333 -16.667 -121 -50s-46 -76 -46 -128zM163 611v68h274v-68h-274z" />
    <glyph glyph-name="abreve.alt" horiz-adv-x="597" 
d="M47 240c0 76.667 24.5 139.667 73.5 189s111.167 74 186.5 74c42.667 0 84 -9 124 -27l87 15v-491h-89v31l-2 1c-40.667 -28.667 -87 -43 -139 -43c-68 0 -125.167 23.167 -171.5 69.5s-69.5 106.833 -69.5 181.5zM138 245c0 -50.667 14.833 -92.667 44.5 -126
s69.167 -50 118.5 -50c46.667 0 89 14 127 42v279c-41.333 22 -82.333 33 -123 33c-50 0 -90.333 -16.667 -121 -50s-46 -76 -46 -128zM300 572c-44 0 -77.833 13.667 -101.5 41s-36.167 63 -37.5 107h58c5.33301 -61.333 32.333 -92 81 -92s75.667 30.667 81 92h58
c-1.33301 -44 -13.833 -79.667 -37.5 -107s-57.5 -41 -101.5 -41z" />
    <glyph glyph-name="aring.alt" horiz-adv-x="597" 
d="M47 240c0 76.667 24.5 139.667 73.5 189s111.167 74 186.5 74c42.667 0 84 -9 124 -27l87 15v-491h-89v31l-2 1c-40.667 -28.667 -87 -43 -139 -43c-68 0 -125.167 23.167 -171.5 69.5s-69.5 106.833 -69.5 181.5zM138 245c0 -50.667 14.833 -92.667 44.5 -126
s69.167 -50 118.5 -50c46.667 0 89 14 127 42v279c-41.333 22 -82.333 33 -123 33c-50 0 -90.333 -16.667 -121 -50s-46 -76 -46 -128zM300 551c-33.333 0 -61.166 10.833 -83.499 32.5s-33.5 48.834 -33.5 81.501s11.167 59.834 33.5 81.501s50.166 32.5 83.499 32.5
s61.166 -10.833 83.499 -32.5s33.5 -48.834 33.5 -81.501s-11.167 -59.834 -33.5 -81.501s-50.166 -32.5 -83.499 -32.5zM300 601c18.667 0 33.834 6.16699 45.501 18.5s17.5 27.5 17.5 45.5s-5.83301 33.167 -17.5 45.5s-26.834 18.5 -45.501 18.5
s-33.834 -6.16699 -45.501 -18.5s-17.5 -27.5 -17.5 -45.5s5.83301 -33.167 17.5 -45.5s26.834 -18.5 45.501 -18.5z" />
    <glyph glyph-name="ae.alt" horiz-adv-x="935" 
d="M885 220l-370.001 -0.000976562c6.66699 -47.333 26 -84.166 58 -110.499s72 -39.5 120 -39.5c59.333 0 115.333 20.333 168 61v-96c-48 -30.667 -106 -46 -174 -46c-84 0 -151.333 28.333 -202 85c-53.333 -56.667 -118.333 -85 -195 -85c-70 0 -128 23 -174 69
s-69 106.333 -69 181c0 76.667 24.333 139.834 73 189.501s110.667 74.5 186 74.5c39.333 0 79 -8.33301 119 -25l88 15v-56l2 -1c36.667 44.667 88.334 67 155.001 67c62 0 113.833 -21.333 155.5 -64s62.5 -100.334 62.5 -173.001c0 -18.667 -1 -34 -3 -46z
M297.999 68.999c60 0 109.999 21 149.999 63c-16 34 -24 72.333 -24 115v143c-40 22 -80.333 33 -121 33c-49.333 0 -89.166 -16.667 -119.499 -50s-45.5 -75.666 -45.5 -126.999c0 -50.667 14.667 -92.834 44 -126.501s68 -50.5 116 -50.5zM665.998 421.999
c-36 0 -68.333 -11.167 -97 -33.5s-46.334 -54.833 -53.001 -97.5h285c-1.33301 34.667 -14.166 65.167 -38.499 91.5s-56.5 39.5 -96.5 39.5z" />
    <glyph glyph-name="aeacute.alt" horiz-adv-x="935" 
d="M614 727l-110 -164h-68l77 164h101zM885 220l-370.001 -0.000976562c6.66699 -47.333 26 -84.166 58 -110.499s72 -39.5 120 -39.5c59.333 0 115.333 20.333 168 61v-96c-48 -30.667 -106 -46 -174 -46c-84 0 -151.333 28.333 -202 85
c-53.333 -56.667 -118.333 -85 -195 -85c-70 0 -128 23 -174 69s-69 106.333 -69 181c0 76.667 24.333 139.834 73 189.501s110.667 74.5 186 74.5c39.333 0 79 -8.33301 119 -25l88 15v-56l2 -1c36.667 44.667 88.334 67 155.001 67c62 0 113.833 -21.333 155.5 -64
s62.5 -100.334 62.5 -173.001c0 -18.667 -1 -34 -3 -46zM297.999 68.999c60 0 109.999 21 149.999 63c-16 34 -24 72.333 -24 115v143c-40 22 -80.333 33 -121 33c-49.333 0 -89.166 -16.667 -119.499 -50s-45.5 -75.666 -45.5 -126.999
c0 -50.667 14.667 -92.834 44 -126.501s68 -50.5 116 -50.5zM665.998 421.999c-36 0 -68.333 -11.167 -97 -33.5s-46.334 -54.833 -53.001 -97.5h285c-1.33301 34.667 -14.166 65.167 -38.499 91.5s-56.5 39.5 -96.5 39.5z" />
    <glyph glyph-name="aogonek.alt" horiz-adv-x="597" 
d="M47 240c0 76.667 24.5 139.666 73.5 188.999s111.167 74 186.5 74c42.667 0 84 -9 124 -27l87 15v-491c-55.333 -37.333 -83 -76.333 -83 -117c0 -34 17 -51 51 -51c10.667 0 23.667 1.66699 39 5v-60c-16 -5.33301 -34 -8 -54 -8c-34 0 -61.167 9.16699 -81.5 27.5
s-30.5 42.5 -30.5 72.5c0 48.667 23.333 92.334 70 131.001v31l-2 1c-40.667 -28.667 -87 -43 -139 -43c-68 0 -125.167 23.167 -171.5 69.5s-69.5 106.833 -69.5 181.5zM138 244.999c0 -50.667 14.833 -92.667 44.5 -126s69.167 -50 118.5 -50c46.667 0 89 14 127 42v279
c-41.333 22 -82.333 33 -123 33c-50 0 -90.333 -16.667 -121 -50s-46 -76 -46 -128z" />
    <glyph glyph-name="ordfeminine.alt" horiz-adv-x="388" 
d="M34 564c0 50 16 91 48 123s72.667 48 122 48c29.333 0 56.333 -6 81 -18l61 11v-320h-67v17l-2 2c-28 -17.333 -57 -26 -87 -26c-44 0 -81 15 -111 45s-45 69.333 -45 118zM102 568c0 -30.667 9.16895 -56.501 27.502 -77.501s42.5 -31.5 72.5 -31.5
c27.333 0 52.666 8.33301 75.999 25v172c-23.333 13.333 -48 20 -74 20c-30.667 0 -55.334 -10.167 -74.001 -30.5s-28 -46.166 -28 -77.499z" />
    <glyph glyph-name="periodcentered.cap" horiz-adv-x="294" 
d="M81 362c0 18 6.5 33.5 19.5 46.5s28.5 19.5 46.5 19.5s33.5 -6.5 46.5 -19.5s19.5 -28.5 19.5 -46.5s-6.5 -33.5 -19.5 -46.5s-28.5 -19.5 -46.5 -19.5s-33.5 6.5 -46.5 19.5s-19.5 28.5 -19.5 46.5z" />
    <glyph glyph-name="at.cap" horiz-adv-x="807" 
d="M34 362c0 105.333 35.166 193.831 105.499 265.498s158.5 107.5 264.5 107.5c105.333 0 193.166 -35.667 263.499 -107s105.5 -158 105.5 -260c0 -59.333 -13 -107.166 -39 -143.499s-63.667 -54.5 -113 -54.5c-54 0 -92 20.333 -114 61h-2
c-35.333 -41.333 -79.666 -62 -132.999 -62c-46 0 -83.667 15.833 -113 47.5s-44 72.834 -44 123.501c0 57.333 18.333 107.5 55 150.5s84 64.5 142 64.5c36.667 0 71 -11.667 103 -35l56 10l-17 -195c-0.666992 -6.66699 -1 -12.667 -1 -18c0 -31.333 6.5 -55.333 19.5 -72
s31.5 -25 55.5 -25c28.667 0 51.667 12 69 36s26 59.667 26 107c0 90 -29.5 166.5 -88.5 229.5s-135.5 94.5 -229.5 94.5s-171 -31.667 -231 -95s-90 -140 -90 -230c0 -90.667 29.833 -167.5 89.5 -230.5s136.167 -94.5 229.5 -94.5c82.667 0 153.334 25 212.001 75l27 -41
c-66 -54.667 -145.333 -82 -238 -82c-106.667 0 -195 35.667 -265 107s-105 160 -105 266zM381.999 226.998c44 0 79.667 18.667 107 56c-1.33301 13.333 -1 32 1 56l10 119c-26 26 -56.667 39 -92 39c-37.333 0 -67.833 -15.667 -91.5 -47s-35.5 -67.333 -35.5 -108
c0 -34 9 -61.667 27 -83s42.667 -32 74 -32z" />
    </font>
</defs>
</svg>
